<?xml version="1.0" standalone="no"?>
<!DOCTYPE svg PUBLIC "-//W3C//DTD SVG 20010904//EN"
 "http://www.w3.org/TR/2001/REC-SVG-20010904/DTD/svg10.dtd">
<svg version="1.0" xmlns="http://www.w3.org/2000/svg"
 width="260.000000pt" height="260.000000pt" viewBox="0 0 260.000000 260.000000"
 preserveAspectRatio="xMidYMid meet">
<metadata>
Created by potrace 1.11, written by Peter Selinger 2001-2013
</metadata>
<g transform="translate(0.000000,260.000000) scale(0.100000,-0.100000)"
fill="#000000" stroke="none">
<path d="M0 1300 l0 -1300 1300 0 1300 0 0 1300 0 1300 -1300 0 -1300 0 0
-1300z m1464 700 c43 -11 101 -32 129 -47 77 -42 159 -129 201 -214 64 -130
67 -160 64 -696 l-3 -478 -55 0 -55 0 -3 95 c-2 52 -6 98 -11 103 -4 4 -34
-19 -66 -53 -116 -120 -231 -168 -425 -177 -135 -6 -209 5 -297 46 -118 56
-192 159 -213 299 -30 190 54 362 214 441 107 52 182 61 501 61 l285 0 0 48
c0 141 -40 260 -116 341 -94 102 -217 138 -413 121 -115 -10 -130 -13 -234
-47 -44 -14 -83 -21 -87 -17 -13 13 -35 102 -28 110 11 11 170 55 248 69 117
20 273 18 364 -5z"/>
<path d="M1122 1249 c-82 -14 -147 -46 -195 -98 -56 -60 -72 -106 -71 -206 1
-96 22 -152 80 -208 62 -60 129 -81 259 -81 172 0 302 49 395 151 85 93 125
200 137 361 l6 92 -279 -1 c-153 -1 -303 -5 -332 -10z"/>
</g>
</svg>
