<?xml version="1.0" standalone="no"?>
<!DOCTYPE svg PUBLIC "-//W3C//DTD SVG 1.1//EN" "http://www.w3.org/Graphics/SVG/1.1/DTD/svg11.dtd" >
<svg xmlns="http://www.w3.org/2000/svg">
<metadata>
Created by FontPrep 20130207 at Sat Nov  7 08:17:28 2015
 By heaven
Copyright (c) Esselte Corporation 1997.  Portions Copyright Microsoft Corporation 1997.  All rights reserved.
</metadata>
<defs>
<font id="2789ba9182900fd0d7190771df717a8c" horiz-adv-x='1024' >
  <font-face 
    font-family="Pristina-Regular"
    font-weight="400"
    font-stretch="normal"
    units-per-em="2048"
    panose-1="3 6 4 2 4 4 6 8 2 4"
    ascent="1638"
    descent="-410"
    x-height="796"
    cap-height="1331"
    bbox="-869 -915 2131 1769.02"
    underline-thickness="120"
    underline-position="-261"
    unicode-range="U+0020-F002"
  />
<missing-glyph horiz-adv-x="369" 
d="M295 37v1291h-221v-1291h221zM37 0v1365h295v-1365h-295z" />
    <glyph glyph-name=".notdef" horiz-adv-x="369" 
d="M295 37v1291h-221v-1291h221zM37 0v1365h295v-1365h-295z" />
    <glyph glyph-name="glyph1" horiz-adv-x="0" 
 />
    <glyph glyph-name="glyph2" horiz-adv-x="369" 
 />
    <glyph glyph-name="space" unicode=" " horiz-adv-x="369" 
 />
    <glyph glyph-name="exclam" unicode="!" horiz-adv-x="492" 
d="M81 46q0 20 22 110q8 32 27 32q7 0 15 -4q86 -34 86 -55q-1 -7 -11 -31t-30 -123q-8 -20 -34 -8q-75 33 -75 79zM290 343q0 -11 -18 -11t-56 27t-37 47q0 20 5 43q56 241 154 517t132 336q32 60 56 61q5 0 29 -7q102 -28 102 -56q0 -17 -32 -22q-191 -328 -340 -852
q-14 -46 2 -74q3 -5 3 -9z" />
    <glyph glyph-name="quotedbl" unicode="&#x22;" horiz-adv-x="565" 
d="M283 865q-5 0 -11 3q-51 31 -59 76q0 21 10 19q52 164 70 335q5 40 7 52t13 16q9 3 72 -76q21 -26 21 -55q6 -71 -46 -221t-77 -149zM519 868q-4 0 -9 2q-54 32 -59 76q-2 19 10 19q52 160 69 335q6 40 8 52t13 16q9 3 72 -76q17 -22 21 -72t-48 -200q-53 -152 -77 -152z
" />
    <glyph glyph-name="numbersign" unicode="#" horiz-adv-x="1079" 
d="M272 67q0 -18 7.5 -32.5t7.5 -21.5q0 -24 -29 -24q-11 0 -25 5l-51 18q-30 12 -30 38t8 46l90 246q-117 4 -156 -29q-9 -10 -24.5 -9t-10.5 20q7 16 25 58t29 50q11 7 166 -8l92 254q-75 4 -121 4t-57 -5t-27 -21t-30 -14q-14 1 -14 8q0 6 2 6t22 54q21 54 31 59
q11 5 65 1t157 -12l17 45q33 91 33 141t-9 67.5t-9 23.5q0 23 28 20l82 -11q38 -10 26 -75l-78 -219q105 -9 178 -9t130 2q13 35 35 92t21 107q0 50 -9.5 68.5t-9.5 24.5q0 23 28 20l80 -11q41 -10 29 -75l-80 -219q94 8 127 45q12 13 28 11t17 -15q-9 -19 -17 -64t-26 -54
t-160 -9l-90 -252q152 8 184 47q12 12 28 9t13 -15q-9 -27 -15 -66t-17 -50t-224 -11l-18 -54q-46 -132 -46 -205q0 -18 7.5 -32.5t7.5 -21.5q0 -24 -29 -24q-11 0 -24 5l-53 18q-30 11 -30 38t7 46l84 230q-8 0 -305 12q-68 -181 -68 -271zM768 664q-94 0 -307 8l-92 -256
q170 -13 305 -8q22 53 94 256z" />
    <glyph glyph-name="dollar" unicode="$" horiz-adv-x="791" 
d="M438 98q125 0 117 164q-5 91 -104 283q-95 -269 -138 -422q78 -25 125 -25zM175 -113q0 15 34 131q-107 44 -158 90t-51 70t25 80q25 54 39 54t24 -40q17 -61 162 -125q71 232 158 480q-127 241 -127 363t168 241q16 12 32 12q26 0 26 -23q0 -13 -13 -26
q-82 -78 -78 -174t55 -213q88 244 172 434q-38 -19 -66 -19t-28 20q1 20 33 36q32 17 98 41q35 79 82 172q25 50 63 50q5 1 33 -5t29 -21t-21 -27t-42 -50q-20 -39 -44 -82q42 14 59 14t56 -55q61 -29 75 -38t14 -28t-9 -47q-42 -128 -103 -223q-26 -40 -52 -40t-87 40
q-19 13 -19 25q0 18 27 27t58.5 87t31.5 119t-36 41q-19 0 -56 -8q-99 -219 -225 -551q60 -107 118 -217t58 -170q0 -170 -176 -275q-50 -77 -131 -77q-45 0 -102 14q-37 -142 -22 -175q16 -33 -12 -33q-9 0 -20 9q-52 43 -52 92z" />
    <glyph glyph-name="percent" unicode="%" horiz-adv-x="1159" 
d="M634 106q0 -96 60 -96q72 0 132 122t74 218t-5 96q-20 0 -104 -22q-42 -15 -48 -4q-72 -92 -102 -250q-7 -35 -7 -64zM307 957q0 -95 60 -95q72 0 132 120t79 247q6 44 2 57q-5 20 -117 -14q-43 -9 -47 -2q-73 -93 -103 -248q-6 -36 -6 -65zM734 524q22 0 83 -53
q79 37 100 37t56 -48t35 -84t-19 -93q-63 -195 -141 -269q-38 -35 -125 -39q-21 0 -39 7q-160 25 -162 137q-1 69 48 199t110 180q32 26 54 26zM967 1420q9 0 20 -7l62 -41q27 -18 27 -44t-19 -62l-709 -1014q-135 -194 -135 -271l8 -40q0 -21 -17 -21q-10 0 -22 8l-61 43
q-26 19 -26 47t24 64l723 1026q116 164 116 248l-10 43q0 21 19 21zM395 825q-21 0 -39 6q-160 26 -161 138q-1 67 48 197t109 180q34 27 56 27t81 -52q79 37 101 37t56.5 -48t34.5 -83t-19 -94q-61 -189 -142 -267q-42 -41 -125 -41z" />
    <glyph glyph-name="ampersand" unicode="&#x26;" horiz-adv-x="1460" 
d="M680 1085q-70 -1 -70 -63t62 -229q81 55 143 114t66 76q5 28 -79 65t-122 37zM1196 -305q-136 0 -491 741q-18 -1 -30 -1q-45 1 -45 19t40 60q-27 55 -49 109v2q-436 -331 -465 -508q-6 -39 24 -49t70 -5q162 28 344 154q15 11 24 35.5t29 36.5q49 28 63 28q26 1 30 -49
t-4 -67q-17 -38 -221 -137q-205 -99 -283 -99t-119 80q-93 71 -93 125q0 96 211 287q148 136 347 274q-91 239 -91 383q0 46 125 46q52 0 101 -6t45 -34q133 -6 188 -37q33 -18 33 -56q0 -12 -10 -103q-5 -40 -61 -86t-195 -148q8 -19 25.5 -58t25.5 -59q47 -2 104 -2
q313 0 389 39q48 25 52 52q5 17 27 17t22 -33t-16 -95t-36 -78t-139 -16h-205q-74 -1 -139 -6q123 -251 240 -427t175 -176t136 60q9 6 20 6q25 0 25 -28q1 -28 -93 -109q-94 -82 -130 -82z" />
    <glyph glyph-name="quotesingle" unicode="'" horiz-adv-x="328" 
d="M281 883q-5 0 -9 2q-50 24 -59 76q0 20 10 20q52 162 70 336q5 39 7 51t12 14q10 3 73 -75q21 -26 21 -56q6 -69 -46 -219t-79 -149z" />
    <glyph glyph-name="parenleft" unicode="(" horiz-adv-x="819" 
d="M1009 1325q0 -24 -31 -24q-9 0 -54 21t-90 21q-108 0 -272 -408t-222 -794q-8 -52 -8 -100t32 -80t128 -72q27 -11 27 -37t-22 -25q-5 0 -10 1q-157 34 -220 78t-63 140q0 21 3 46q44 367 230 864t327 496q88 -1 225 -98q20 -14 20 -29z" />
    <glyph glyph-name="parenright" unicode=")" horiz-adv-x="819" 
d="M-61 -57q0 25 34 25q9 0 55 -18t91 -18q100 0 259 386t222 817q5 34 5 62q1 77 -37 116t-126 78q-25 11 -25 34q0 31 36 23q163 -38 224 -83t61 -134q0 -21 -3 -47q-42 -346 -203 -807q-195 -558 -362 -555q-91 2 -217 98q-14 11 -14 23z" />
    <glyph glyph-name="asterisk" unicode="*" horiz-adv-x="543" 
d="M605 1274q15 0 27 -40t-28 -50l-102 -25q20 -23 52 -61t32 -48t-24 -28t-37 -18t-29 26t-52 86q-17 -26 -44 -70q-28 -44 -38 -44t-34 17.5t-24 29.5t18 34t65 76q-128 23 -135 41q-3 9 7 41t27 32q23 0 122 -48q-3 32 -7 87q-4 54 10 58t33 4q46 0 43 -41
q-3 -66 -8 -106q111 47 126 47z" />
    <glyph glyph-name="plus" unicode="+" horiz-adv-x="868" 
d="M788 537q0 -15 -14 -53t-26 -48t-89 -6q-77 6 -159 8q-6 -23 -25 -116t-21 -109q-2 -17 8 -25t6 -22t-11 -15q-8 1 -16 5q-9 4 -49 20t-40 42q0 24 20 82t40 140q-40 2 -134 2t-102 -15t-26 -11q-17 4 -13 18t15 72q7 44 96 35t186 -13q61 227 37 246q-13 11 -9 26t19 13
q4 -1 48.5 -27t44.5 -44t-13 -65q-13 -46 -39 -153q25 0 121 -2t105 16t25 15q15 -1 15 -16z" />
    <glyph glyph-name="comma" unicode="," horiz-adv-x="410" 
d="M-15 -182q0 26 38 163q37 137 67 175t57 49q93 32 99 21t-50 -116t-108 -268q21 -10 -16.5 -34t-71.5 -19q-15 3 -15 29z" />
    <glyph glyph-name="hyphen" unicode="-" horiz-adv-x="743" 
d="M582 293q-142 0 -379 57q-32 8 -54 8t-38 -30q-6 -10 -17 -10t-11 17q0 4 15 69t26 65t26 -4q235 -70 366 -72q48 0 63 10t25 31q10 22 21 18t9 -21l-8 -68t-10 -61q-5 -10 -34 -9z" />
    <glyph glyph-name="period" unicode="." horiz-adv-x="410" 
d="M181 167q1 -23 -35 -107t-74 -85q14 0 -72 9q-12 1 -16 12t10 14q52 118 63 162t29 44t70 -17q25 -9 25 -32z" />
    <glyph glyph-name="slash" unicode="/" horiz-adv-x="819" 
d="M842 1417q8 0 16 -4l100 -41q27 -18 27 -44t-18 -62l-674 -1014q-129 -194 -129 -271l6 -34q0 -36 -35 -36q-19 0 -43 17l-57 43q-24 19 -24 47t24 64l684 1026q105 158 105 237l-8 43q0 29 26 29z" />
    <glyph glyph-name="zero" unicode="0" horiz-adv-x="866" 
d="M709 784q0 113 -97 113q-25 0 -84 -8q-29 10 -38 9t-72 -60q-96 -90 -165 -282t-69 -351q0 -51 40 -95q67 -74 141 -75q73 0 149 83q76 82 136 284t59 382zM720 970q120 0 120 -112q0 -317 -117 -607t-272 -290q-124 0 -232 47q-42 19 -37 33q-74 48 -100 81t-26 94
q0 219 139 505q139 287 239 287q15 0 129 -54q128 16 157 16z" />
    <glyph glyph-name="one" unicode="1" horiz-adv-x="516" 
d="M607 934q0 -27 -52 -31q-92 -121 -169 -339t-101 -439q-7 -63 6 -85t13 -36q0 -30 -31 -30q-15 0 -59 19t-60 33q-18 14 -18 46q0 33 11 90q70 340 172 543q-98 -109 -233 -248q-13 -11 -30 -11q-34 0 -34 29q0 15 17 29q180 144 334 422q15 27 22 31q9 4 33 -5
q24 52 60 52t100 -43q19 -13 19 -27z" />
    <glyph glyph-name="two" unicode="2" horiz-adv-x="895" 
d="M222 13q-36 0 -70 -3q-17 -18 -56 -59q-16 -16 -61 -6q-44 16 -41 53q5 72 22.5 123t76.5 51q11 0 118 -10q217 175 391 391q90 112 90 240q0 40 -12 58t-45 18t-55 -3q-122 -14 -275 -133q-36 -28 -36 -58l10 -54q5 -32 -11 -32q-26 0 -98 89q-29 44 -29 70t31 49
q300 216 465 211q39 -2 80 -74q81 18 70 18q44 0 44 -115t-12 -152q-24 -74 -127 -179q-203 -208 -391 -359q246 -17 498 -118q62 -25 62 -82q0 -20 -13 -68q-8 -23 -28 -25t-30 18q-10 18 -15 29q-11 14 -54 27q-269 85 -499 85z" />
    <glyph glyph-name="three" unicode="3" horiz-adv-x="784" 
d="M727 146q0 -57 -49 -111q-144 -157 -352 -289t-346 -131q-65 0 -124 47q-13 11 -92 92q-15 17 -15 32q0 24 27 24q12 0 23 -7q85 -51 143 -51t192 52t275.5 155t198.5 195q28 43 28 84t-46 69q-109 68 -246 68q-55 0 -90 -8t-46 -8q-26 0 -30 24q-8 46 -8 109q0 28 51 53
q149 71 201 105q89 57 141 136q20 31 20 52q0 37 -60 37t-140 -41q-159 -84 -174 -148q-7 -28 -25 -28q-11 0 -20 14q-53 77 -53 104t45 60q146 106 295 153q37 12 65 12t46 -22q16 -27 32 -53q90 -61 90 -129q0 -47 -49 -90q-117 -103 -326 -230q233 -24 373 -121
q44 -30 44 -50t-21 -64q22 -39 22 -96z" />
    <glyph glyph-name="four" unicode="4" horiz-adv-x="948" 
d="M866 91q0 -34 -64 -44t-151 -10q-31 -146 -37 -226t-1 -87.5t10 -13.5t5 -12q0 -30 -31 -30q-23 0 -103 47q-18 20 -18 45t61 275q-305 -9 -457 4q-10 -27 -18 -32t-38 1t-39 23q-9 19 -11 79t42 70q263 236 385 490l-57 90q-4 7 -4 13q0 27 41 22q14 -1 51 53t107 170
q13 27 33 27t83 -31q23 -12 23 -28t-14 -52q-74 -182 -231 -404t-269 -333q-15 -18 22 -23q229 -28 385 -12q75 280 158 469q24 55 54 66q5 1 45 1t39 -8q0 -8 -28 -38q-29 -28 -79 -178t-82 -302q93 0 113 43q2 10 22 21q23 0 29 -21q8 -44 16 -80t8 -44z" />
    <glyph glyph-name="five" unicode="5" horiz-adv-x="891" 
d="M840 870q0 -42 -44 -42q-12 0 -26 3q-292 62 -418 62q-33 0 -43 -23q-107 -254 -133 -356q3 -5 6 -11q8 1 29 13q262 144 361 144q76 0 106 -78q74 -32 104 -58t30 -62q0 -38 -15 -87q-67 -211 -229 -419t-333 -346t-251 -147q-40 -3 -74 27q-111 98 -111 130t26 32
q9 0 19 -6q59 -37 105 -37q68 0 226 123q158 124 303 306t192 357q8 30 8 54q0 88 -93 88q-26 0 -57 -9q-140 -39 -311 -166q-3 -1 -19 -26.5t-27 -25.5t-37 30t-58 113q-13 33 8 75q106 212 129 351q0 3 -19.5 44t-19.5 57t4 27q15 36 105 21q258 -43 452 -43
q36 72 62.5 58.5t34.5 -63.5t8 -110z" />
    <glyph glyph-name="six" unicode="6" horiz-adv-x="924" 
d="M195 193q0 -148 116 -148q65 -1 139 55t188 262.5t114 328.5q0 51 -38 51q-19 0 -107 -28t-201 -98q-9 -5 -19 -5q-32 0 -32 29q0 13 14 24q119 92 249 147q40 17 80 17t86 -62q68 -27 82 -37t15 -42q0 -32 -11 -89q-27 -144 -127 -314q-186 -314 -334 -314
q-70 0 -118 22q-230 21 -230 158q-1 316 113 618t264 498t238 198q63 2 180 -86q15 -11 15 -24q0 -23 -25 -17q-55 13 -126 -5t-199 -192q-128 -172 -227 -426t-99 -521z" />
    <glyph glyph-name="seven" unicode="7" horiz-adv-x="838" 
d="M-10 -449q0 26 39 95q171 304 242 426t454 755q-146 29 -358 21q-128 -5 -189 -133q-16 -35 -44 -35q-23 0 -23 29q0 7 15 75t52 164q24 61 92 61q30 0 124 -14t368 -47q18 48 22 52q14 18 48 18t45 -15t16 -71t-16 -80q-2 -2 -48 -34t-323 -557q-277 -526 -332 -699
q-16 -44 -30 -84t-12 -74t-10 -35t-44 27t-60 78t-28 77z" />
    <glyph glyph-name="eight" unicode="8" horiz-adv-x="973" 
d="M788 506q0 81 -223 203q-236 -198 -387 -435q-24 -37 -24 -75q0 -101 152 -101t317 142.5t165 265.5zM469 975q0 -47 31 -88q28 -30 55 -60q137 117 255 251t117 217q0 47 -46 81q-12 11 -12 26q0 31 31 31q13 0 28 -10q147 -99 147 -184q0 -55 -61 -123t-211.5 -192.5
t-175.5 -153.5q173 -130 225 -190t52 -132q0 -132 -142 -262q-236 -215 -481 -215q-63 0 -115 92l-112 88q-50 47 -50 91q0 123 268 346l222 182q-143 98 -142 242q2 219 275 428q46 35 88 35t116 -72q14 -13 14 -23q0 -19 -28 -19l-39 4q-110 -1 -210 -145t-99 -245z" />
    <glyph glyph-name="nine" unicode="9" horiz-adv-x="932" 
d="M-74 -476q0 25 32 25q6 0 13 -2q97 -16 140 0q175 69 394 457t259 715q2 20 2 38q0 75 -37 118t-95 43t-116 -50q-112 -96 -218 -254t-124 -311q-9 -76 58 -76q89 0 315 158q19 13 37 13t17.5 -17t-21.5 -39q-148 -158 -207 -195t-102 -37t-123 62q-35 10 -69 19
q-48 20 -48 88q0 159 167 413q120 183 228 260q72 51 108 51t93 -24q16 29 116 -11t135.5 -74t35.5 -74t-7 -83q-68 -413 -329.5 -870t-432.5 -467q-84 -5 -206 96q-15 13 -15 28z" />
    <glyph glyph-name="colon" unicode=":" horiz-adv-x="410" 
d="M181 167q1 -23 -35 -107t-74 -85q14 0 -72 9q-12 1 -16 12t12 14q24 62 48 134t42 72t70 -17q25 -9 25 -32zM319 576q-1 -24 -37 -108t-74 -84q14 0 -71 9q-11 1 -15 13t9 14q49 110 62 158t31 48t69 -18q26 -8 26 -32z" />
    <glyph glyph-name="semicolon" unicode=";" horiz-adv-x="410" 
d="M-15 -182q0 26 38 163q37 137 67 175t57 49q93 32 99 21t-50 -116t-108 -268q21 -10 -16.5 -34t-71.5 -19q-15 3 -15 29zM319 576q-1 -24 -37 -108t-74 -84q14 0 -71 9q-11 1 -15 13t9 14q49 110 62 158t31 48t69 -18q26 -8 26 -32z" />
    <glyph glyph-name="less" unicode="&#x3c;" horiz-adv-x="606" 
d="M500 747q14 0 30.5 -39t16.5 -50q0 -21 -53 -44q-95 -38 -238 -84q-21 -4 12 -36q118 -114 166 -182t49 -78q0 -10 -28 -16t-41 -6q-20 0 -36 46t-190 227q-16 17 -44 31t-35.5 39t-6.5 31t57 16t167 48.5t143 68.5q17 28 31 28z" />
    <glyph glyph-name="equal" unicode="=" horiz-adv-x="868" 
d="M774 424q0 -5 -14 -42.5t-26 -47.5t-52 -8q-220 14 -366 14t-154 -15t-26 -11t-14 18t15 71q5 29 40 31q1 0 109 -11t347 -13q92 0 101 16q8 16 24 14t16 -16zM816 639q0 -15 -14 -51t-26 -43t-142 1t-277 9q-147 0 -155 -15q-8 -16 -25 -12t-13 16t12 60q10 48 98 39
q160 -16 400 -18q92 -1 101 15t25 16q16 -2 16 -17z" />
    <glyph glyph-name="greater" unicode="&#x3e;" horiz-adv-x="606" 
d="M136 214q-14 0 -31.5 39t-17.5 49q1 22 75 52t217 76q21 4 -12 37q-119 113 -167 181t-48 78t28 16t41 6q21 0 37 -46t188 -227q15 -16 44 -30t36.5 -39.5t6.5 -31.5t-57 -16t-168 -48t-142 -68q-16 -28 -30 -28z" />
    <glyph glyph-name="question" unicode="?" horiz-adv-x="956" 
d="M500 111q0 -21 -70 -83t-92 -61q-22 0 -72 24q-51 24 -55.5 31.5t-0.5 13.5t15 3q51 45 131 127q23 29 40 29t83 -48q21 -15 21 -36zM261 844q-24 0 -46 26q-66 81 -66 108t35 62q234 236 439 310q49 17 82 17q56 0 120 -87q54 -9 100 -35t46 -61q0 -98 -148 -314
t-303 -378l111 36q28 0 28 -28q0 -20 -26 -29q-165 -58 -227 -115q-22 -19 -38 -19q-31 0 -63 93q-2 6 -2 11q0 18 57 65q148 122 298 326t161 321q10 100 -94 100q-29 0 -57 -12q-220 -93 -379 -278q-14 -16 -14 -37l10 -58q0 -24 -24 -24z" />
    <glyph glyph-name="at" unicode="@" horiz-adv-x="1217" 
d="M823 418q-8 0 -32 18t-19 49q32 187 74 295q-62 -100 -181 -235t-163 -135q-13 0 -37 20q-53 29 -47 78q32 251 270 473q34 32 64 31t102 -66q7 -6 7 -12q0 -20 -38 -6t-67 -6q-66 -50 -152 -180t-106 -240q-5 -28 14 -28q52 0 183 172t149 214t35 82q9 33 17 33t50 -29
q33 -26 23 -53q-55 -150 -101 -381q33 19 93 59q75 63 102 117q81 162 74 330q-5 100 -39 150t-100 84t-134 30q-271 -10 -497 -500q-112 -242 -112 -420q0 -55 9 -106q15 -80 239 -80q106 0 185 26t173.5 99t139.5 150q17 28 31 35q14 8 15 -8q0 -16 -9 -38
q-50 -135 -155 -221q-38 -31 -105 -68t-78 -45q-40 -27 -173 -27t-175 52q-166 9 -196 174q-5 24 -5 61q0 230 97 446q96 216 254 382q206 220 330 183.5t116 -54.5q171 -41 232 -88q91 -69 86 -219q-8 -229 -181 -402q-120 -83 -187 -140q-67 -56 -75 -56z" />
    <glyph glyph-name="A" unicode="A" horiz-adv-x="1311" 
d="M346 837q0 -21 5 -51t-20 -30q-18 0 -26 16q-74 155 -74 198t33 72q60 50 270 82t392 113q22 22 26 27t9 25t23 20t50 -33q30 -32 30 -46t-54 -109t-185 -292t-207 -284q238 0 373 12q16 162 109 653q15 108 145 158q20 8 33 8q22 0 22 -18t-20 -47q-62 -89 -114 -455
q-106 -750 15 -749l63 16q20 0 20 -13q0 -36 -168 -124q-25 -13 -43 -13q-98 0 -70 496q-240 -14 -453 -39l-198 -242q51 6 41 6q47 -1 73 -98q7 -23 7 -36q0 -24 -21 -24l-60 10q-85 0 -229 -91l-43 -27q-8 0 -42 24t-54 68q-12 30 42 66t162.5 131t141.5 137q-9 91 -9 95
q3 57 41 73t130 21q248 302 399 590q-49 -25 -214 -79t-242 -81q-109 -39 -109 -136zM373 194h-1h1z" />
    <glyph glyph-name="B" unicode="B" horiz-adv-x="1325" 
d="M1254 286q0 -59 -76 -157q10 -17 10 -33q0 -123 -455 -123q-95 0 -205.5 6.5t-117.5 49.5q-8 40 16 108q11 33 40 33q-12 0 66 -10q23 -3 47.5 -42.5t73.5 -44.5t98 -5q214 0 330 53q58 27 58 83t-56 116t-193 158q-137 99 -192 116q-100 0 -100 37q0 13 88 82
q21 16 42.5 16t92.5 -43q167 9 276 273q50 121 50 192t-39 89t-177 -14q-138 -33 -190 -57q-87 -309 -217 -657t-168 -406t-54 -68t-76 -22t-59 5q0 8 5 22q57 160 57 223q1 63 7 68t86 33q27 9 34 -23q89 181 167 415t102 357q-267 -114 -365 -239q-25 -33 -25 -73l18 -108
q0 -19 -15 -19t-35 23q-100 118 -100 178q0 22 34 64q67 79 227 180t291 148q9 68 5 90t19 22q11 0 41 -29t23 -48q219 63 290 61t101 -29t64 -92q30 2 50 -17t18 -63q-15 -260 -181 -426q-37 -37 -96 -66t-96 -32q361 -222 361 -355z" />
    <glyph glyph-name="C" unicode="C" horiz-adv-x="1034" 
d="M887 802q-11 0 -27 5q-76 23 -76 55q0 16 21 21q88 132 104 317q-55 49 -104 49q-105 1 -241 -177t-234 -419t-94 -405q2 -96 50 -136t89 -40t109 21t190 105q123 84 203 169q25 27 29 59t20 32t22 -18q36 -90 36 -124t-22 -58t-90 -74q-280 -210 -450 -210
q-82 0 -125 55q-195 73 -195 223q0 242 118 502t275 438q157 179 253 186q35 3 81 -29q6 -4 93 -75q5 40 28 40q24 0 70 -36t46 -58t-11 -67q-48 -195 -111 -301q-29 -50 -57 -50z" />
    <glyph glyph-name="D" unicode="D" horiz-adv-x="1311" 
d="M482 123q0 32 37 32q10 0 20 -5q75 -47 166 -52q125 -6 319 364t225 660q10 93 -100 138q-27 10 -45 8q-193 -27 -373 -140q-95 -224 -195 -544t-147 -564q-10 -50 -42 -50q-12 0 -46 17t-53 37t-19 82t27 179q6 29 20 29t70 -46q136 463 258 793q-223 -140 -344 -270
q-28 -31 -28 -70t24 -86t24 -54q0 -17 -22 -17t-31 11q-125 147 -125 205t80 129q169 153 490 338q53 124 77 124q18 0 74 -54q55 25 105 47t90 23q38 0 119 -54q4 4 13 4q56 0 171 -104q62 -57 62 -123q0 -16 -3 -37q-30 -232 -144 -489t-246 -431.5t-212 -175.5
q-99 0 -282 123q-14 10 -14 23z" />
    <glyph glyph-name="E" unicode="E" horiz-adv-x="1235" 
d="M1297 1267q20 1 27 -37t7 -60t-7 -28q-6 -8 -40 -34t-92 -10q-185 47 -422 86q-68 -276 -100 -416q110 9 377 23q56 1 75 -37q2 -6 10 -41t8 -41q0 -34 -82 -48t-94 13q-13 27 -53 27q-222 0 -272 -9l-80 -249q-35 -102 -61.5 -141.5t-85.5 -80.5q35 2 138 2t484 -34
q31 -3 37.5 30.5t20.5 34.5q27 2 34 -22q10 -43 27 -115q5 -20 -17 -39t-42.5 -36t-30.5 -16t-64 15q-215 58 -482 58q-109 0 -234 -9q-84 -73 -103 -73t-24 26q-19 94 -19 105q0 39 41 51t176 18q105 194 162 383q-6 18 -26 63t-20 61q0 38 77 57q15 4 33 8q46 176 114 450
q-142 25 -200 25t-105 -6q-110 -16 -110 -147q0 -59 22 -146q10 -39 -17 -39q-19 0 -26 24q-42 139 -42 219t20 142q29 92 173 92q106 0 318 -41q52 38 69 38q17 1 17 -15t-8 -39q40 -12 395 -92q46 -11 72 34q11 16 25 16z" />
    <glyph glyph-name="F" unicode="F" horiz-adv-x="1229" 
d="M1421 1260q0 -29 -35 -39q-2 -1 -114 -17t-338 -35q-59 -126 -170 -516q189 17 383 21q58 1 77 -37q4 -8 10 -41t7 -39q0 -33 -67 -45t-82 -11t-27 23t-51 23q-218 0 -285 -8q-36 -92 -127 -496q-17 -75 -49 -75q-21 0 -86 22q-39 12 -27 98t37 176q12 42 82 29
q23 52 55 166q-42 109 -42 113t1 10q6 33 99 53q5 17 164 522q-158 -12 -319 -50q-161 -39 -217 -89t-57 -105q0 -55 66 -178q7 -12 7 -24q0 -25 -23 -25q-16 0 -29 19q-80 113 -100 167t-27 136q-10 123 199 180q274 75 557 100q32 65 48 65q23 0 79 -50q26 0 162 20
q22 4 46 34t107 34q46 2 63 -34q2 -5 12 -47t11 -50z" />
    <glyph glyph-name="G" unicode="G" horiz-adv-x="1237" 
d="M1240 653q0 -25 -54 -33t-68 -28q-12 -20 -35 -123q-86 -388 -194 -659q-35 -87 -94 -87t-217 101q-16 10 -16 23q0 21 29 21q11 0 37 -10t44 -10q51 0 94 64q103 154 219 584q-123 -142 -276 -260q-205 -158 -334 -158q-74 0 -121 53q-80 47 -118 95t-34 128
q12 215 152 450q140 236 317 400t277 170q51 3 156 -74q8 54 28 54t56 -17t40 -33t-8 -110t-57 -203q-12 -30 -37 -30q-25 -1 -70 9t-45 32q0 17 20 17q5 0 9 -1q38 94 47 203q5 42 -47 42t-117 -34q-189 -102 -371.5 -359t-215.5 -475q-6 -34 -6 -62q0 -99 81 -153
q22 -14 53 -14q115 0 327 175q161 131 274 265q-205 -16 -243 -16t-56 15t-30 47t-11 42q0 10 6 11q6 0 69 -21q27 -9 156 -3t174 13q20 37 54 37t126 -41q30 -13 30 -37z" />
    <glyph glyph-name="H" unicode="H" horiz-adv-x="1436" 
d="M1738 1313q0 -19 -50 -19t-39 2q-32 -4 -62 -32q-71 -68 -177 -334t-206 -719l68 119q20 34 36 34t17 -14t-31 -90t-52 -126q-20 -51 -28 -107t-28 -56t-94 41q-20 11 -20 103t71 399q-375 23 -561 -10q-43 -111 -125.5 -287.5t-114.5 -228.5t-78 -37q-100 33 -100 63
q0 17 14 47q26 44 60 119q2 8 2 56t16 48t46 -34t26 -53q59 69 112 219q-53 110 -53 140q0 66 141 62q48 108 124 316t96 291q-16 -21 -178 -77t-222 -85q-107 -53 -107 -119q1 -28 9 -55t8 -33q0 -21 -20 -21t-29 17q-24 40 -49 114t-23 113q5 76 219 123q143 31 285 61
q95 27 133 85q22 32 34 32t54 -32q16 -12 16 -52t-98 -299q-47 -112 -155 -385q272 -26 544 -6q65 241 148 450q134 336 235 343q61 4 162 -58q24 -14 24 -28z" />
    <glyph glyph-name="I" unicode="I" horiz-adv-x="848" 
d="M102 82q0 35 32 35q8 0 16 -4q86 -44 147 -45q133 -4 289 388t168 697q3 99 -98 99q-16 0 -35 -3q-79 -11 -183 -131t-149 -280q-6 -21 -6 -49t25 -59l40 -40q17 -17 17 -26q0 -19 -21 -19t-29 4q-86 51 -121 87t-35 84t44 150q45 102 145 214q100 114 178 147
q36 16 148 -18q7 9 21 9q39 0 153 -75q51 -33 29 -223q-35 -291 -184 -648q-175 -421 -339 -423q-99 -1 -241 106q-11 9 -11 23z" />
    <glyph glyph-name="J" unicode="J" horiz-adv-x="893" 
d="M69 -81q0 31 25 31q8 0 17 -5q95 -58 155 -62q134 -8 313 444t203 814q5 66 -30 88t-111 18t-185 -121t-159 -278q-7 -23 -7 -44q0 -43 64 -112q11 -11 11 -20q0 -19 -21 -19t-29 4q-150 96 -150 173q1 49 49 150t170 229t198 128q36 0 114 -28q7 7 21 7q40 0 151 -79
q40 -29 40 -140q0 -54 -9 -120q-48 -340 -211 -738q-195 -479 -371 -477q-101 2 -237 129q-11 11 -11 28z" />
    <glyph glyph-name="K" unicode="K" horiz-adv-x="1503" 
d="M450 -13q0 -17 -19 -17t-69 38t-49 58q0 20 9 51q82 289 204 612q80 200 174 436q-286 -70 -409 -168q-45 -35 -45 -62t20 -122q7 -31 -22 -31q-20 0 -31 19q-33 54 -55 117t-22 82q0 75 116 122q41 17 414 140q88 29 116 63t44 34t42 -19q26 -18 26 -32t-15 -42
q-126 -226 -234 -509q-109 -283 -157 -489t-44 -248q6 -16 6 -33zM674 538q-40 0 -40 79q0 42 22.5 61.5t91.5 34.5q25 5 38 -13q118 92 266 244t179 213q-63 37 -63 61q0 19 36 27q50 35 119 113q29 33 65 33q36 -1 68 -33t32 -46t-76 -109t-286 -301t-282 -255
q91 -129 206 -292t216 -230q44 -30 79 -29.5t63 20.5t38 20q21 0 21 -21q0 -37 -140 -162q-23 -21 -47 -21t-57 27q-123 98 -279 318t-219 274q-32 -13 -51 -13z" />
    <glyph glyph-name="L" unicode="L" horiz-adv-x="1087" 
d="M915 861q0 11 17 22q24 39 50 152t22 190q-4 58 -59 58q-31 0 -68 -28q-123 -92 -240 -332t-272 -710q-23 -69 -74 -84q264 0 559 -31q46 -4 54 2t24 42q16 34 29 34t24 -22q43 -83 43 -114q0 -30 -41 -68t-61 -38t-56 11q-234 65 -469 65t-257 -17l-19 -32
q-25 -44 -55 -44t-37 22q-29 83 -29 106q0 75 217 84q169 595 359 943q162 297 276 312q32 5 166 -59q33 2 64 2q30 0 40 -18t11 -84q1 -155 -66 -348q-18 -52 -49 -52l-55 6q-48 6 -48 30z" />
    <glyph glyph-name="M" unicode="M" horiz-adv-x="1907" 
d="M1798 370q18 0 17 -18q0 -18 -7 -35q-44 -104 -81 -299q-9 -43 -41 -43q-32 1 -83 39t-57 52q-13 34 74 447q87 412 117 468q-105 -124 -257 -362t-263 -451q20 -62 20 -97t-50 -81t-61.5 -46.5t-45.5 56.5t-34 74t29 71q-64 238 -233 580q-108 -272 -219 -496
q72 -81 72 -109q0 -22 -50 -28q-105 -12 -176 -108q-6 -31 -35 -31q-30 0 -76 40q-46 39 -46 51t18 28q67 58 153 112q186 309 303 650q-122 268 -303 374q-31 18 -63 18t-74 -39q-40 -42 -70 -76t-50 -34t-21 18q0 9 6 21q135 271 258 266q146 -5 379 -362q57 130 57 235
q-1 54 15 54t71 -43q17 -14 15 -60t-93 -297q176 -342 267 -624q353 586 635 915q35 80 86 158q22 34 61 34t158 -96q7 -6 7 -14q0 -20 -32 -20l-38 4q-47 0 -95 -92q-195 -378 -254 -941q23 43 61 115q11 22 29 22z" />
    <glyph glyph-name="N" unicode="N" horiz-adv-x="1432" 
d="M596 1047q-105 168 -203 168q-32 0 -104 -54q-19 -14 -39 -14q-20 -1 -21 19q0 20 21 40q110 106 151 138t80 28q61 -7 160 -145q21 52 12 80q-1 5 -1 9q0 13 15 13t45 -25q30 -24 29 -52q0 -28 -12 -62t-22 -64q136 -190 275 -444t185 -385q35 227 170 750
q-80 51 -80 79q0 17 34.5 14.5t170.5 170.5q31 38 56 38t71 -53q14 -16 14 -43t-53 -89q-40 -42 -80 -85q-82 -229 -156 -517t-77 -433q17 -46 17 -62q0 -40 -74 -90q-14 -9 -29 -9t-27 14t-22 26q-15 10 0 86q-88 232 -236 509t-207 351q-50 -163 -264 -700q27 10 84 -102
q6 -11 6 -18q0 -17 -29 -18q18 1 -46 1t-107 -43l-25 -57q-18 -42 -51 -42q-13 0 -30 7q-102 41 -101 81q2 52 158 146q82 147 196 440t146 398z" />
    <glyph glyph-name="O" unicode="O" horiz-adv-x="1194" 
d="M1112 1302q-32 0 -96 -45q-144 -99 -348 -292q-22 -21 -40 -23t-18 14t15 39q87 136 178 236q-52 39 -85 39t-52 -15q-110 -81 -264 -385t-142 -551q5 -101 37 -149t101 -84q267 -135 532 388q190 376 217 753q5 75 -35 75zM645 1370q43 0 74 -17t127 -81q78 85 122 115
t91 30t94 -59q83 -5 109 -23t27 -66q0 -48 -9 -126q-36 -312 -207 -679q-223 -482 -493 -493q-52 -2 -102 8t-44 27q-164 40 -227 93q-87 73 -82 225q10 290 173 621q131 266 253 378q51 47 94 47z" />
    <glyph glyph-name="P" unicode="P" horiz-adv-x="1159" 
d="M848 483q-44 0 -166 49q-24 10 -24 23q0 20 73 20t121 37q96 73 194 217t119 299q12 85 -58 102q-32 7 -65 1q-155 -8 -299 -68q-167 -603 -307 -964q8 3 48 27t63 20t49 -51q26 -48 25 -69q0 -27 -30 -24q-31 3 -91 -29q-60 -31 -94 -65t-62 -34t-67 36q-70 65 -3 82
q244 562 363 1028q-376 -169 -376 -315q0 -26 15 -64t15 -47q0 -28 -22 -28q-31 0 -119 174q-13 24 -13 48q1 59 63 117q62 57 208 141t266 128q12 48 12 84t20 36q27 0 95 -73q165 48 223 47q111 -2 158 -117q60 -44 82 -72t23 -65q0 -139 -129 -335.5t-198 -246.5
q-68 -50 -112 -49z" />
    <glyph glyph-name="Q" unicode="Q" horiz-adv-x="1239" 
d="M1112 1302q-32 0 -96 -45q-144 -99 -348 -292q-22 -21 -40 -23t-18 14t15 39q87 136 178 236q-52 39 -85 39t-52 -15q-110 -81 -264 -385t-142 -551q5 -101 37 -149t100 -84q114 -58 219 0q-39 14 -143 61q-28 13 -28 65t6 80q7 28 21 30q14 4 24 -5q85 -81 237 -137
q155 164 274.5 468t139.5 579q5 75 -35 75zM980 133q126 0 210 80q10 10 20 10q18 0 18 -28t-79 -140q-47 -66 -107 -66q-22 1 -50 3t-230 47q-119 -91 -281 -60q-54 10 -47 27q-164 40 -227 93q-87 73 -82 225q10 290 173 621q131 266 253 378q51 47 94 47t74 -17t127 -81
q78 85 122 115t91 30t94 -59q83 -5 109 -23t27 -66q-1 -228 -127 -582q-126 -355 -285 -542q54 -12 103 -12z" />
    <glyph glyph-name="R" unicode="R" horiz-adv-x="1446" 
d="M382 -38q-12 0 -30 13q-65 49 -65 75t19 68q19 44 48 142q0 26 2 46t17 24q13 3 57 -64q76 161 170 424q-54 83 -54 104t95 29q42 122 92 312q-163 -61 -265 -117t-173 -148q-30 -38 -30 -82t38 -159q11 -33 -19 -33q-19 0 -32 20q-58 87 -87 163t-29 94q0 51 71 116
q202 186 549 291q5 9 14 64t25 53q19 -3 61 -82q229 55 287 51q90 -6 139 -127q61 -43 84 -77t23 -97q1 -111 -137 -282t-238 -171q-55 0 -102 26q-36 24 -61 40t-25 29q0 26 33 26q8 0 34 -8.5t46 -8.5q99 0 218 152t119 248q0 115 -160 115q-134 0 -295 -64
q-46 -200 -112 -393q197 -295 457 -580t358 -292q42 -3 72 21t48 24t17 -19q0 -13 -10 -30q-88 -155 -160 -160q-44 -3 -105 49q-364 315 -727 821q-33 -118 -113 -320t-111 -264t-53 -62z" />
    <glyph glyph-name="S" unicode="S" horiz-adv-x="1120" 
d="M995 303q0 -181 -184 -291q-53 -83 -137 -82q-149 2 -319 124q-171 122 -229 222t-58 128t44 66t66 38q24 0 24 -30q0 -13 -5 -32q53 -144 224 -268t310 -123q123 1 123 168q0 92 -143.5 367.5t-143.5 394.5q1 78 41 134t133 126q17 13 34 13q27 0 27 -23q0 -16 -18 -33
q-77 -73 -77 -184t144 -380t144 -335zM1132 938q-26 0 -92 43q-20 13 -20 27q0 21 35 30q26 8 58 89t32 127t-37 46q-45 0 -130 -31q-86 -31 -107 -31t-21 20t31 34q112 56 184 82t87 25q23 0 60 -64q56 -17 74 -27t17 -34q0 -23 -9 -53q-39 -137 -106 -238q-30 -45 -56 -45
z" />
    <glyph glyph-name="T" unicode="T" horiz-adv-x="1163" 
d="M270 911q0 -55 66 -176q7 -13 7 -24q0 -25 -23 -25q-16 0 -29 19q-79 113 -99 167t-28 136q-11 122 201 180q276 75 557 100q32 65 47 65q23 0 78 -50q26 0 161 20q24 4 48 34t106 34q45 2 62 -34q4 -5 14 -47t10 -50q0 -29 -36 -39q-2 -1 -124 -19t-309 -33
q-79 -169 -189 -531t-161 -595q-17 -75 -50 -75q-21 0 -85 22q-21 6 -24 23q1 -3 1 65q0 147 47 268q18 45 40 45l52 -10q26 103 134 423t118 353q-154 -12 -316 -51q-162 -40 -220 -90q-56 -50 -56 -105zM470 13q0 1 -1 4q1 -2 1 -4z" />
    <glyph glyph-name="U" unicode="U" horiz-adv-x="1534" 
d="M1415 350q16 0 16 -18t-8 -35q-65 -143 -90 -285q-9 -55 -43 -55t-88 45t-54 57q0 4 4.5 18t6.5 29q29 217 119 551q-218 -398 -408 -614q-58 -66 -122 -66t-109 60q-104 82 -123 108q-38 52 -38 155q0 170 81 425t180 451q-277 -91 -391 -172q-54 -39 -54 -80l28 -107
q1 -5 1 -10q0 -18 -23 -18t-44 36q-85 145 -85 206q0 83 114 118q195 52 491 143q48 75 90 75t123 -79q12 -11 12 -20q0 -21 -94 -41q-121 -199 -205 -489t-90 -462q-3 -88 34 -138t90 -50t93 47q177 208 316 446t315 597q41 83 90 155q22 32 52 32q48 0 165 -101
q8 -7 8 -14q0 -21 -31 -21l-47 6q-45 0 -91 -88q-211 -400 -285 -932q15 43 32 67t31 46t31 22z" />
    <glyph glyph-name="V" unicode="V" horiz-adv-x="1356" 
d="M1621 1243q0 -20 -87 -78q-122 -146 -340 -507t-305 -580q5 -22 5 -34q0 -33 -63 -62q-25 -12 -47 -12t-50 32t-29 58q0 24 28 49q-7 334 -85 646t-165 437q-30 44 -82 44t-153 -75q-11 -8 -33 -8t-22 21q0 12 16 28q85 86 213 158q46 26 82 26t82 -67
q205 -301 284 -1071q70 140 257 472t212 367q-19 -3 -40 38t-21 77t19 36q23 -1 46 -1q33 8 127 96q29 20 44 20q40 0 94 -77q13 -19 13 -33z" />
    <glyph glyph-name="W" unicode="W" horiz-adv-x="2011" 
d="M2131 916q0 -30 -25 -30q-6 0 -20 12t-46 32q-173 -637 -418 -916q-26 -29 -69 -29t-89 23q-140 41 -194 85q-79 63 -86 192q-3 37 -3 80q0 279 79 579q-110 -118 -256 -323t-207 -351q-63 -146 -85 -178q-22 -33 -86 -65t-90 -32t-26 16t12 42q103 218 207 597.5
t104 543.5q0 26 -4 43q-104 -25 -246 -91t-237 -128q-51 -34 -51 -82q1 -48 13 -76t12 -35q0 -17 -18 -17t-34 21q-122 151 -118 195q6 95 386 220q176 57 224 81q5 15 12 34q6 19 36 19t100 -52t70 -133q0 -82 -65 -331t-108 -377q87 127 279 378t223 282q32 118 42 141
q23 52 62 52q13 0 29 -5q110 -34 110 -66q0 -18 -24 -44l-69 -73l-1 -1q-137 -447 -137 -747q0 -42 2 -83q6 -104 50 -171t109 -66t122 80q98 138 212 398t148 470q-47 54 -47 143t33 209q18 65 52 65q34 1 75 -49t41 -96t-58 -292q14 -14 62 -66q11 -13 11 -28z" />
    <glyph glyph-name="X" unicode="X" horiz-adv-x="1315" 
d="M1312 1367q14 1 52 -43t38 -84t-83.5 -134t-458.5 -383q80 -386 164 -518q61 -96 105 -96q18 1 60 21t61 20t19 -18q0 -12 -16 -26q-167 -141 -249 -141q-123 0 -259 670q-354 -280 -469.5 -428.5t-115.5 -226.5q0 -16 8 -38t2 -26q-18 -13 -43.5 18.5t-51.5 65.5t-26 74
t43 96q137 177 637 557q-45 238 -65 449q-88 -48 -176 -95q-120 -69 -160 -123q-24 -30 -24 -68t18 -76t17 -46q0 -24 -21 -24q-13 0 -25 16q-108 143 -108 209q-1 66 67 116t203 101t194 86q8 64 99 117q29 16 46 16q22 0 42 -47q6 -15 6 -34t-45 -52q-3 -22 -3 -54
q0 -144 48 -405q261 202 336 283q-87 29 -87 63q0 9 11 17q9 -3 41 10q87 64 135 147q20 34 34 34z" />
    <glyph glyph-name="Y" unicode="Y" horiz-adv-x="1366" 
d="M288 768q-22 0 -44 35q-93 145 -93 206q0 78 109 115q194 60 488 162q44 78 86 78t124 -74q14 -12 14 -22q0 -22 -89 -43q-119 -167 -197 -419t-78 -397q0 -144 77 -144q37 0 75 38q355 357 618 907q26 102 66 102q29 0 72 -48q13 -16 13 -35q0 -49 -122 -223
q-28 -71 -189 -599t-237 -632q-35 -49 -81 -49q-68 0 -261 137q-22 16 -22 31q0 23 33 23q12 1 71 -23t86 -24q56 0 98 77q184 333 326 839q-190 -334 -414 -563q-59 -61 -95 -61t-79 45q-115 70 -141 103t-23 147q6 217 203 702q-240 -89 -352 -176q-53 -41 -53 -80
l34 -119q-1 -16 -23 -16z" />
    <glyph glyph-name="Z" unicode="Z" horiz-adv-x="1120" 
d="M1166 1048q-22 0 -89 15q-143 -76 -434 -469q217 -5 324 -14q41 -4 41 -33q0 -23 -50 -27q-196 -15 -397 -39q-142 -209 -213 -346q175 0 516 -59q24 -4 44 -4t34 24q16 39 39 39t30 -16q33 -114 33 -137q0 -22 -25 -43.5t-45 -37.5t-73 3q-320 114 -622 114
q-28 -35 -46.5 -43t-64.5 -8t-74.5 38.5t-28.5 48.5t23 42q22 32 48 36q26 5 93 3q45 77 129 203q1 56 -9 119t-10 77t11 25q25 23 182 31q268 375 435 514q-1 0 -177 60t-251 59q-102 0 -150 -86q-63 -113 -125 -308q-11 -36 -42 -36q-25 0 -25 32q0 7 2 17q67 291 149 454
q45 88 160 88q72 0 288 -82t289 -92q57 44 91 44t75 -12q42 -12 42 -41l-3 -30q0 -43 -69 -98q-33 -25 -55 -25z" />
    <glyph glyph-name="bracketleft" unicode="[" horiz-adv-x="819" 
d="M930 1456q24 0 24 -26q0 -31 -30 -31q-96 -2 -134 -31t-66 -100t-204 -603t-192 -592q-18 -60 -18 -93q0 -86 126 -86q30 0 30 -29t-26 -29q-166 3 -233 -2q-16 -6 -30 -6q-42 0 -42 48q-1 14 9 46t232 708t234 716q43 123 94 123q10 0 30 -9t101 -6q80 2 95 2z" />
    <glyph glyph-name="backslash" unicode="\" horiz-adv-x="819" 
d="M524 -59q0 -41 -65 -35l-74 6q-66 5 -59 84l90 1106q17 208 -39 244q-23 14 -23 32t31 23l111 18q56 0 61 -78l-86 -1091q-5 -68 1 -164t28 -111q24 -16 24 -34z" />
    <glyph glyph-name="bracketright" unicode="]" horiz-adv-x="819" 
d="M252 -166q-10 0 -32 9t-100 6t-93 -3q-26 0 -26 30t30 30q97 2 135 30t66 100q28 70 204 602t192 592q18 60 18 93q0 86 -128 86q-29 0 -29 29t25 28q137 -5 236 2q15 7 28 7q43 0 43 -49q-1 -12 -11 -46t-232 -712t-234 -711q-46 -123 -92 -123z" />
    <glyph glyph-name="asciicircum" unicode="^" horiz-adv-x="922" 
d="M876 592q0 -14 -58 -37t-79 -23q-45 0 -166 271q-4 13 -51 -17q-127 -95 -301 -219q-49 -30 -63 -30t-22 27t-7 40q0 26 39 32t166 92t170 120q42 34 56 66t47.5 43t41.5 10q12 0 15 -19q23 -94 77 -198t95 -132q40 -12 40 -26z" />
    <glyph glyph-name="underscore" unicode="_" horiz-adv-x="1024" 
d="M1024 -369h-1024v97h1024v-97z" />
    <glyph glyph-name="grave" unicode="`" 
d="M583 994q0 -22 -21 -22q-14 0 -27 17q-71 89 -131 135t-94 47q-34 0 -34 27q0 6 9 10l57 27q18 8 38 8t52 -33q104 -109 148 -202q3 -7 3 -14z" />
    <glyph glyph-name="a" unicode="a" horiz-adv-x="797" 
d="M712 333q16 0 15 -12q0 -12 -8 -24q-94 -139 -125 -281q-8 -40 -26 -40t-54 25t-42 37q-4 12 1 44q42 254 105 422q-88 -141 -228 -301t-190 -195t-70 -35t-57 29q-53 32 -53 88q0 11 2 25q18 148 130 344.5t257 331.5q47 45 83 43t138 -95q9 -8 9 -17q0 -16 -21 -16
q-8 0 -15 3q-71 30 -114 -2q-94 -69 -217 -256t-150 -347q-1 -7 -1 -13q0 -25 27 -25q26 0 106 78t210 246t161 244q33 76 43 110q10 36 25 36t54 -29t41 -42t-9 -43q-92 -255 -127 -428q15 14 39.5 43t34.5 41t26 11z" />
    <glyph glyph-name="b" unicode="b" horiz-adv-x="858" 
d="M854 1532q0 -20 -24 -20q-9 0 -37 15t-51 15q-62 0 -138 -123q-270 -437 -391 -1147q104 176 155 249q104 150 216 251q54 49 86 49t80 -28q89 -42 81 -127q-17 -194 -96 -379t-186 -289q-30 -29 -62 -29q-65 0 -180 148q-13 17 -13 31t17 13.5t33 -14.5q58 -50 100 -50
t80 48q69 89 129 249t60 294q0 52 -35 52q-20 0 -45 -21q-123 -107 -253 -309t-192 -396q-11 -37 -28 -37q-8 -1 -40 21t-46 35t-13 37q0 24 5 47q117 637 300 1085q138 337 248 438q28 27 56 27t74 -37t78 -62t32 -36z" />
    <glyph glyph-name="c" unicode="c" horiz-adv-x="602" 
d="M139 177q0 -153 97 -150q85 2 249 213q16 19 29 19t13 -16q0 -8 -5 -20q-53 -130 -139 -229q-21 -25 -63 -25t-89 13q-92 6 -149 61t-53 154q5 99 77 295t154 288q38 42 64 42t102 -44q41 15 81 15q79 0 79 -56q0 -155 -43 -250q-18 -39 -65 -13t-47 46q0 9 13 19
q69 194 -14 194l-31 5q-35 0 -89 -70t-112 -223q-59 -153 -59 -268z" />
    <glyph glyph-name="d" unicode="d" horiz-adv-x="823" 
d="M1288 1532q0 -19 -24 -19q-10 0 -38 14t-51 14q-62 0 -137 -122q-275 -449 -401 -1196q26 25 61 67t47 42q27 0 5 -31q-96 -133 -127 -287q-12 -37 -30 -37q-9 -1 -41 21t-44 34q-13 12 -13 38q0 24 24 151t52 240q-98 -141 -221.5 -281.5t-173.5 -173.5t-68 -33
q-20 0 -57 29q-65 40 -65 93q0 9 2 20q21 149 133.5 345.5t257.5 330.5q47 45 85 43t138 -95q9 -8 9 -17q0 -16 -21 -16q-7 0 -15 3q-70 30 -114 -2q-94 -71 -216 -257t-145 -346q-5 -38 20 -38q33 0 81 47q111 109 241 277t158 236q29 68 41 111q104 369 218 601
q162 329 244 329q28 0 75 -37q46 -37 78 -62t32 -36z" />
    <glyph glyph-name="e" unicode="e" horiz-adv-x="600" 
d="M446 727q0 39 -14 39t-35 -16q-98 -79 -172 -277q19 -3 85 -6q132 -6 139 136q-3 -51 -3 124zM360 410q-60 0 -155 22q-17 -31 -41 -133t-23 -190q1 -52 33 -52q12 0 31 6q116 41 323 250q13 13 26 13q19 0 19 -18q0 -11 -10 -23q-243 -311 -342 -311q-47 0 -119 65
q-75 35 -75 94q0 11 2 23q18 137 73 303q-37 19 -37 35q1 16 19 15q18 0 35 -9q151 340 243 340q17 0 84 -29q-5 30 17 35h47q43 0 43 -15l-6 -43l2 -160q0 -124 -65 -171q-64 -47 -124 -47z" />
    <glyph glyph-name="f" unicode="f" horiz-adv-x="498" 
d="M57 -517q-13 1 -75 37t-52 89q84 444 295 1104q-79 -5 -97 -3t-28 24t-9 25q0 15 39 25t83 20q44 11 51 32q161 466 245 621q83 155 151 155t221 -111q15 -11 15 -24q0 -20 -25 -20q-11 0 -45 18t-72 18t-64 -16q-100 -64 -317 -668q162 -25 195 -25t33 -18t-23 -23
q-117 -22 -238 -28q-136 -405 -206 -719t-70 -435l6 -62q0 -16 -13 -16z" />
    <glyph glyph-name="g" unicode="g" horiz-adv-x="795" 
d="M-455 -653q0 29 27 29q14 0 27 -11q163 -139 292 -139q412 0 687 1210q-167 -287 -291 -411q-49 -51 -87 -51t-91 40q-95 47 -91 154q6 130 100 322t195 288q57 54 97 54t64 -18t97 -83q15 -13 15 -29t-20 -15t-44 13t-60 12q-90 0 -212 -221t-122 -366q0 -74 40 -74
q27 0 57 27q119 102 232 288q176 289 176 435q1 38 19 38t73 -42q33 -25 20 -90q-307 -1593 -798 -1592q-177 0 -383 195q-19 18 -19 37z" />
    <glyph glyph-name="h" unicode="h" horiz-adv-x="856" 
d="M853 1530q0 -18 -23 -18q-10 0 -38 14t-52 15q-61 0 -136 -122q-264 -430 -391 -1126q163 313 373 500q44 40 58 40t58 -28q53 -22 60 -28q26 -23 26 -80q0 -156 -104 -466q31 42 98 123q16 17 27 17t11 -14q0 -13 -36 -65t-131 -214q-8 -16 -39 -84q-14 -32 -38 -32
t-73 35q-20 14 -7 44q172 432 182 645q3 61 -17 61q-13 0 -55 -34q-77 -62 -207 -245t-211 -400q-22 -62 -40 -62t-68 41q-25 21 -17 70q116 635 302 1085q138 335 249 438q28 26 56 26t74 -36t78 -62t31 -38z" />
    <glyph glyph-name="i" unicode="i" horiz-adv-x="389" 
d="M293 335q15 1 7 -19t-78 -131t-97 -185q-9 -23 -33 -22.5t-58 18.5t-33 24q0 6 11 27q54 95 118 315t70 294q6 75 -4 75t-34 -22l-62 -58q-33 -30 -33 -5t109 147q16 17 32 17t46 -22q46 -12 51 -15q23 -14 23 -42q0 -99 -129 -500q29 26 80 95q7 9 14 9zM481 1091
q0 -29 -86 -90q-88 -60 -162 -6q-16 14 -13 21q4 6 13 4q92 80 118 110t40 31q14 0 74 -43q16 -12 16 -27z" />
    <glyph glyph-name="j" unicode="j" horiz-adv-x="389" 
d="M-467 -885q-175 0 -383 195q-19 18 -19 37q0 29 28 29q13 0 26 -11q163 -139 293 -139q413 0 688 1212q27 120 49 252q-31 -31 -73.5 -80t-56.5 -62.5t-25 -13.5q-20 0 -20 23q0 13 9 25q162 191 162 204q1 38 27 38t81 -42q33 -24 19 -90q-139 -641 -261 -959
q-237 -618 -544 -618zM513 1091q0 -29 -73 -79q-104 -72 -176 -17q-16 15 -12 21t14 4q46 25 119 115q21 26 35 26t76 -43q17 -12 17 -27z" />
    <glyph glyph-name="k" unicode="k" horiz-adv-x="793" 
d="M782 -250q-70 0 -200.5 187.5t-223.5 420.5q-119 -147 -165 -344q-11 -44 -26 -44q-6 0 -24 7q-83 36 -83 73q0 5 12 67q115 635 300 1085q138 336 249 438q27 27 55 27t75 -37q47 -36 79 -62t32 -38q0 -18 -23 -18q-11 0 -39 14t-52 15q-63 0 -138 -122
q-269 -439 -387 -1145q24 49 109 187q-11 35 -11 41q0 24 68 37q136 198 223 266q31 24 48 24t63 -49q72 -29 72 -72q1 -14 -11 -66t-38 -101q-26 -48 -47 -48q-13 -1 -57 15t-44 37q0 13 18 20q42 36 52 142q2 25 -10 25t-27 -11q-110 -80 -189 -232q152 -469 346 -587
q24 -14 54 -14t50 21t34 21t14 -12t-8 -24q-93 -144 -150 -144z" />
    <glyph glyph-name="l" unicode="l" horiz-adv-x="389" 
d="M853 1531q0 -19 -23 -19q-10 0 -38 14t-52 15q-63 0 -138 -122q-272 -443 -387 -1145q-3 -19 -10 -51q23 25 59 67t47 42q26 0 4 -31q-96 -137 -127 -287q-11 -37 -28 -37q-8 -1 -40 21t-46 35t-13 37q0 24 5 47q116 637 299 1085q138 338 247 438q30 28 58 27t75 -37
q46 -36 77 -62t31 -37z" />
    <glyph glyph-name="m" unicode="m" horiz-adv-x="1317" 
d="M935 -1q0 11 9 32q75 175 128.5 373.5t51.5 304.5q0 35 -25 35q-17 0 -40 -19q-85 -69 -233 -289t-216 -428q-6 -24 -12 -27t-34 7t-52 26q-23 16 -23 24q0 7 15 44q131 328 131 635q1 31 -15 31t-36 -17q-108 -90 -236 -305t-190 -399q-16 -47 -34 -47t-58 27
q-39 27 -39 37t22 34q41 87 97 315t47 338q-15 -15 -51 -49t-52 -50t-28 -16t-12 18t11 30q56 58 111 137q20 28 33 28t45 -32l50 -18q21 -9 21 -27t-2 -27q-25 -193 -77 -360q177 318 329 452q21 19 41 19t64 -27q41 -18 55 -34t14 -54q0 -204 -47 -363q195 309 355 459
q21 20 47 20t71 -40q78 -12 74 -95q-12 -241 -104 -466q51 59 71 91t36 32t16 -13q0 -12 -37 -68t-107 -190t-77 -136q-6 -4 -57 12t-51 35z" />
    <glyph glyph-name="n" unicode="n" horiz-adv-x="860" 
d="M576 -29q-20 -1 -58 15q-37 16 -37 32q0 7 13 31q65 132 118 334t45 311q-1 44 -17 44t-42 -25q-252 -246 -436 -658q-23 -51 -54 -51q-22 0 -58 17t-36 23t34 82t94 278q59 203 64 280q4 77 2 77t-55 -53t-68 -53q-15 -1 -15 9q0 12 123 157q15 17 35 17t38 -35
q81 -24 76 -74q-11 -110 -113 -397q67 129 212.5 310t187.5 181t71 -22q82 -29 82 -97t-30 -210t-54 -213q29 37 74 96q8 10 16 10q15 0 15 -19q0 -6 -2 -12q-60 -91 -156 -264q-17 -45 -33 -83t-36 -38z" />
    <glyph glyph-name="o" unicode="o" horiz-adv-x="713" 
d="M576 689q0 42 -26 42q-10 0 -26 -4l-155 -63q-27 -11 -33 -11t-14 19q-58 -71 -116 -225t-57 -270q0 -154 95 -150q38 1 82 30q84 57 156 223t87 324q7 67 7 85zM570 806q37 0 85 -73q31 -45 29 -117t-43 -219q-65 -232 -184 -360q-63 -68 -140 -68q-30 0 -77 13
q-94 6 -156 62t-57 154t77 296t154 290q38 44 68 44t106 -70q101 48 138 48z" />
    <glyph glyph-name="p" unicode="p" horiz-adv-x="844" 
d="M620 827q18 0 62 -30q136 -48 127 -181q-13 -168 -87 -356q-115 -291 -225 -291q-46 0 -153 74q-21 14 -21 31t27 17l66 -14q72 1 126 87t102 238t42 272q-3 58 -37 58t-80 -44q-324 -310 -456 -741q-75 -245 -100 -454q-1 -7 -27 -347q-4 -49 -24 -49q-20 1 -68 43
q-46 42 -37 94q44 498 220 1042t267 687q54 83 96 81t160 -75q16 -10 16 -23t-24 -13l-41 5q-63 0 -131 -107q-40 -61 -101 -205t-88 -237q147 240 342 412q29 26 47 26z" />
    <glyph glyph-name="q" unicode="q" horiz-adv-x="733" 
d="M738 720q0 -20 -57 -151t-132 -409t-100 -412q52 100 92 154q11 15 29 15q24 0 24 -22q0 -9 -6 -20q-178 -309 -201 -698q-5 -92 -23 -92t-92 73q-27 27 -27 52q0 24 26 198t99 472t105 390q-98 -170 -237 -282q-19 -15 -47 -15t-62 29q-67 22 -96 50t-27 85
q6 149 93 333t184 278q63 61 116 61t168 -104q15 -13 15 -25t-16 -11t-54 15t-64 14q-55 0 -123 -84t-137 -230t-69 -267q0 -70 47 -70q29 0 63 33q105 100 198 253q155 255 191 406q2 21 5 43q7 55 98 -26q17 -16 17 -36z" />
    <glyph glyph-name="r" unicode="r" horiz-adv-x="643" 
d="M674 752q0 -131 -35 -250q-11 -36 -27 -36t-65 40q-24 20 -12 57q28 91 28 128t-10 37t-37 -36q-208 -271 -311 -608q-33 -107 -56 -107q-9 0 -79 35q-34 17 -23 66q79 346 170 584q-74 -78 -88 -98q-13 -20 -29 -21q-16 0 -16 12t8 23q49 59 131 180q25 44 47 44t76 -28
q32 -16 10 -44t-82 -202t-81 -270q136 303 309 535q33 44 52 44t50 -24q42 -5 56 -15t14 -46z" />
    <glyph glyph-name="s" unicode="s" horiz-adv-x="500" 
d="M240 220q0 49 -62 206t-59 209q8 125 231 174q22 5 22 -16q0 -12 -16 -19q-108 -47 -108 -116q0 -46 54 -210q54 -163 54 -221q3 -120 -133 -164q-17 -42 -36 -62q-33 -35 -109 -24q-76 12 -162 25q-24 4 -29 29q3 27 65 32t201 25q52 12 74 59q13 24 13 73zM485 844
q31 0 31 -44t-16 -110t-25 -74q-8 -8 -41 -20t-42 -12q-15 0 -15 16t14 74t8.5 96.5t22.5 48.5q49 25 63 25z" />
    <glyph glyph-name="t" unicode="t" horiz-adv-x="479" 
d="M579 768q1 -22 -23 -26t-224 -19q-120 -351 -146 -594q-1 -13 -1 -35t17 -22q27 0 163 131q16 16 30 16q14 1 17 -11t-9 -28q-81 -107 -159 -182q-33 -31 -55 -31t-68 35q-57 15 -57 60q0 7 2 16q37 258 145 635q-53 7 -96 14q-19 3 -19 25t55 35.5t103 43.5
q107 331 168 429q35 56 74 56t112 -40q28 -15 28 -34q0 -13 -19 -13l-25 3q-38 0 -89 -78t-136 -327q-7 -21 -5 -27q8 -18 183 -3q34 3 34 -29z" />
    <glyph glyph-name="u" unicode="u" horiz-adv-x="813" 
d="M692 284q13 0 13 -19q1 -7 -33 -83t-50 -140t-36 -64.5t-78 38.5q-31 22 -21 78q42 218 101 379q-193 -314 -324 -463q-29 -33 -60 -33t-69 23q-69 12 -69 72q0 11 2 24q25 286 104 475q-63 -59 -71 -53t3 23q54 79 74 131t47 84q25 32 49 32t57 -20t33 -30l-22 -33
q-50 -76 -108 -276t-60 -331q0 -43 17 -43q17 -1 73 59t194 274t174 296t59 97t37 15t54 -21t40 -31q0 -3 -7 -8t-10 -11q-133 -247 -199 -580q28 49 68 125q5 14 18 14z" />
    <glyph glyph-name="v" unicode="v" horiz-adv-x="711" 
d="M191 -18q-80 0 -80 306q0 227 39 339q-22 -20 -84 -88q-12 -12 -28 -12t-16 17q0 10 34 56t132 180q26 36 54 36t90 -48q13 -11 13 -24q0 -25 -36 -37q-88 -188 -88 -423q0 -121 29 -202q11 -32 30 -32t44 34q77 107 148 254t93 231q-13 23 -13 76t44 166q19 47 49 47
q17 0 70 -31q26 -15 26 -37t-14 -67q-25 -57 -57 -135q7 -20 45 -68q7 -10 -3 -20t-30 -10t-39 22q-66 -149 -152 -308q-85 -159 -121 -195t-68 -36t-56 25q-38 -16 -55 -16z" />
    <glyph glyph-name="w" unicode="w" horiz-adv-x="1055" 
d="M682 -23q-16 0 -66 16t-61 27.5t-39 123.5t-29 227q-49 -70 -161 -204t-130 -161t-43 -27q-25 1 -63 29t-37 40q0 12 41 44q34 98 58 252t25 236q0 82 -7 112q-21 -21 -88 -108q-11 -15 -26 -15q-22 0 -22 21q0 10 19 34t57 86t66 73q6 3 50 13t58 11q14 -1 18 -17t3 -71
q0 -314 -69 -547q183 180 249 350q9 95 19 150t36 101t54 46q26 0 65 -27q39 -28 39 -40t-23 -76t-67 -125q-9 -66 -9 -175t40 -267q11 -44 29 -44t45 52q149 288 184 434q-13 17 -27 36.5t-14 40.5t10 48q10 46 23 98t50 52q30 0 81 -29q30 -19 30 -55t-20 -84t-37 -89
q9 -11 39 -39t29 -42q0 -30 -27 -30l-67 38q-126 -347 -215 -471q-34 -48 -70 -48z" />
    <glyph glyph-name="x" unicode="x" horiz-adv-x="672" 
d="M52 672q-12 0 -13 12q0 12 18 27q143 104 171 104t42 -41t88 -305q151 155 221 241q101 124 66 208q-11 25 8 25q7 0 15 -9q71 -88 71 -134q1 -46 -37 -90q-38 -46 -174 -172t-153 -151q25 -104 78 -268q19 -43 43 -43q15 0 39 18t35 18q19 0 19 -18q0 -9 -7 -18
q-88 -100 -141 -107t-81 66q-42 111 -81 268q-377 -397 -388 -590q-2 -55 19 -89t-6 -33q-11 1 -39 33q-27 32 -43 63t-15 88q2 82 135 253t316 343q-83 330 -118.5 329.5t-55.5 -14.5t-32 -14z" />
    <glyph glyph-name="y" unicode="y" horiz-adv-x="834" 
d="M-27 -885q-179 0 -385 195q-18 17 -18 36q0 30 28 30q14 0 27 -11q163 -139 291 -139q235 0 427 392q151 307 263 824q7 37 23 113q-105 -171 -233 -334q-200 -256 -263 -256q-19 0 -39 21q-21 27 -37 46q-16 18 -16 24v7q2 12 18 17q48 65 85 258q37 194 44 288t0 94
t-64 -48t-63 -47q-14 0 -14 14q-1 7 11 21t68 94t72 79q16 0 40 -12q51 8 57 8q34 0 34 -52q0 -87 -50 -340.5t-82 -327.5q100 79 258 307t196 342q2 67 29 67q21 0 78 -43q32 -24 18 -90q-139 -641 -261 -959q-236 -618 -542 -618z" />
    <glyph glyph-name="z" unicode="z" horiz-adv-x="655" 
d="M299 690q-79 0 -115 -24t-71 -91q-13 -24 -27 -24t-14 17q0 10 20 70t48 108q26 48 44 61q18 12 91 12t294 -53q43 36 55 36t29 -8t17 -32t-20 -72t-42 -48t-63 11q-82 -77 -170 -200l147 6q26 0 26 -13t-22 -18q-96 -24 -231 -68q-118 -150 -152 -223q37 0 158 -15.5
t173 -15.5t89 56q10 15 21 15q20 1 8 -29t-60 -119q-33 -62 -102 -62q-45 0 -159.5 34t-155.5 34t-60 -2q-27 -60 -61 -64q-22 1 -40 33t-19 56q0 24 20 46q37 41 94 41q88 99 127 160l-19 95q0 12 5 20q19 31 127 31q90 116 176 217q-87 22 -166 22z" />
    <glyph glyph-name="braceleft" unicode="{" horiz-adv-x="819" 
d="M930 1436q24 0 24 -28t-30 -30q-102 -2 -138 -23.5t-67 -99.5q-48 -148 -141 -415q-29 -78 -91 -130t-116 -61q86 -60 86 -134q0 -33 -34 -141t-74 -234t-40 -160q0 -86 127 -86q30 0 30 -29t-26 -29q-139 4 -201 34t-62 108q0 39 16 90q40 101 155 424q6 17 6 33
q0 71 -110 128q-12 7 -12 23q0 34 26 33q61 -4 123 28t82 94q60 212 125 443q43 143 149 162h193z" />
    <glyph glyph-name="bar" unicode="|" horiz-adv-x="819" 
d="M635 -132q0 -39 -60 -36l-73 4q-61 4 -60 94l15 1231q0 65 -12 158t-39 115q-26 16 -26 34t28 27l108 18q54 0 64 -86l-15 -1216q-3 -271 49 -307q21 -15 21 -36z" />
    <glyph glyph-name="braceright" unicode="}" horiz-adv-x="819" 
d="M605 753q0 -71 110 -128q12 -7 12 -23q0 -34 -27 -33q-61 4 -123 -28t-81 -95q-60 -211 -125 -442q-44 -143 -150 -162h-192q-24 0 -24 28t30 30q102 2 137.5 23.5t67.5 99.5q48 148 141 415q29 78 91 130t116 61q-87 60 -87 134q0 33 34 141t98 306q16 55 16 88
q0 86 -127 86q-29 0 -29 29t25 29q139 -4 201 -34t62 -108q0 -39 -15 -90q-41 -101 -156 -424q-5 -17 -5 -33z" />
    <glyph glyph-name="asciitilde" unicode="~" horiz-adv-x="922" 
d="M224 634q-18 0 -42 28t-23 38q0 23 100 119t118 92q57 -11 170 -141q46 -43 72 -53t47 -17q44 -6 151 121q3 28 22 28t41 -27q22 -26 23 -36q-1 -24 -101 -120t-116 -91q-66 13 -172 136q-65 61 -121 69q-33 9 -151 -116q0 -30 -18 -30z" />
    <glyph glyph-name="nonbreakingspace" unicode="&#xa0;" horiz-adv-x="369" 
 />
    <glyph glyph-name="exclamdown" unicode="&#xa1;" horiz-adv-x="492" 
d="M127 -22q-3 0 -31 8q-101 27 -101 54q0 18 34 21q193 333 338 854q13 49 -2 74q-3 5 -3 9q0 11 17 11q17 -1 55 -29t38 -47t-5 -42q-55 -239 -154 -517t-131 -336q-32 -60 -55 -60zM522 1153q-7 0 -16 4q-86 34 -86 55q0 7 10 29t33 125q4 20 35 6q74 -33 74 -79
q0 -16 -22 -107q-8 -33 -28 -33z" />
    <glyph glyph-name="cent" unicode="&#xa2;" horiz-adv-x="672" 
d="M195 261q0 -68 36 -109l256 692q-65 3 -120.5 -70t-113.5 -227q-58 -153 -58 -286zM639 836q0 -153 -43 -248q-18 -41 -55 -21q-56 30 -56 51q0 10 13 21q31 60 35 120t-7 70l-260 -700q19 -4 23 -4q55 4 132 76t118 137q13 21 27 21t14 -17q0 -9 -5 -20
q-50 -122 -139 -230q-26 -32 -76 -24q-32 0 -75 12q-30 0 -33 6l-14 -41q-17 -46 4 -63q8 -6 4 -16t-15 -7l-45 23q-17 8 7 67l18 47q-134 51 -129 193q4 105 77 302t154 288q39 42 66 42t102 -44q4 2 21 6l24 69q16 45 -12 64q-8 5 -4 15t26 4t38 -16q17 -10 -5 -71
l-20 -57q90 9 90 -55z" />
    <glyph glyph-name="sterling" unicode="&#xa3;" horiz-adv-x="1044" 
d="M966 1315q54 -1 55 -53q0 -182 -40 -310q-15 -48 -60 -48q-10 0 -46 7t-36 17t13 33q38 63 38 206q0 27 -3 47q-8 61 -61 61q-30 0 -66 -28q-89 -67 -186 -266q-61 -124 -171 -410q113 9 379 21q57 1 76 -37q4 -5 11 -39t7 -45t-15 -20q-20 -8 -40 -17q-55 -25 -76.5 3
t-97.5 28q-268 0 -289 -2q-46 -120 -94 -264q-21 -65 -47 -70q263 0 561 -31q45 -4 52 2t24 41q16 35 30 35t25 -22q42 -82 42 -114q-1 -32 -41 -69t-60 -37t-57 11q-232 65 -468 65t-257 -17q-10 -16 -19 -32q-27 -44 -57 -44t-37 22q-29 87 -29 107q0 62 141 78q34 3 78 5
q21 78 66 229q-48 130 -48 148q1 18 21 26t92 19q256 812 463 819q40 1 166 -57q33 2 61 2z" />
    <glyph glyph-name="currency" unicode="&#xa4;" horiz-adv-x="936" 
d="M116 515q0 39 103 93v21q5 66 59 190t123 215q-17 28 -47 74t-29 59q0 44 83 74q-2 -4 -2 -10q0 -51 59 -125q16 16 41 16q53 0 92 -45q117 44 206 44q45 0 95 -54q104 64 119 96q34 -32 34 -74t-30 -54t-92 -38v-12q0 -49 -41 -177t-131 -233q71 -40 78 -67q1 -5 1 -10
q0 -41 -61 -68q-10 32 -74 90q-71 -71 -167 -71q-33 0 -86 10q-135 16 -189 69q-75 -70 -84 -102q-60 50 -60 89zM817 982q0 65 -85 65q-34 -1 -106 -15t-100 -14q-117 -110 -170 -311q-11 -43 -11 -93t31 -85t81 -33q150 6 265 207q74 131 93 260q2 10 2 19z" />
    <glyph glyph-name="yen" unicode="&#xa5;" horiz-adv-x="1155" 
d="M344 -52q0 69 174 367q-284 1 -311 -7t-39 -25t-23 -17q-18 0 2 56t35 74t51 16q103 -11 304 -11q-8 41 -25 123q-157 2 -269 -11q-21 -4 -31 -22t-19 -18q-19 0 1 56t35 74.5t52 14.5q105 -9 206 -12q-107 356 -264 557q-35 46 -75 46t-136 -91q-16 -15 -34 -15t-19 19
q0 19 14 37q187 229 259 229q34 0 61 -38q95 -134 201 -398t151 -417q356 559 391 655q-49 -22 -86 -78q-9 -15 -18 -15q-18 0 -51 74q-6 12 -6 31q0 36 194 176q21 16 49 16t88 -65q19 -20 19 -36t-21 -46q-278 -410 -416 -639q188 0 208 23t34 23t14 -15t-20 -57t-38 -56
t-69 -12t-180 8q-22 -37 -65 -123q110 1 188 5t95 24t29 19q12 0 12 -15q0 -16 -20 -58t-36 -55q-17 -13 -111 -10l-204 6q-142 -285 -142 -383t27 -145q7 -12 7 -23q0 -27 -25 -27q-15 0 -29 15q-119 127 -119 196z" />
    <glyph glyph-name="brokenbar" unicode="&#xa6;" horiz-adv-x="819" 
d="M358 742q0 12 15 22q29 18 43 338q9 213 -39 244q-23 14 -23 32t31 23l111 18q21 0 37 -31.5t16 -64.5q0 -229 -33 -506q-9 -78 -67 -78l-70 -6q-21 -3 -21 9zM529 592q0 -12 -17 -22q-16 -10 -38 -286t32 -313q18 -12 18 -30q0 -41 -65 -35l-74 6q-52 4 -49 92
q11 354 33 514q10 73 69 78l70 6q21 2 21 -10z" />
    <glyph glyph-name="section" unicode="&#xa7;" horiz-adv-x="774" 
d="M642 547q0 92 -128 324.5t-128 318.5t105 152q72 45 166 65q31 7 31 -18q0 -11 -16 -19q-151 -73 -151 -165q0 -40 22 -93.5t109 -225.5q86 -172 98 -228t12 -89q0 -85 -54 -131t-173 -84q-7 -2 -12 -2q-18 0 -18 20t34 38q82 40 96 96q7 18 7 41zM572 76
q0 -95 -123 -137q-17 -68 -24 -79q-21 -38 -67 -42t-114 6t-172 24q-32 4 -41 39q0 26 65 21q138 -11 234 11t116 99q7 19 7 42q0 90 -127.5 321t-127.5 307q0 150 255 209q28 7 28 -16q0 -12 -18 -21q-133 -63 -133 -141q0 -42 26 -105q64 -132 140 -288t76 -250zM807 1447
q66 0 45 -245q-4 -44 -13 -54t-45 -24t-43 -14q-18 0 -12 98q5 98 -7 138t-11 50q3 15 27 23q46 28 59 28z" />
    <glyph glyph-name="dieresis" unicode="&#xa8;" 
d="M398 942q-14 0 -30 18t-17 30t5 9q31 82 45 199q2 19 15 41q5 1 47 -45q32 -35 -10 -144q-41 -108 -55 -108zM608 943q-3 0 -6 1q-35 21 -37 39t4 18q34 89 41 153t19 85q5 1 47 -45q12 -14 15 -42t-33 -118t-50 -91z" />
    <glyph glyph-name="copyright" unicode="&#xa9;" horiz-adv-x="1339" 
d="M590 532q0 -137 88 -135q75 3 223 193q15 17 27 17t12 -15q0 -8 -4 -19q-42 -105 -127 -204q-19 -23 -57 -23t-78 10q-190 28 -182 189q4 90 76 263t147 257q34 39 58 39t91 -41q37 13 74 13q70 0 70 -50q0 -141 -37 -223q-18 -39 -51 -17q-51 28 -51 45q0 9 12 17
q32 82 29 129t-42 47l-28 4q-30 0 -80 -65t-100 -171t-60 -162t-10 -98zM261 438q-1 -130 61 -194t266 -64q85 0 143 19q304 95 469 434q52 105 52 270q0 249 -222 349q-74 34 -149 30q-294 -10 -521 -500q-99 -215 -99 -344zM595 72q-112 0 -153 45q-100 5 -184 57
t-104 131q-9 36 -9 95q0 446 343 794q217 220 353.5 183.5t129.5 -54.5q206 -44 280 -88q125 -71 127 -219q5 -244 -119 -452q-172 -288 -414 -414q-72 -38 -83 -44q-55 -34 -167 -34z" />
    <glyph glyph-name="ordfeminine" unicode="&#xaa;" horiz-adv-x="797" 
d="M845 1095q22 0 5 -26q-68 -101 -88 -195q-8 -29 -30 -29t-59 27q-21 16 -16 48q30 176 70 278q-61 -98 -178 -226t-162 -128q-12 0 -37 20q-25 14 -51 28q-30 21 -27 50q13 104 91.5 241.5t179.5 231.5q36 34 100 31q24 -1 96 -66q7 -6 7 -12q0 -20 -38 -5t-67 -7
q-65 -49 -149 -173t-103 -235q-5 -27 14 -27q26 0 58 31q77 76 164 188t105 154t31 78q12 36 23 37q4 1 33 -19t44.5 -30t15.5 -18t-21 -63q-21 -54 -80 -251q18 22 38 44t31 23z" />
    <glyph glyph-name="guillemotleft" unicode="&#xab;" horiz-adv-x="891" 
d="M81 502q1 27 107 100t162 133q-5 41 8 55t56 40q42 26 54 27q12 0 31.5 -30t19.5 -51t-58 -65q-63 -41 -189 -146q-48 -50 -48 -58t1 -11q146 -313 146 -381q-1 -37 -53 -68t-66 -31t-14 15l12 75q0 141 -166 386q-3 4 -3 10zM429 498q1 27 107 100t162 133q-2 19 -2 26
q0 31 74 77q34 21 46 21t31.5 -30.5t19.5 -52.5t-58 -65q-62 -41 -188 -146q-49 -50 -49 -58t1 -11q146 -310 146 -380q-1 -36 -53 -67t-66 -31t-14 14l12 75q0 144 -166 384q-3 5 -3 11z" />
    <glyph glyph-name="logicalnot" unicode="&#xac;" horiz-adv-x="1096" 
d="M162 666q0 13 6 39t11 33q18 25 75 28q319 16 590 -18q91 -12 91 -79q0 -43 -26 -114q-2 -39 -40 -141q-39 -102 -57 -167t-28 -91t-24 -34q-14 -6 -30 13t-15 61t23 154t48 297q-174 18 -304 16q-130 -3 -152 -7t-35 -21q-23 -30 -78 -6t-55 37z" />
    <glyph glyph-name="sfthyphen" unicode="&#xad;" horiz-adv-x="868" 
d="M768 537q0 -15 -14 -52.5t-26 -48.5t-52 -8q-220 14 -366 14t-154 -15t-26 -11t-14 18t15 72q8 44 96 35q160 -16 400 -19q92 -1 101 16q8 18 24 16t16 -17z" />
    <glyph glyph-name="registered" unicode="&#xae;" horiz-adv-x="1339" 
d="M1031 482q0 -6 -5 -15q-49 -85 -86 -88q-78 -7 -242 311q-47 -164 -123 -311q-9 -19 -27 -23t-44 14q-25 18 -25 32t11 38t28 76q0 36 8 37q7 3 31 -33q76 154 166 477q-70 -23 -88 -32q-35 -19 -8 -99q1 -3 1 -6q0 -10 -17.5 -11.5t-47.5 73.5q-10 26 -10 48
q0 52 180 97q1 3 7 33t16 30q12 -5 32 -45q112 28 157 27t71 -68q59 -40 59 -97t-74.5 -148.5t-124.5 -91.5t-118 34q159 -272 198 -274q22 -1 48 19t27 -4zM993 976q0 62 -86 62q-54 0 -114 -22q-22 -112 -64 -225q33 -16 69 -16q77 0 136 75.5t59 125.5zM261 438
q-1 -130 61 -194t266 -64q85 0 143 19q304 95 469 434q52 105 52 270q0 249 -222 349q-74 34 -149 30q-294 -10 -521 -500q-99 -215 -99 -344zM595 72q-112 0 -153 45q-100 5 -184 57t-104 131q-9 36 -9 95q0 446 343 794q217 220 353.5 183.5t129.5 -54.5q206 -44 280 -88
q125 -71 127 -219q5 -244 -119 -452q-172 -288 -414 -414q-72 -38 -83 -44q-55 -34 -167 -34z" />
    <glyph glyph-name="overscore" unicode="&#xaf;" horiz-adv-x="1024" 
d="M1248 1490h-1024v97h1024v-97z" />
    <glyph glyph-name="degree" unicode="&#xb0;" horiz-adv-x="471" 
d="M531 1064q-1 -32 -19 -88t-31 -82q-13 -28 -43 -60q-44 -33 -106 -27q-15 -2 -31 4q-131 18 -133 107q-1 46 25 116q27 70 57 100q30 32 46 32t52 -25q34 -25 34 -30t-9 -10t-20 -1t-39 -27t-44 -129q-3 -19 -3 -35q0 -68 46 -67q93 1 127 211q8 48 -16 61t-24 22t16 9
q116 0 115 -81z" />
    <glyph glyph-name="plusminus" unicode="&#xb1;" horiz-adv-x="868" 
d="M705 103q0 -13 -12.5 -46t-23.5 -43t-46 -8q-205 12 -333 12t-136 -13t-24 -10t-12 16t13 65q6 39 88 30q138 -13 359 -16q84 -1 92 14t21 14q14 -2 14 -15zM797 537q0 -15 -14.5 -53t-26.5 -48t-89 -6q-77 6 -159 8q-43 -199 -45 -220q-3 -22 7 -30t6 -22t-11 -15
q-8 1 -16 5t-60 26q-28 12 -28 36t19 82t40 140q-41 2 -134 2q-94 0 -102 -15t-26 -11t-13 18q4 14 15 72q7 44 96 35t186 -13q61 227 37 246q-13 11 -9 26.5t14 13.5t54 -28t44 -44t-13 -65q-13 -46 -39 -153q25 0 121 -2t105 16t25 16t16 -17z" />
    <glyph glyph-name="twosuperior" unicode="&#xb2;" horiz-adv-x="702" 
d="M768 778q0 -58 -25 -63q-10 0 -18 16q1 9 -39 31q-162 50 -301 50q-21 0 -41 -1q-11 -14 -35 -39q-7 -5 -35 -2q-26 10 -24 33q4 47 14 74q17 57 82 57q13 0 29 -2q156 126 213 198t57 140q-1 30 -63 24t-146 -71q-20 -17 -20 -19t2 -22q4 -20 0 -22q-12 -11 -62 50
q-18 28 -18 44t18 28q176 127 279 127q23 -2 49 -45q52 11 45 11q31 -1 31 -67t-14 -102q-28 -72 -151 -160t-167 -122q148 -11 299 -72q41 -16 41 -74z" />
    <glyph glyph-name="threesuperior" unicode="&#xb3;" horiz-adv-x="711" 
d="M723 856q0 -44 -29 -76q-76 -84 -202 -142t-218 -58q-38 0 -73 28q-8 6 -36 36t-28 37q0 15 16 15q7 0 24 -10t53 -11q36 0 128 36q237 93 293 182q21 32 -17 55t-173 15q-62 -4 -67 22t-5 90q0 17 31 31q157 73 205 145q11 18 11 31q0 22 -36 22t-106 -36t-82 -76
q-3 -14 -12 -17t-15 7q-31 47 -31 78t27 51q87 64 176 92q23 7 40 7t27 -14t19 -30q54 -36 54 -113q0 -43 -29 -69q-59 -52 -195 -140q93 -10 141 -18t78 -30t31 -34q0 -12 -14 -38q14 -24 14 -68z" />
    <glyph glyph-name="acute" unicode="&#xb4;" 
d="M766 1198q0 -27 -34 -27q-34 1 -94 -47t-130 -135q-12 -17 -30 -17t-18 22q0 7 3 14q43 93 147 202q32 33 52 33t38 -8l58 -27q8 -4 8 -10z" />
    <glyph glyph-name="mu1" unicode="&#xb5;" horiz-adv-x="813" 
d="M104 -119q0 -206 78 -266q32 -25 33 -35t-11 -9t-48 13t-66 32q-80 54 -79 204q0 268 161 751q-63 -59 -71 -53t3 23q54 79 74 131t47 84q25 32 49 32t57 -20t33 -30l-22 -33q-50 -76 -108 -276t-60 -331q0 -43 17 -43q17 -1 73 59t194 274t174 296t59 97t37 15t54 -21
t40 -31q0 -3 -7 -8t-10 -11q-133 -247 -199 -580q28 49 68 125q5 14 18 14t13 -19q1 -7 -33 -83t-50 -140t-36 -64.5t-78 38.5q-31 22 -21 78q42 218 101 379q-193 -314 -324 -463q-27 -31 -68 -31t-81 35q-11 -66 -11 -133z" />
    <glyph glyph-name="mu1" unicode="&#x3bc;" horiz-adv-x="813" 
d="M104 -119q0 -206 78 -266q32 -25 33 -35t-11 -9t-48 13t-66 32q-80 54 -79 204q0 268 161 751q-63 -59 -71 -53t3 23q54 79 74 131t47 84q25 32 49 32t57 -20t33 -30l-22 -33q-50 -76 -108 -276t-60 -331q0 -43 17 -43q17 -1 73 59t194 274t174 296t59 97t37 15t54 -21
t40 -31q0 -3 -7 -8t-10 -11q-133 -247 -199 -580q28 49 68 125q5 14 18 14t13 -19q1 -7 -33 -83t-50 -140t-36 -64.5t-78 38.5q-31 22 -21 78q42 218 101 379q-193 -314 -324 -463q-27 -31 -68 -31t-81 35q-11 -66 -11 -133z" />
    <glyph glyph-name="paragraph" unicode="&#xb6;" horiz-adv-x="1040" 
d="M223 -360q-85 0 -169 40t-132 93q-19 21 -19 36q1 15 13 15t48 -26t70 -47t69 -26t40 -4q87 -12 215 279q68 156 242 651q-20 -1 -94 -47t-98 -46t-35 9q-111 59 -111 134q0 11 2 24q60 321 263 494q162 139 309 124q107 -10 153 -59q12 28 18 68q5 40 23 39q18 0 68 -41
q30 -25 8 -90l-282 -890q-129 -393 -243 -545q-139 -185 -358 -185zM224 -282q149 12 250 153t221 490q137 426 274 851q-36 52 -95 74q-66 -229 -233 -751q-270 -784 -417 -817z" />
    <glyph glyph-name="middot" unicode="&#xb7;" horiz-adv-x="344" 
d="M313 748q0 -22 -36 -107t-74 -85q14 0 -72 9q-11 1 -15 13t9 14q52 118 63 162q12 44 30 44t69 -18q26 -10 26 -32z" />
    <glyph glyph-name="cedilla" unicode="&#xb8;" 
d="M362 -246q0 -30 -30 -55q-64 -52 -195 -84q-8 -2 -16 -2q-36 0 -58 74q-3 12 -3 20q0 16 13 16t29 -14q4 -1 9 -1q79 0 159 61q30 23 30 37t-46 16t-121 -17q-27 -4 -45 45q-8 22 14 56t74 106l45 -14q-18 -42 -43 -107q37 8 87 2q51 -6 59 -19t8 -50q30 -40 30 -70z" />
    <glyph glyph-name="onesuperior" unicode="&#xb9;" horiz-adv-x="516" 
d="M655 1357q0 -16 -30 -18q-56 -73 -102 -203t-60 -264q-5 -42 6 -57q17 -34 -15 -34q-10 0 -96 35q-25 14 -25 36t5 43q41 199 104 326q-59 -66 -141 -150q-6 -5 -13 -5q-25 0 -25 25q0 12 11 21q118 92 199 240q14 25 35 16q14 32 56 32t66 -17q25 -17 25 -26z" />
    <glyph glyph-name="ordmasculine" unicode="&#xba;" horiz-adv-x="797" 
d="M738 1375q-8 0 -19 -3l-109 -43q-20 -8 -24 -8t-8 14q-80 -97 -111 -268q-7 -38 -7 -69q0 -111 66 -107q26 1 58 22q58 39 106 151t58 212q12 100 -10 99zM758 1430q50 0 84 -52q20 -31 20 -79q0 -47 -38 -183t-122 -225q-43 -47 -129 -47q-20 0 -53 8q-154 24 -168 152
q-8 73 40.5 207t109.5 202q27 31 63 31t88 -49q80 35 105 35z" />
    <glyph glyph-name="guillemotright" unicode="&#xbb;" horiz-adv-x="891" 
d="M464 370q0 -26 -111 -103.5t-158 -131.5q3 -41 -9 -55t-56 -41t-54 -27t-30.5 31t-20.5 45q0 30 57 72q62 40 188 145q51 51 51 59t-43 94q-42 86 -74 178q-32 94 -32 126t52 62t67 30q14 0 14 -15l-12 -74q0 -134 168 -386q3 -4 3 -9zM812 366q0 -28 -112.5 -104.5
t-156.5 -130.5q3 -41 -9 -55t-55 -40t-54 -27q-11 0 -31.5 31.5t-20.5 45.5q0 29 57 72q63 40 188 143q51 51 51 59t-1 11q-82 163 -114 259t-33 128t51 62t69 30q12 0 12 -15l-12 -74q0 -138 168 -386q3 -4 3 -9z" />
    <glyph glyph-name="onequarter" unicode="&#xbc;" horiz-adv-x="1421" 
d="M1232 542q24 0 24 -6t-9 -17q-55 -51 -103 -279q56 0 69 30q5 9 15 9t15 -36l4 -27q8 -45 8 -50q0 -26 -36 -32t-91 -6q-25 -112 -25 -140q-1 -28 5 -36t6 -11q0 -19 -18 -19t-73 30q-10 13 -10 20q28 124 35 154q-87 -2 -146 -2t-116 4q-9 -20 -29 -20q-37 0 -37 82
q0 33 27 40q145 137 221 293q-38 63 -38 70q0 6 26 6q8 0 48 62q40 63 47 75t26 12t46 -14t27 -37q0 -22 -46 -103t-108 -162q-62 -80 -112 -126t-51 -56q0 -4 11 -7l167 -12q19 0 59 3q26 93 64 194t64 111q10 3 34 3zM1046 1420q9 0 20 -7l62 -41q28 -18 28 -48t-20 -58
l-709 -1014q-84 -120 -127 -225q-8 -21 -8 -44l8 -42q0 -21 -17 -21q-9 0 -21 8l-62 43q-26 17 -26 47t24 64l723 1026q116 165 116 247l-9 46q0 19 18 19zM277 1066q-20 0 -20 24q-1 10 5 16t34 29q96 79 171 217q11 18 19 18t16 -2q16 32 57 32t80 -27q10 -8 10 -17
q0 -15 -30 -17q-59 -79 -111 -229t-52 -263q0 -21 6 -31t7 -22t-15 -13q-16 1 -62 19t-56 28t-9 38t33 145t76 210q-139 -155 -159 -155z" />
    <glyph glyph-name="onehalf" unicode="&#xbd;" horiz-adv-x="1421" 
d="M1191 639l30 12l15 -1q31 -2 31 -72t-32 -129q-32 -58 -160 -148q-127 -91 -140 -102q125 -11 215 -40t108 -49t17 -68q0 -48 -25 -52q-10 -1 -18 16q0 10 -39 31q-166 50 -297 50q-29 0 -45 -1q-7 -9 -35 -39q-5 -3 -17 -3q-42 0 -42 33t14 75q19 57 82 57q10 0 29 -2
q138 112 204 187t66 148q0 29 -42 29q-84 0 -176 -80q-11 -9 -12 -13l5 -25q1 -6 1 -13t-8 -7t-42 34q-33 34 -33 55t18 35q90 71 204 114q37 14 67 14t57 -46zM1006 1420q9 0 20 -7l62 -41q28 -18 28 -48t-20 -58l-709 -1014q-84 -120 -127 -225q-8 -21 -8 -44l8 -42
q0 -21 -17 -21q-9 0 -21 8l-62 43q-26 17 -26 47t24 64l723 1026q116 165 116 247l-9 46q0 19 18 19zM237 1066q-20 0 -20 24q-1 10 5 16t34 29q96 79 171 217q11 18 19 18t16 -2q16 32 57 32t80 -27q10 -8 10 -17q0 -15 -30 -17q-59 -79 -111 -229t-52 -263q0 -21 6 -31
t7 -22t-15 -13q-16 1 -62 19t-56 28t-9 38t33 145t76 210q-139 -155 -159 -155z" />
    <glyph glyph-name="threequarters" unicode="&#xbe;" horiz-adv-x="1421" 
d="M1109 323l-110 -2q-41 1 -49 19t-7 58q0 40 6 48.5t26 17.5q136 63 189 125q27 29 27 51q1 22 -35 22t-85 -24q-93 -46 -105 -91q-4 -15 -12 -15t-14 8q-31 45 -31 79q-1 49 101 99t132 50t47 -29q5 -9 9 -15q54 -38 54 -109q0 -39 -24 -69t-200 -144q128 -12 168 -24
t61 -31t21 -29t-14 -36q14 -24 14 -67t-29 -77q-69 -80 -198 -140t-219 -60q-44 0 -92 41t-48 58t15 17q8 0 24 -10q15 -10 47 -11q32 0 126 32q94 31 203 99q108 68 108 112q1 15 -27 31t-79 16zM1016 1420q9 0 20 -7l62 -41q28 -18 28 -48t-20 -58l-709 -1014
q-84 -120 -127 -225q-8 -21 -8 -44l8 -42q0 -21 -17 -21q-9 0 -21 8l-62 43q-26 17 -26 47t24 64l723 1026q116 165 116 247l-9 46q0 19 18 19zM247 1066q-20 0 -20 24q-1 10 5 16t34 29q96 79 171 217q11 18 19 18t16 -2q16 32 57 32t80 -27q10 -8 10 -17q0 -15 -30 -17
q-59 -79 -111 -229t-52 -263q0 -21 6 -31t7 -22t-15 -13q-16 1 -62 19t-56 28t-9 38t33 145t76 210q-139 -155 -159 -155z" />
    <glyph glyph-name="questiondown" unicode="&#xbf;" horiz-adv-x="956" 
d="M740 489q24 0 46 -28q66 -83 66 -109t-35 -61q-236 -237 -436 -309q-49 -18 -83 -18q-55 0 -120 87q-54 9 -100 35t-47 61q0 97 149 315t303 378q-128 -35 -111 -35q-27 0 -27 27q0 18 26 28q174 67 227 115q22 20 38 20q31 0 62 -94q2 -6 2 -16t-57 -58
q-150 -125 -300 -327t-160 -312t94 -110q29 0 59 12q215 91 379 279q13 15 13 36l-11 60q-1 24 23 24zM606 1138q-16 0 -82 48q-21 15 -21 36q-1 21 69 82t101 61q12 0 107 -44q8 -4 12 -11.5t0 -13.5t-14 -4q-96 -82 -126 -118t-46 -36z" />
    <glyph glyph-name="Agrave" unicode="&#xc0;" horiz-adv-x="1311" 
d="M346 837q0 -21 5 -51t-20 -30q-18 0 -26 16q-74 155 -74 198t33 72q60 50 270 82t392 113q22 22 26 27t8 25q6 20 24 20t50 -33q30 -32 30 -46t-54 -109t-185 -292t-207 -284q238 0 373 12q16 162 109 653q15 108 145 158q20 8 33 8q22 0 22 -18t-20 -47
q-62 -89 -114 -455q-106 -750 15 -749l63 16q20 0 20 -13q0 -36 -168 -124q-25 -13 -43 -13q-98 0 -70 496q-240 -14 -453 -39l-198 -242q51 6 41 6q47 -1 73 -98q7 -23 7 -36q0 -24 -21 -24l-60 10q-85 0 -229 -91l-43 -27q-8 0 -42 24t-54 68q-12 30 42 66t163 131
q108 95 141 137q-9 91 -9 95q3 57 41 73t130 21q248 302 399 590q-49 -25 -214 -79t-242 -81q-109 -39 -109 -136zM1230 1486q0 -22 -21 -22q-14 0 -27 17q-71 89 -131 135t-94 47q-34 0 -34 27q0 6 9 10l57 27q19 8 39 8t51 -33q104 -109 148 -202q3 -7 3 -14zM373 194h-1
h1z" />
    <glyph glyph-name="Aacute" unicode="&#xc1;" horiz-adv-x="1311" 
d="M346 837q0 -21 5 -51t-20 -30q-18 0 -26 16q-74 155 -74 198t33 72q60 50 270 82t392 113q22 22 26 27t8 25q6 20 24 20t50 -33q30 -32 30 -46t-54 -109t-185 -292t-207 -284q238 0 373 12q16 162 109 653q15 108 145 158q20 8 33 8q22 0 22 -18t-20 -47
q-62 -89 -114 -455q-106 -750 15 -749l63 16q20 0 20 -13q0 -36 -168 -124q-25 -13 -43 -13q-98 0 -70 496q-240 -14 -453 -39l-198 -242q51 6 41 6q47 -1 73 -98q7 -23 7 -36q0 -24 -21 -24l-60 10q-85 0 -229 -91l-43 -27q-8 0 -42 24t-54 68q-12 30 42 66t163 131
q108 95 141 137q-9 91 -9 95q3 57 41 73t130 21q248 302 399 590q-49 -25 -214 -79t-242 -81q-109 -39 -109 -136zM1356 1690q0 -27 -34 -27q-34 1 -94 -47t-130 -135q-12 -17 -30 -17t-18 22q0 7 3 14q43 93 147 202q32 33 52 33t38 -8l58 -27q8 -4 8 -10zM373 194h-1h1z
" />
    <glyph glyph-name="Acircumflex" unicode="&#xc2;" horiz-adv-x="1311" 
d="M346 837q0 -21 5 -51t-20 -30q-18 0 -26 16q-74 155 -74 198t33 72q60 50 270 82t392 113q22 22 26 27t8 25q6 20 24 20t50 -33q30 -32 30 -46t-54 -109t-185 -292t-207 -284q238 0 373 12q16 162 109 653q15 108 145 158q20 8 33 8q22 0 22 -18t-20 -47
q-62 -89 -114 -455q-106 -750 15 -749l63 16q20 0 20 -13q0 -36 -168 -124q-25 -13 -43 -13q-98 0 -70 496q-240 -14 -453 -39l-198 -242q51 6 41 6q47 -1 73 -98q7 -23 7 -36q0 -24 -21 -24l-60 10q-85 0 -229 -91l-43 -27q-8 0 -42 24t-54 68q-12 30 42 66t163 131
q108 95 141 137q-9 91 -9 95q3 57 41 73t130 21q248 302 399 590q-49 -25 -214 -79t-242 -81q-109 -39 -109 -136zM1408 1480q0 -10 -42 -27t-56 -17q-30 0 -118 195q-3 10 -37 -13q-90 -68 -215 -157q-35 -22 -45 -22q-10 -1 -16 19t-6 30q0 19 36 26q45 3 246 160
q17 14 27 36t40 32t35 -7q17 -66 55 -141t68 -96q28 -8 28 -18zM373 194h-1h1z" />
    <glyph glyph-name="Atilde" unicode="&#xc3;" horiz-adv-x="1311" 
d="M346 837q0 -21 5 -51t-20 -30q-18 0 -26 16q-74 155 -74 198t33 72q60 50 270 82t392 113q22 22 26 27t8 25q6 20 24 20t50 -33q30 -32 30 -46t-54 -109t-185 -292t-207 -284q238 0 373 12q16 162 109 653q15 108 145 158q20 8 33 8q22 0 22 -18t-20 -47
q-62 -89 -114 -455q-106 -750 15 -749l63 16q20 0 20 -13q0 -36 -168 -124q-25 -13 -43 -13q-98 0 -70 496q-240 -14 -453 -39l-198 -242q51 6 41 6q47 -1 73 -98q7 -23 7 -36q0 -24 -21 -24l-60 10q-85 0 -229 -91l-43 -27q-8 0 -42 24t-54 68q-12 30 42 66t163 131
q108 95 141 137q-9 91 -9 95q3 57 41 73t130 21q248 302 399 590q-49 -25 -214 -79t-242 -81q-109 -39 -109 -136zM881 1496q-15 0 -35 24t-9 39q33 42 89 95t71 50q44 -8 129 -104q42 -39 90 -53q32 -7 115 90q1 21 15 21t32 -21q17 -21 17 -33t-76 -84t-89 -70
q-46 10 -129 103q-49 45 -83 53t-123 -88q0 -22 -14 -22zM373 194h-1h1z" />
    <glyph glyph-name="Adieresis" unicode="&#xc4;" horiz-adv-x="1311" 
d="M346 837q0 -21 5 -51t-20 -30q-18 0 -26 16q-74 155 -74 198t33 72q60 50 270 82t392 113q22 22 26 27t8 25q6 20 24 20t50 -33q30 -32 30 -46t-54 -109t-185 -292t-207 -284q238 0 373 12q16 162 109 653q15 108 145 158q20 8 33 8q22 0 22 -18t-20 -47
q-62 -89 -114 -455q-106 -750 15 -749l63 16q20 0 20 -13q0 -36 -168 -124q-25 -13 -43 -13q-98 0 -70 496q-240 -14 -453 -39l-198 -242q51 6 41 6q47 -1 73 -98q7 -23 7 -36q0 -24 -21 -24l-60 10q-85 0 -229 -91l-43 -27q-8 0 -42 24t-54 68q-12 30 42 66t163 131
q108 95 141 137q-9 91 -9 95q3 57 41 73t130 21q248 302 399 590q-49 -25 -214 -79t-242 -81q-109 -39 -109 -136zM1040 1434q-14 0 -29 18q-16 18 -17 30t5 9q31 82 45 199q2 19 15 41q5 1 47 -45q32 -35 -10 -144q-42 -108 -56 -108zM1251 1435q-3 0 -6 1q-35 21 -37 39
t4 18q34 89 41 153t19 85q5 1 47 -45q12 -14 15 -42q4 -28 -32 -118t-51 -91zM373 194h-1h1z" />
    <glyph glyph-name="Aring" unicode="&#xc5;" horiz-adv-x="1311" 
d="M346 837q0 -21 5 -51t-20 -30q-18 0 -26 16q-74 155 -74 198t33 72q60 50 270 82t392 113q22 22 26 27t8 25q6 20 24 20t50 -33q30 -32 30 -46t-54 -109t-185 -292t-207 -284q238 0 373 12q16 162 109 653q15 108 145 158q20 8 33 8q22 0 22 -18t-20 -47
q-62 -89 -114 -455q-106 -750 15 -749l63 16q20 0 20 -13q0 -36 -168 -124q-25 -13 -43 -13q-98 0 -70 496q-240 -14 -453 -39l-198 -242q51 6 41 6q47 -1 73 -98q7 -23 7 -36q0 -24 -21 -24l-60 10q-85 0 -229 -91l-43 -27q-8 0 -42 24t-54 68q-12 30 42 66t163 131
q108 95 141 137q-9 91 -9 95q3 57 41 73t130 21q248 302 399 590q-49 -25 -214 -79t-242 -81q-109 -39 -109 -136zM1237 1665q-1 17 33 -9t34 -56t-66 -90t-112 -71t-92 18q-9 5 -16 14q-58 50 -58 86q0 17 16 43t84 78q70 52 107 52q21 0 47 -64q6 -10 -9 -10q-7 0 -12 7
t-28 0q-54 -16 -117 -92q-27 -33 -27 -56q0 -34 42 -34q76 0 170 117q23 29 13 45t-9 22zM373 194h-1h1z" />
    <glyph glyph-name="AE" unicode="&#xc6;" horiz-adv-x="1782" 
d="M1114 1174q-12 2 -43 6q-4 -9 -12 -25q-229 -402 -395 -608q235 0 348 10q13 128 102 617zM1864 1241q26 0 34 -33q18 -69 18 -80q0 -21 -48 -48t-146 -9q-181 35 -477 86q-47 -187 -69 -393q254 22 434 27q56 1 76 -37q18 -54 18 -82q0 -34 -66 -46t-81 -10t-29 25
t-53 23l-191 4q-73 0 -121 -4q-33 -294 -33 -374t3 -108q179 -5 464 -30q32 -3 39.5 30.5t20.5 34.5q26 2 33 -22q11 -40 28 -115q5 -18 -17 -38t-42.5 -37t-30.5 -16t-63 15q-218 59 -332 53q-24 -1 -62 -8q-8 -5 -55 -63q-16 -21 -38 -21q-55 0 -70 92q-88 -3 -158 -12
q-11 -21 -29 -21t-31 32t-13 55q0 58 220 69q-4 147 2 273q-181 -7 -430 -19q-303 -360 -335 -396q-78 -84 -116 -84q-6 0 -20 2t-67 73q-41 20 -41 43q0 22 74 96t73 121q-1 17 17 23t26 -3q35 -35 74 -90q20 16 111 123q-14 139 17.5 167t164.5 32q91 111 225 315t205 334
q-275 31 -333 31t-103 -4q-139 -15 -139 -144q0 -53 10 -103l11 -55q1 -30 -25 -30t-33 24q-50 152 -50 237t11 134q17 79 220 79t613 -63q41 47 107 72q19 7 32 7q22 1 22 -17t-14 -40t-24 -42l476 -89q42 0 73 38q13 16 33 16z" />
    <glyph glyph-name="Ccedilla" unicode="&#xc7;" horiz-adv-x="1034" 
d="M887 802q-11 0 -27 5q-76 23 -76 55q0 16 21 21q88 132 104 317q-55 49 -104 49q-105 1 -241 -177t-234 -419t-94 -405q2 -103 56 -140t90 -37t73 13q240 88 422 283q25 27 29 59t20 32t22 -18q36 -90 36 -124t-22 -58t-90 -74q-259 -194 -432 -211q-29 -2 -51 2
q-5 -12 -24 -84q37 8 87 2t58 -19t8 -50q30 -40 30 -70t-30 -55q-64 -52 -194 -84q-9 -2 -16 -2q-37 0 -58 74q-4 12 -4 20q0 16 13 16t30 -14q4 -1 9 -1q78 0 159 61q29 23 29 37t-46 16t-121 -17q-27 -4 -45 45q-9 29 70 140q-24 12 -47 39q-195 73 -195 223
q0 242 118 502t275 438q157 179 253 186q35 3 81 -29q6 -4 93 -75q5 40 28 40q24 0 70 -36t46 -58t-11 -67q-48 -195 -111 -301q-29 -50 -57 -50z" />
    <glyph glyph-name="Egrave" unicode="&#xc8;" horiz-adv-x="1235" 
d="M1297 1267q20 1 27 -37t7 -60t-7 -28q-6 -8 -40 -34t-92 -10q-185 47 -422 86q-68 -276 -100 -416q110 9 377 23q56 1 75 -37q2 -6 10 -41t8 -41q0 -34 -82 -48t-94 13q-13 27 -53 27q-222 0 -272 -9l-80 -249q-35 -102 -61 -142t-86 -80q35 2 138 2t484 -34q32 -4 38 30
t20 35q27 2 34 -22q10 -43 27 -115q5 -20 -17 -39t-43 -36q-20 -17 -30 -16t-64 15q-215 58 -482 58q-109 0 -234 -9q-84 -73 -103 -73t-24 26q-19 94 -19 105q0 39 41 51t176 18q105 194 162 383q-6 18 -26 63t-20 61q0 38 77 57q15 4 33 8q46 176 114 450q-142 25 -200 25
t-105 -6q-110 -16 -110 -147q0 -59 22 -146q10 -39 -17 -39q-19 0 -26 24q-42 139 -42 219t20 142q29 92 173 92q106 0 318 -41q52 38 69 38q17 1 17 -15t-8 -39q40 -12 395 -92q46 -11 72 34q11 16 25 16zM1070 1486q0 -22 -21 -22q-14 0 -27 17q-71 89 -131 135t-94 47
q-34 0 -34 27q0 6 9 10l57 27q19 8 39 8t51 -33q104 -109 148 -202q3 -7 3 -14z" />
    <glyph glyph-name="Eacute" unicode="&#xc9;" horiz-adv-x="1235" 
d="M1297 1267q20 1 27 -37t7 -60t-7 -28q-6 -8 -40 -34t-92 -10q-185 47 -422 86q-68 -276 -100 -416q110 9 377 23q56 1 75 -37q2 -6 10 -41t8 -41q0 -34 -82 -48t-94 13q-13 27 -53 27q-222 0 -272 -9l-80 -249q-35 -102 -61 -142t-86 -80q35 2 138 2t484 -34q32 -4 38 30
t20 35q27 2 34 -22q10 -43 27 -115q5 -20 -17 -39t-43 -36q-20 -17 -30 -16t-64 15q-215 58 -482 58q-109 0 -234 -9q-84 -73 -103 -73t-24 26q-19 94 -19 105q0 39 41 51t176 18q105 194 162 383q-6 18 -26 63t-20 61q0 38 77 57q15 4 33 8q46 176 114 450q-142 25 -200 25
t-105 -6q-110 -16 -110 -147q0 -59 22 -146q10 -39 -17 -39q-19 0 -26 24q-42 139 -42 219t20 142q29 92 173 92q106 0 318 -41q52 38 69 38q17 1 17 -15t-8 -39q40 -12 395 -92q46 -11 72 34q11 16 25 16zM1186 1690q0 -27 -34 -27q-34 1 -94 -47t-130 -135
q-12 -17 -30 -17t-18 22q0 7 3 14q43 93 147 202q32 33 52 33t38 -8l58 -27q8 -4 8 -10z" />
    <glyph glyph-name="Ecircumflex" unicode="&#xca;" horiz-adv-x="1235" 
d="M1297 1267q20 1 27 -37t7 -60t-7 -28q-6 -8 -40 -34t-92 -10q-185 47 -422 86q-68 -276 -100 -416q110 9 377 23q56 1 75 -37q2 -6 10 -41t8 -41q0 -34 -82 -48t-94 13q-13 27 -53 27q-222 0 -272 -9l-80 -249q-35 -102 -61 -142t-86 -80q35 2 138 2t484 -34q32 -4 38 30
t20 35q27 2 34 -22q10 -43 27 -115q5 -20 -17 -39t-43 -36q-20 -17 -30 -16t-64 15q-215 58 -482 58q-109 0 -234 -9q-84 -73 -103 -73t-24 26q-19 94 -19 105q0 39 41 51t176 18q105 194 162 383q-6 18 -26 63t-20 61q0 38 77 57q15 4 33 8q46 176 114 450q-142 25 -200 25
t-105 -6q-110 -16 -110 -147q0 -59 22 -146q10 -39 -17 -39q-19 0 -26 24q-42 139 -42 219t20 142q29 92 173 92q106 0 318 -41q52 38 69 38q17 1 17 -15t-8 -39q40 -12 395 -92q46 -11 72 34q11 16 25 16zM1224 1480q0 -10 -42 -27t-56 -17q-30 0 -118 195q-3 10 -37 -13
q-90 -68 -215 -157q-35 -22 -45 -22q-10 -1 -16 19t-6 30q0 19 36 26q45 3 246 160q17 14 27 36t40 32t35 -7q17 -66 55 -141t68 -96q28 -8 28 -18z" />
    <glyph glyph-name="Edieresis" unicode="&#xcb;" horiz-adv-x="1235" 
d="M1297 1267q20 1 27 -37t7 -60t-7 -28q-6 -8 -40 -34t-92 -10q-185 47 -422 86q-68 -276 -100 -416q110 9 377 23q56 1 75 -37q2 -6 10 -41t8 -41q0 -34 -82 -48t-94 13q-13 27 -53 27q-222 0 -272 -9l-80 -249q-35 -102 -61 -142t-86 -80q35 2 138 2t484 -34q32 -4 38 30
t20 35q27 2 34 -22q10 -43 27 -115q5 -20 -17 -39t-43 -36q-20 -17 -30 -16t-64 15q-215 58 -482 58q-109 0 -234 -9q-84 -73 -103 -73t-24 26q-19 94 -19 105q0 39 41 51t176 18q105 194 162 383q-6 18 -26 63t-20 61q0 38 77 57q15 4 33 8q46 176 114 450q-142 25 -200 25
t-105 -6q-110 -16 -110 -147q0 -59 22 -146q10 -39 -17 -39q-19 0 -26 24q-42 139 -42 219t20 142q29 92 173 92q106 0 318 -41q52 38 69 38q17 1 17 -15t-8 -39q40 -12 395 -92q46 -11 72 34q11 16 25 16zM818 1434q-14 0 -30 18t-17 30t5 9q31 82 45 199q2 19 15 41
q5 1 47 -45q32 -35 -10 -144q-41 -108 -55 -108zM1028 1435q-3 0 -6 1q-35 21 -37 39t4 18q34 89 41 153t19 85q5 1 47 -45q12 -14 15 -42t-33 -118t-50 -91z" />
    <glyph glyph-name="Igrave" unicode="&#xcc;" horiz-adv-x="848" 
d="M102 82q0 35 32 35q8 0 16 -4q86 -44 147 -45q133 -4 289 388t168 697q3 99 -98 99q-16 0 -35 -3q-79 -11 -183 -131t-149 -280q-6 -21 -6 -49t25 -59l40 -40q17 -17 17 -26q0 -19 -21 -19t-29 4q-86 51 -121 87t-35 84t44 150q45 102 145 214q100 114 178 147
q36 16 148 -18q7 9 21 9q39 0 153 -75q51 -33 29 -223q-35 -291 -184 -648q-175 -421 -339 -423q-99 -1 -241 106q-11 9 -11 23zM841 1486q0 -22 -21 -22q-14 0 -27 17q-71 89 -131 135t-94 47q-34 0 -34 27q0 6 9 10l57 27q18 8 38 8t52 -33q104 -109 148 -202q3 -7 3 -14z
" />
    <glyph glyph-name="Iacute" unicode="&#xcd;" horiz-adv-x="848" 
d="M102 82q0 35 32 35q8 0 16 -4q86 -44 147 -45q133 -4 289 388t168 697q3 99 -98 99q-16 0 -35 -3q-79 -11 -183 -131t-149 -280q-6 -21 -6 -49t25 -59l40 -40q17 -17 17 -26q0 -19 -21 -19t-29 4q-86 51 -121 87t-35 84t44 150q45 102 145 214q100 114 178 147
q36 16 148 -18q7 9 21 9q39 0 153 -75q51 -33 29 -223q-35 -291 -184 -648q-175 -421 -339 -423q-99 -1 -241 106q-11 9 -11 23zM956 1690q0 -27 -34 -27q-34 1 -94 -47t-130 -135q-12 -17 -30 -17t-18 22q0 7 3 14q43 93 147 202q32 33 52 33t38 -8l58 -27q8 -4 8 -10z" />
    <glyph glyph-name="Icircumflex" unicode="&#xce;" horiz-adv-x="848" 
d="M102 82q0 35 32 35q8 0 16 -4q86 -44 147 -45q133 -4 289 388t168 697q3 99 -98 99q-16 0 -35 -3q-79 -11 -183 -131t-149 -280q-6 -21 -6 -49t25 -59l40 -40q17 -17 17 -26q0 -19 -21 -19t-29 4q-86 51 -121 87t-35 84t44 150q45 102 145 214q100 114 178 147
q36 16 148 -18q7 9 21 9q39 0 153 -75q51 -33 29 -223q-35 -291 -184 -648q-175 -421 -339 -423q-99 -1 -241 106q-11 9 -11 23zM1003 1480q1 -10 -41 -27t-57 -17q-30 0 -118 195q-3 10 -37 -13q-90 -68 -215 -157q-35 -22 -45 -22q-10 -1 -16 19t-6 30q0 19 36 26
q45 3 246 160q18 14 28 36t40 32t34 -7q16 -66 54 -141t69 -96q28 -8 28 -18z" />
    <glyph glyph-name="Idieresis" unicode="&#xcf;" horiz-adv-x="848" 
d="M676 1648q0 -16 -30 -116q-30 -98 -52 -98q-16 0 -30 21t-15 29q1 8 3 8t3 -1q31 83 45 199q2 18 15 41q21 -3 41 -35t20 -48zM762 1476q0 16 6 17q34 88 41 153t19 85q9 -1 35 -30t26 -49t-26 -106t-52 -109q-1 -2 -4 -2t-6 1q-39 24 -39 40zM701 1322q19 0 80 -29
t82 -62t21 -97q0 -166 -59 -377q-113 -399 -260 -632q-84 -133 -157 -161q-26 -11 -72 -11q-46 -1 -140 47t-94 82t31 35q9 -1 59 -25t102 -24q91 0 174 140t159 362q75 224 101 346t26 238q0 98 -101 98t-212 -130t-152 -284q-6 -22 -6 -39q0 -47 41 -85t41 -51
q-1 -18 -31 -18t-102 58t-73 119q0 62 70 198t213 257q70 59 110 59t122 -23q8 9 27 9z" />
    <glyph glyph-name="Eth" unicode="&#xd0;" horiz-adv-x="1311" 
d="M347 -30q-12 0 -46 17t-53 37t-19 82t27 179q6 29 20 29t70 -46q25 82 90 291q-63 -2 -74 -27q-10 -15 -18 -15t-8 13t14 56t26 61q14 18 51 14t42 -4q98 312 135 404q-223 -140 -344 -270q-28 -31 -28 -70t24 -86t24 -54q0 -17 -22 -17t-31 11q-125 147 -125 205t80 129
q169 153 490 338q53 124 77 124q18 0 74 -54q55 25 105 47t90 23q38 0 119 -54q4 4 13 4q56 0 171 -104q62 -57 62 -123q0 -16 -3 -37q-30 -232 -144 -489t-246 -431.5t-212 -175.5q-99 0 -282 123q-14 10 -14 23q0 32 37 32q10 0 20 -5q75 -47 166 -52q125 -6 319 364
t225 660q10 93 -100 138q-27 10 -45 8q-193 -27 -373 -140q-83 -195 -172 -471h47q179 0 203 29q9 12 21 12t12 -14t-18 -58q-18 -42 -34 -54t-86 -11q-70 2 -114 0h-62q-97 -318 -139 -541q-10 -50 -42 -50z" />
    <glyph glyph-name="Ntilde" unicode="&#xd1;" horiz-adv-x="1432" 
d="M596 1047q-105 168 -203 168q-32 0 -104 -54q-19 -14 -39 -14q-20 -1 -21 19q0 20 21 40q110 106 151 138t80 28q61 -7 160 -145q21 52 12 80q-1 5 -1 9q0 13 15 13t45 -25q30 -24 29 -52q0 -28 -12 -62t-22 -64q136 -190 275 -444t185 -385q35 227 170 750
q-80 51 -80 79q1 16 35 14t170 171q31 38 56 38t71 -53q14 -16 14 -43t-53 -89q-40 -42 -80 -85q-82 -229 -156 -517t-77 -433q17 -46 17 -62q0 -40 -74 -90q-14 -9 -29 -9t-27 14t-22 26q-15 10 0 86q-88 232 -236 509t-207 351q-50 -163 -264 -700q27 10 84 -102
q6 -11 6 -18q0 -17 -29 -18q18 1 -46 1t-107 -43l-25 -57q-18 -42 -51 -42q-13 0 -30 7q-102 41 -101 81q2 52 158 146q82 147 196 440t146 398zM883 1496q-15 0 -35 24t-9 39q33 42 89 95t71 50q44 -8 129 -104q42 -39 90 -53q32 -7 115 90q1 21 15 21t32 -21
q17 -21 17 -33t-76 -84t-89 -70q-46 10 -129 103q-49 45 -83 53t-123 -88q0 -22 -14 -22z" />
    <glyph glyph-name="Ograve" unicode="&#xd2;" horiz-adv-x="1194" 
d="M1112 1302q-32 0 -96 -45q-144 -99 -348 -292q-22 -21 -40 -23t-18 14t15 39q87 136 178 236q-52 39 -85 39t-52 -15q-110 -81 -264 -385t-142 -551q5 -101 37 -149t101 -84q267 -135 532 388q190 376 217 753q5 75 -35 75zM645 1370q43 0 74 -17t127 -81q78 85 122 115
t91 30t94 -59q83 -5 109 -23t27 -66q0 -48 -9 -126q-36 -312 -207 -679q-223 -482 -493 -493q-52 -2 -102 8t-44 27q-164 40 -227 93q-87 73 -82 225q10 290 173 621q131 266 253 378q51 47 94 47zM1079 1486q0 -22 -21 -22q-14 0 -27 17q-71 89 -131 135t-94 47
q-34 0 -34 27q0 6 9 10l57 27q18 8 38 8t52 -33q104 -109 148 -202q3 -7 3 -14z" />
    <glyph glyph-name="Oacute" unicode="&#xd3;" horiz-adv-x="1194" 
d="M1112 1302q-32 0 -96 -45q-144 -99 -348 -292q-22 -21 -40 -23t-18 14t15 39q87 136 178 236q-52 39 -85 39t-52 -15q-110 -81 -264 -385t-142 -551q5 -101 37 -149t101 -84q267 -135 532 388q190 376 217 753q5 75 -35 75zM645 1370q43 0 74 -17t127 -81q78 85 122 115
t91 30t94 -59q83 -5 109 -23t27 -66q0 -48 -9 -126q-36 -312 -207 -679q-223 -482 -493 -493q-52 -2 -102 8t-44 27q-164 40 -227 93q-87 73 -82 225q10 290 173 621q131 266 253 378q51 47 94 47zM1210 1690q0 -27 -34 -27q-34 1 -94 -47t-130 -135q-12 -17 -30 -17t-18 22
q0 7 3 14q43 93 147 202q32 33 52 33t38 -8l58 -27q8 -4 8 -10z" />
    <glyph glyph-name="Ocircumflex" unicode="&#xd4;" horiz-adv-x="1194" 
d="M1112 1302q-32 0 -96 -45q-144 -99 -348 -292q-22 -21 -40 -23t-18 14t15 39q87 136 178 236q-52 39 -85 39t-52 -15q-110 -81 -264 -385t-142 -551q5 -101 37 -149t101 -84q267 -135 532 388q190 376 217 753q5 75 -35 75zM645 1370q43 0 74 -17t127 -81q78 85 122 115
t91 30t94 -59q83 -5 109 -23t27 -66q0 -48 -9 -126q-36 -312 -207 -679q-223 -482 -493 -493q-52 -2 -102 8t-44 27q-164 40 -227 93q-87 73 -82 225q10 290 173 621q131 266 253 378q51 47 94 47zM1265 1480q1 -10 -41 -27t-57 -17q-30 0 -118 195q-3 10 -37 -13
q-90 -68 -215 -157q-35 -22 -45 -22q-10 -1 -16 19t-6 30q0 19 36 26q45 3 246 160q18 14 28 36t40 32t34 -7q16 -66 54 -141t69 -96q28 -8 28 -18z" />
    <glyph glyph-name="Otilde" unicode="&#xd5;" horiz-adv-x="1194" 
d="M1112 1302q-32 0 -96 -45q-144 -99 -348 -292q-22 -21 -40 -23t-18 14t15 39q87 136 178 236q-52 39 -85 39t-52 -15q-110 -81 -264 -385t-142 -551q5 -101 37 -149t101 -84q267 -135 532 388q190 376 217 753q5 75 -35 75zM645 1370q43 0 74 -17t127 -81q78 85 122 115
t91 30t94 -59q83 -5 109 -23t27 -66q0 -48 -9 -126q-36 -312 -207 -679q-223 -482 -493 -493q-52 -2 -102 8t-44 27q-164 40 -227 93q-87 73 -82 225q10 290 173 621q131 266 253 378q51 47 94 47zM773 1496q-15 0 -35 24t-9 39q33 42 89 95t71 50q44 -8 129 -104
q42 -39 90 -53q32 -7 115 90q1 21 15 21t32 -21q17 -21 17 -33t-76 -84t-89 -70q-46 10 -129 103q-49 45 -83 53t-123 -88q0 -22 -14 -22z" />
    <glyph glyph-name="Odieresis" unicode="&#xd6;" horiz-adv-x="1194" 
d="M1112 1302q-32 0 -96 -45q-144 -99 -348 -292q-22 -21 -40 -23t-18 14t15 39q87 136 178 236q-52 39 -85 39t-52 -15q-110 -81 -264 -385t-142 -551q5 -101 37 -149t101 -84q267 -135 532 388q190 376 217 753q5 75 -35 75zM645 1370q43 0 74 -17t127 -81q78 85 122 115
t91 30t94 -59q83 -5 109 -23t27 -66q0 -48 -9 -126q-36 -312 -207 -679q-223 -482 -493 -493q-52 -2 -102 8t-44 27q-164 40 -227 93q-87 73 -82 225q10 290 173 621q131 266 253 378q51 47 94 47zM906 1472q-14 0 -30 18t-17 30t5 9q31 82 45 199q2 19 15 41q5 1 47 -45
q32 -35 -10 -144q-41 -108 -55 -108zM1116 1473q-3 0 -6 1q-35 21 -37 39t4 18q34 89 41 153t19 85q5 1 47 -45q12 -14 15 -42t-33 -118t-50 -91z" />
    <glyph glyph-name="multiply" unicode="&#xd7;" horiz-adv-x="868" 
d="M706 325q36 -1 36 -21q0 -8 -12 -14t-39 -27q-28 -21 -44 -21q-17 0 -31 14t-54 60q-40 47 -96 107q-133 -122 -154 -158q-4 -8 -8 -31t-22 -23q-10 1 -16 13t-25 40t-19 37q0 31 54 75t128 111q-29 29 -45 46q-106 109 -133 109l-16 -1q-21 0 -21 20q1 10 13 16
q12 5 40 21t48 16t48 -32t72 -76q44 -46 58 -61q9 9 22 20l50 49q38 36 63 62t24 54t19 27q9 0 18 -14q37 -59 37 -83t-49 -66q-49 -43 -123 -111q153 -158 177 -158z" />
    <glyph glyph-name="Oslash" unicode="&#xd8;" horiz-adv-x="1188" 
d="M638 949q-22 0 -22 22q0 11 9 24q96 146 178 236q-52 39 -85 39t-52 -15q-110 -81 -264 -385t-142 -551q4 -96 34 -145t99 -86q269 525 459 1067q-81 -75 -184 -190q-14 -16 -30 -16zM1097 1311q-37 0 -73 -25t-66 -47q-258 -693 -499 -1178q240 -43 471 413
q190 376 217 753q6 84 -50 84zM276 -224q-9 0 -35 8t-26 24t24 26q32 13 121 191q-122 36 -180 100t-55 199q9 290 173 621q131 266 253 378q51 47 94 47t74 -17t127 -81q34 37 67 67q39 119 39 151t-6 50t15 19q9 0 20 -13q44 -48 44 -80t-7 -53q15 4 30 4q59 0 105 -59
q83 -5 109 -23t27 -66q0 -48 -9 -126q-36 -312 -207 -679q-223 -482 -493 -493q-50 -3 -102 7t-46 24q-32 -63 -96 -180q-26 -46 -60 -46z" />
    <glyph glyph-name="Ugrave" unicode="&#xd9;" horiz-adv-x="1534" 
d="M1415 350q16 0 16 -18t-8 -35q-65 -143 -90 -285q-9 -55 -43 -55t-88 45t-54 57q0 4 4 18t7 29q29 217 119 551q-218 -398 -408 -614q-58 -66 -122 -66t-109 60q-104 82 -123 108q-38 52 -38 155q0 170 81 425t180 451q-277 -91 -391 -172q-54 -39 -54 -80l28 -107
q1 -5 1 -10q0 -18 -23 -18t-44 36q-85 145 -85 206q0 83 114 118q195 52 491 143q48 75 90 75t123 -79q12 -11 12 -20q0 -21 -94 -41q-121 -199 -205 -489t-90 -462q-3 -88 34 -138t90 -50t93 47q177 208 316 446t315 597q41 83 90 155q22 32 52 32q48 0 165 -101
q8 -7 8 -14q0 -21 -31 -21l-47 6q-45 0 -91 -88q-211 -400 -285 -932q15 43 32 67t31 46t31 22zM1396 1486q0 -22 -21 -22q-14 0 -27 17q-71 89 -131 135t-94 47q-34 0 -34 27q0 6 9 10l57 27q19 8 39 8t51 -33q104 -109 148 -202q3 -7 3 -14z" />
    <glyph glyph-name="Uacute" unicode="&#xda;" horiz-adv-x="1534" 
d="M1415 350q16 0 16 -18t-8 -35q-65 -143 -90 -285q-9 -55 -43 -55t-88 45t-54 57q0 4 4 18t7 29q29 217 119 551q-218 -398 -408 -614q-58 -66 -122 -66t-109 60q-104 82 -123 108q-38 52 -38 155q0 170 81 425t180 451q-277 -91 -391 -172q-54 -39 -54 -80l28 -107
q1 -5 1 -10q0 -18 -23 -18t-44 36q-85 145 -85 206q0 83 114 118q195 52 491 143q48 75 90 75t123 -79q12 -11 12 -20q0 -21 -94 -41q-121 -199 -205 -489t-90 -462q-3 -88 34 -138t90 -50t93 47q177 208 316 446t315 597q41 83 90 155q22 32 52 32q48 0 165 -101
q8 -7 8 -14q0 -21 -31 -21l-47 6q-45 0 -91 -88q-211 -400 -285 -932q15 43 32 67t31 46t31 22zM1520 1690q0 -27 -34 -27q-34 1 -94 -47t-130 -135q-12 -17 -30 -17t-18 22q0 7 3 14q43 93 147 202q32 33 52 33t38 -8l58 -27q8 -4 8 -10z" />
    <glyph glyph-name="Ucircumflex" unicode="&#xdb;" horiz-adv-x="1534" 
d="M1415 350q16 0 16 -18t-8 -35q-65 -143 -90 -285q-9 -55 -43 -55t-88 45t-54 57q0 4 4 18t7 29q29 217 119 551q-218 -398 -408 -614q-58 -66 -122 -66t-109 60q-104 82 -123 108q-38 52 -38 155q0 170 81 425t180 451q-277 -91 -391 -172q-54 -39 -54 -80l28 -107
q1 -5 1 -10q0 -18 -23 -18t-44 36q-85 145 -85 206q0 83 114 118q195 52 491 143q48 75 90 75t123 -79q12 -11 12 -20q0 -21 -94 -41q-121 -199 -205 -489t-90 -462q-3 -88 34 -138t90 -50t93 47q177 208 316 446t315 597q41 83 90 155q22 32 52 32q48 0 165 -101
q8 -7 8 -14q0 -21 -31 -21l-47 6q-45 0 -91 -88q-211 -400 -285 -932q15 43 32 67t31 46t31 22zM1554 1480q0 -10 -42 -27t-56 -17q-30 0 -118 195q-3 10 -37 -13q-90 -68 -215 -157q-35 -22 -45 -22q-10 -1 -16 19t-6 30q0 19 36 26q45 3 246 160q17 14 27 36t40 32t35 -7
q17 -66 55 -141t68 -96q28 -8 28 -18z" />
    <glyph glyph-name="Udieresis" unicode="&#xdc;" horiz-adv-x="1534" 
d="M1415 350q16 0 16 -18t-8 -35q-65 -143 -90 -285q-9 -55 -43 -55t-88 45t-54 57q0 4 4 18t7 29q29 217 119 551q-218 -398 -408 -614q-58 -66 -122 -66t-109 60q-104 82 -123 108q-38 52 -38 155q0 170 81 425t180 451q-277 -91 -391 -172q-54 -39 -54 -80l28 -107
q1 -5 1 -10q0 -18 -23 -18t-44 36q-85 145 -85 206q0 83 114 118q195 52 491 143q48 75 90 75t123 -79q12 -11 12 -20q0 -21 -94 -41q-121 -199 -205 -489t-90 -462q-3 -88 34 -138t90 -50t93 47q177 208 316 446t315 597q41 83 90 155q22 32 52 32q48 0 165 -101
q8 -7 8 -14q0 -21 -31 -21l-47 6q-45 0 -91 -88q-211 -400 -285 -932q15 43 32 67t31 46t31 22zM1176 1434q-14 0 -30 18t-17 30t5 9q31 82 45 199q2 19 15 41q5 1 47 -45q32 -35 -10 -144q-41 -108 -55 -108zM1386 1435q-3 0 -6 1q-35 21 -37 39t4 18q34 89 41 153t19 85
q5 1 47 -45q12 -14 15 -42t-33 -118t-50 -91z" />
    <glyph glyph-name="Yacute" unicode="&#xdd;" horiz-adv-x="1366" 
d="M288 768q-22 0 -44 35q-93 145 -93 206q0 78 109 115q194 60 488 162q44 78 86 78t124 -74q14 -12 14 -22q0 -22 -89 -43q-119 -167 -197 -419t-78 -397q0 -144 77 -144q37 0 75 38q355 357 618 907q26 102 66 102q29 0 72 -48q13 -16 13 -35q0 -49 -122 -223
q-28 -71 -189 -599t-237 -632q-35 -49 -81 -49q-68 0 -261 137q-22 16 -22 31q0 23 33 23q12 1 71 -23t86 -24q56 0 98 77q184 333 326 839q-190 -334 -414 -563q-59 -61 -95 -61t-79 45q-115 70 -141 103t-23 147q6 217 203 702q-240 -89 -352 -176q-53 -41 -53 -80
l34 -119q-1 -16 -23 -16zM1473 1665q0 -27 -34 -27q-35 0 -95 -48t-129 -134q-13 -17 -31 -17t-17 22q0 7 3 14q43 93 147 202q32 33 52 33t38 -8l58 -27q8 -4 8 -10z" />
    <glyph glyph-name="Thorn" unicode="&#xde;" horiz-adv-x="1159" 
d="M702 1396q17 0 59 -35t36 -50q-20 -46 -54 -148q-11 -44 -20 -71q178 56 235 55q112 -2 158 -117q61 -44 83 -72t22 -65q0 -146 -144 -318q-181 -217 -296 -217q-33 0 -154 50q-24 9 -24 22q1 21 73 21t121 36q131 101 177 152q105 118 126 268q11 84 -58 101
q-32 8 -65 2q-139 -9 -297 -72q-134 -454 -244 -739q8 3 48 27t63 20t49 -51q26 -48 25 -69q0 -27 -30 -24q-31 3 -91 -29q-60 -31 -94 -65t-62 -34t-67 36q-70 65 -3 82q172 396 297 801q-192 -83 -270 -138q-107 -76 -107 -160q0 -36 16 -75q16 -38 15 -47q0 -28 -21 -28
q-32 0 -120 173q-12 24 -12 49q0 59 60 115t212 140q153 86 277 135q69 245 65 327q-1 12 16 12z" />
    <glyph glyph-name="germandbls" unicode="&#xdf;" horiz-adv-x="911" 
d="M826 954q-30 0 -29 34q0 11 4 24q46 155 61 291q7 64 -57 64q-133 -1 -273 -265q-94 -180 -153 -348q91 24 187 48t156 25q59 1 74 -11q14 -12 42 -45t28 -50q0 -50 -84 -111t-151 -86q222 -243 219 -350q-1 -33 -33.5 -69t-73.5 -52q-14 -34 -62.5 -58t-94.5 -24
q-170 3 -297 138q-33 35 -33 57t20 70t43 49q12 0 40 -19t29.5 -36.5t1.5 -31.5t1 -26q1 -13 21 -25q140 -84 227 -84t87 60q0 30 -21 86q-50 133 -205 264q-48 -2 -57 5.5t-15 51.5t45 70q13 7 27 7t65 -27q160 97 160 134q0 11 -4 21t-25 10q-135 0 -360 -88
q-76 -199 -158 -509t-100 -430t-38 -140q-6 -6 -56 -26t-64 -19q-31 1 -25 61t6 117q0 132 -38 156q-24 15 -24 30q-1 19 33 35t71 18t47 -8q10 -11 18 -42q40 225 205 712q-102 62 -102 101q0 27 39 48t143 62q191 490 303 598q52 51 100 51t176 -77q80 -11 106 -23t25 -51
q0 -83 -126 -328q-21 -39 -51 -39z" />
    <glyph glyph-name="agrave" unicode="&#xe0;" horiz-adv-x="797" 
d="M712 333q16 0 15 -12q0 -12 -8 -24q-94 -139 -125 -281q-8 -40 -26 -40t-54 25t-42 37q-4 12 1 44q42 254 105 422q-88 -141 -228 -301t-190 -195t-70 -35t-57 29q-53 32 -53 88q0 11 2 25q18 149 130 345t257 331q47 45 83 43t138 -95q9 -8 9 -17q0 -16 -21 -16
q-8 0 -15 3q-71 30 -114 -2q-94 -69 -217 -256t-150 -347q-1 -7 -1 -13q0 -25 27 -25q26 0 106 78t210 246t161 244q33 76 43 110q10 36 25 36t54 -29t41 -42t-9 -43q-92 -255 -127 -428q16 14 40 43t34 41t26 11zM692 994q0 -22 -21 -22q-14 0 -27 17q-71 89 -131 135
t-94 47q-34 0 -34 27q0 6 9 10l57 27q19 8 39 8t51 -33q104 -109 148 -202q3 -7 3 -14z" />
    <glyph glyph-name="aacute" unicode="&#xe1;" horiz-adv-x="797" 
d="M712 333q16 0 15 -12q0 -12 -8 -24q-94 -139 -125 -281q-8 -40 -26 -40t-54 25t-42 37q-4 12 1 44q42 254 105 422q-88 -141 -228 -301t-190 -195t-70 -35t-57 29q-53 32 -53 88q0 11 2 25q18 149 130 345t257 331q47 45 83 43t138 -95q9 -8 9 -17q0 -16 -21 -16
q-8 0 -15 3q-71 30 -114 -2q-94 -69 -217 -256t-150 -347q-1 -7 -1 -13q0 -25 27 -25q26 0 106 78t210 246t161 244q33 76 43 110q10 36 25 36t54 -29t41 -42t-9 -43q-92 -255 -127 -428q16 14 40 43t34 41t26 11zM893 1198q0 -27 -34 -27q-35 1 -95 -47t-129 -135
q-13 -17 -31 -17t-17 22q0 7 3 14q43 93 147 202q32 33 52 33t38 -8l58 -27q8 -4 8 -10z" />
    <glyph glyph-name="acircumflex" unicode="&#xe2;" horiz-adv-x="797" 
d="M712 333q16 0 15 -12q0 -12 -8 -24q-94 -139 -125 -281q-8 -40 -26 -40t-54 25t-42 37q-4 12 1 44q42 254 105 422q-88 -141 -228 -301t-190 -195t-70 -35t-57 29q-53 32 -53 88q0 11 2 25q18 149 130 345t257 331q47 45 83 43t138 -95q9 -8 9 -17q0 -16 -21 -16
q-8 0 -15 3q-71 30 -114 -2q-94 -69 -217 -256t-150 -347q-1 -7 -1 -13q0 -25 27 -25q26 0 106 78t210 246t161 244q33 76 43 110q10 36 25 36t54 -29t41 -42t-9 -43q-92 -255 -127 -428q16 14 40 43t34 41t26 11zM878 988q0 -10 -42 -27t-56 -17q-30 0 -118 195
q-3 10 -37 -13q-90 -68 -215 -157q-35 -22 -45 -22q-10 -1 -16 19t-6 30q0 19 36 26q45 3 246 160q17 14 27 36t40 32t35 -7q17 -66 55 -141t68 -96q28 -8 28 -18z" />
    <glyph glyph-name="atilde" unicode="&#xe3;" horiz-adv-x="797" 
d="M712 333q16 0 15 -12q0 -12 -8 -24q-94 -139 -125 -281q-8 -40 -26 -40t-54 25t-42 37q-4 12 1 44q42 254 105 422q-88 -141 -228 -301t-190 -195t-70 -35t-57 29q-53 32 -53 88q0 11 2 25q18 149 130 345t257 331q47 45 83 43t138 -95q9 -8 9 -17q0 -16 -21 -16
q-8 0 -15 3q-71 30 -114 -2q-94 -69 -217 -256t-150 -347q-1 -7 -1 -13q0 -25 27 -25q26 0 106 78t210 246t161 244q33 76 43 110q10 36 25 36t54 -29t41 -42t-9 -43q-92 -255 -127 -428q16 14 40 43t34 41t26 11zM382 1004q-14 0 -34 24t-10 39q34 42 90 95t70 50
q44 -8 129 -104q42 -39 90 -53q32 -7 115 90q2 21 16 21t31 -21t17 -33t-76 -84t-89 -70q-46 10 -129 103q-50 45 -84 53t-122 -88q0 -22 -14 -22z" />
    <glyph glyph-name="adieresis" unicode="&#xe4;" horiz-adv-x="797" 
d="M712 333q16 0 15 -12q0 -12 -8 -24q-94 -139 -125 -281q-8 -40 -26 -40t-54 25t-42 37q-4 12 1 44q42 254 105 422q-88 -141 -228 -301t-190 -195t-70 -35t-57 29q-53 32 -53 88q0 11 2 25q18 149 130 345t257 331q47 45 83 43t138 -95q9 -8 9 -17q0 -16 -21 -16
q-8 0 -15 3q-71 30 -114 -2q-94 -69 -217 -256t-150 -347q-1 -7 -1 -13q0 -25 27 -25q26 0 106 78t210 246t161 244q33 76 43 110q10 36 25 36t54 -29t41 -42t-9 -43q-92 -255 -127 -428q16 14 40 43t34 41t26 11zM526 942q-14 0 -29 18q-16 18 -17 30t5 9q31 82 45 199
q2 19 15 41q5 1 47 -45q32 -35 -10 -144q-42 -108 -56 -108zM737 943q-3 0 -6 1q-35 21 -37 39t4 18q34 89 41 153t19 85q5 1 47 -45q12 -14 15 -42q4 -28 -32 -118t-51 -91z" />
    <glyph glyph-name="aring" unicode="&#xe5;" horiz-adv-x="797" 
d="M712 333q16 0 15 -12q0 -12 -8 -24q-94 -139 -125 -281q-8 -40 -26 -40t-54 25t-42 37q-4 12 1 44q42 254 105 422q-88 -141 -228 -301t-190 -195t-70 -35t-57 29q-53 32 -53 88q0 11 2 25q18 149 130 345t257 331q47 45 83 43t138 -95q9 -8 9 -17q0 -16 -21 -16
q-8 0 -15 3q-71 30 -114 -2q-94 -69 -217 -256t-150 -347q-1 -7 -1 -13q0 -25 27 -25q26 0 106 78t210 246t161 244q33 76 43 110q10 36 25 36t54 -29t41 -42t-9 -43q-92 -255 -127 -428q16 14 40 43t34 41t26 11zM719 1173q-1 17 33 -9t34 -56t-66 -90t-112 -71t-92 18
q-9 5 -16 14q-58 50 -58 86q0 17 16 43t84 78q70 52 107 52q21 0 47 -64q6 -10 -9 -10q-7 0 -12 7t-28 0q-54 -16 -117 -92q-27 -33 -27 -56q0 -34 42 -34q76 0 170 117q23 29 13 45t-9 22z" />
    <glyph glyph-name="ae" unicode="&#xe6;" horiz-adv-x="1001" 
d="M828 766q-20 0 -66 -52q-76 -83 -137 -241q20 -1 81 -9t100 31t43 106q-1 -9 -1 126q0 39 -20 39zM745 408q-35 0 -139 24q-18 -29 -43 -132t-22 -191q1 -52 34 -52q96 0 353 256q14 14 30 14t17 -19q0 -11 -8 -23q-220 -310 -355 -308q-41 1 -110 62q-6 5 -40 23.5
t-34 81.5t45 188q-53 -93 -155 -204q-102 -110 -140 -132t-85 -22t-54 28q-60 40 -60 88q0 15 5 31q48 177 140 287t138 108t146 -94q9 -9 9 -17q0 -17 -21 -17q-8 0 -15 3q-69 30 -105 12q-62 -30 -118 -125t-80 -182q-5 -15 -5 -26q0 -27 28 -27t85 53q169 154 297 369
q42 167 42 209q0 53 -52 53q-10 0 -24 -2q-132 -14 -213 -57q-37 -20 -37 -70q0 -21 -12.5 -21t-22.5 15t-39 61q-12 28 -12 49t28 39q138 90 322 95q52 1 67 -10.5t27 -65.5q60 -20 66 -55q19 35 61 85t68 50t96 -29q-3 13 -3 19q1 16 55 16t54 -16l-6 -42l3 -161
q0 -123 -66.5 -171t-139.5 -48z" />
    <glyph glyph-name="ccedilla" unicode="&#xe7;" horiz-adv-x="602" 
d="M139 177q0 -153 97 -150q85 2 249 213q16 19 29 19t13 -16q0 -8 -5 -20q-53 -130 -139 -229q-21 -25 -63 -25t-89 13q-22 0 -55 8q-29 -50 -57 -111q71 19 116 14t53.5 -17t10.5 -52q33 -43 33 -64t-29 -43q-87 -67 -205 -94q-9 -2 -16 -2q-32 0 -51 66q-4 11 -4 19
q-1 17 13 17q14 1 24 -7t14 -8q79 0 160 61q30 23 30 37q0 33 -168 -1q-25 -5 -45 45q-8 22 6 44t80 108q-117 54 -112 188q5 106 77 302t154 288q38 42 64 42t102 -44q41 15 81 15q79 0 79 -56q0 -155 -43 -250q-18 -39 -65 -13t-47 46q0 9 13 19q69 194 -14 194l-31 5
q-35 0 -89 -70t-112 -223q-59 -153 -59 -268z" />
    <glyph glyph-name="egrave" unicode="&#xe8;" horiz-adv-x="600" 
d="M446 727q0 39 -14 39t-35 -16q-98 -79 -172 -277q19 -3 85 -6q132 -6 139 136q-3 -51 -3 124zM360 410q-60 0 -155 22q-17 -31 -41 -133t-23 -190q1 -52 33 -52q12 0 31 6q116 41 323 250q13 13 26 13q19 0 19 -18q0 -11 -10 -23q-243 -311 -342 -311q-47 0 -119 65
q-75 35 -75 94q0 11 2 23q18 137 73 303q-37 19 -37 35q1 16 19 15q18 0 35 -9q151 340 243 340q17 0 84 -29q-5 30 17 35h47q43 0 43 -15l-6 -43l2 -160q0 -124 -65 -171q-64 -47 -124 -47zM558 994q0 -22 -21 -22q-14 0 -27 17q-71 89 -131 135t-94 47q-34 0 -34 27
q0 6 9 10l57 27q19 8 39 8t51 -33q104 -109 148 -202q3 -7 3 -14z" />
    <glyph glyph-name="eacute" unicode="&#xe9;" horiz-adv-x="600" 
d="M446 727q0 39 -14 39t-35 -16q-98 -79 -172 -277q19 -3 85 -6q132 -6 139 136q-3 -51 -3 124zM360 410q-60 0 -155 22q-17 -31 -41 -133t-23 -190q1 -52 33 -52q12 0 31 6q116 41 323 250q13 13 26 13q19 0 19 -18q0 -11 -10 -23q-243 -311 -342 -311q-47 0 -119 65
q-75 35 -75 94q0 11 2 23q18 137 73 303q-37 19 -37 35q1 16 19 15q18 0 35 -9q151 340 243 340q17 0 84 -29q-5 30 17 35h47q43 0 43 -15l-6 -43l2 -160q0 -124 -65 -171q-64 -47 -124 -47zM698 1198q0 -27 -34 -27q-34 1 -94 -47t-130 -135q-12 -17 -30 -17t-18 22
q0 7 3 14q43 93 147 202q32 33 52 33t38 -8l58 -27q8 -4 8 -10z" />
    <glyph glyph-name="ecircumflex" unicode="&#xea;" horiz-adv-x="600" 
d="M446 727q0 39 -14 39t-35 -16q-98 -79 -172 -277q19 -3 85 -6q132 -6 139 136q-3 -51 -3 124zM360 410q-60 0 -155 22q-17 -31 -41 -133t-23 -190q1 -52 33 -52q12 0 31 6q116 41 323 250q13 13 26 13q19 0 19 -18q0 -11 -10 -23q-243 -311 -342 -311q-47 0 -119 65
q-75 35 -75 94q0 11 2 23q18 137 73 303q-37 19 -37 35q1 16 19 15q18 0 35 -9q151 340 243 340q17 0 84 -29q-5 30 17 35h47q43 0 43 -15l-6 -43l2 -160q0 -124 -65 -171q-64 -47 -124 -47zM726 988q0 -10 -42 -27t-56 -17q-30 0 -118 195q-3 10 -37 -13q-90 -68 -215 -157
q-35 -22 -45 -22q-10 -1 -16 19t-6 30q0 19 36 26q45 3 246 160q17 14 27 36t40 32t35 -7q17 -66 55 -141t68 -96q28 -8 28 -18z" />
    <glyph glyph-name="edieresis" unicode="&#xeb;" horiz-adv-x="600" 
d="M446 727q0 39 -14 39t-35 -16q-98 -79 -172 -277q19 -3 85 -6q132 -6 139 136q-3 -51 -3 124zM360 410q-60 0 -155 22q-17 -31 -41 -133t-23 -190q1 -52 33 -52q12 0 31 6q116 41 323 250q13 13 26 13q19 0 19 -18q0 -11 -10 -23q-243 -311 -342 -311q-47 0 -119 65
q-75 35 -75 94q0 11 2 23q18 137 73 303q-37 19 -37 35q1 16 19 15q18 0 35 -9q151 340 243 340q17 0 84 -29q-5 30 17 35h47q43 0 43 -15l-6 -43l2 -160q0 -124 -65 -171q-64 -47 -124 -47zM350 942q-14 0 -29 18q-16 18 -17 30t5 9q31 82 45 199q2 19 15 41q5 1 47 -45
q32 -35 -10 -144q-42 -108 -56 -108zM561 943q-3 0 -6 1q-35 21 -37 39t4 18q34 89 41 153t19 85q5 1 47 -45q12 -14 15 -42q4 -28 -32 -118t-51 -91z" />
    <glyph glyph-name="igrave" unicode="&#xec;" horiz-adv-x="389" 
d="M294 335q8 -1 8 -13t-70 -122t-90 -160t-28 -56q-6 -6 -23 -7q-17 0 -54 18t-37 26t10 26q58 107 126 335t68 324q0 25 -9 25t-33 -22l-62 -58q-17 -16 -25 -16q-8 -1 -8 11t59 88q60 76 78 76t50 -22l51 -15q23 -11 23 -53q0 -83 -129 -489q32 28 59 66q28 38 36 38z
M386 994q0 -22 -21 -22q-14 0 -27 17q-71 89 -131 135t-94 47q-34 0 -34 27q0 6 9 10l57 27q19 8 39 8t51 -33q104 -109 148 -202q3 -7 3 -14z" />
    <glyph glyph-name="iacute" unicode="&#xed;" horiz-adv-x="389" 
d="M294 335q8 -1 8 -13t-70 -122t-90 -160t-28 -56q-6 -6 -23 -7q-17 0 -54 18t-37 26t10 26q58 107 126 335t68 324q0 25 -9 25t-33 -22l-62 -58q-17 -16 -25 -16q-8 -1 -8 11t59 88q60 76 78 76t50 -22l51 -15q23 -11 23 -53q0 -83 -129 -489q32 28 59 66q28 38 36 38z
M494 1198q0 -27 -34 -27q-34 1 -94 -47t-130 -135q-12 -17 -30 -17t-18 22q0 7 3 14q43 93 147 202q32 33 52 33t38 -8l58 -27q8 -4 8 -10z" />
    <glyph glyph-name="icircumflex" unicode="&#xee;" horiz-adv-x="389" 
d="M294 335q8 -1 8 -13t-70 -122t-90 -160t-28 -56q-6 -6 -23 -7q-17 0 -54 18t-37 26t10 26q58 107 126 335t68 324q0 25 -9 25t-33 -22l-62 -58q-17 -16 -25 -16q-8 -1 -8 11t59 88q60 76 78 76t50 -22l51 -15q23 -11 23 -53q0 -83 -129 -489q32 28 59 66q28 38 36 38z
M542 988q0 -10 -42 -27t-56 -17q-30 0 -118 195q-3 10 -37 -13q-90 -68 -215 -157q-35 -22 -45 -22q-10 -1 -16 19t-6 30q0 19 36 26q45 3 246 160q17 14 27 36t40 32t35 -7q17 -66 55 -141t68 -96q28 -8 28 -18z" />
    <glyph glyph-name="idieresis" unicode="&#xef;" horiz-adv-x="389" 
d="M256 1156q0 -18 -30 -116t-52 -98q-16 0 -30 21t-15 29q1 8 3 8t3 -1q32 87 45 199q2 18 15 41q19 -3 40 -35t21 -48zM342 992q0 8 6 9q34 89 41 153t19 85q10 -1 36 -30t25 -49q0 -20 -26 -105q-26 -86 -52 -110q-1 -2 -5 -2t-5 1q-39 24 -39 48zM294 335q8 -1 8 -13
t-70 -122t-90 -160t-28 -56q-6 -6 -23 -7q-17 0 -54 18t-37 26t10 26q58 107 126 335t68 324q0 25 -9 25t-33 -22l-62 -58q-17 -16 -25 -16q-8 -1 -8 11t59 88q60 76 78 76t50 -22l51 -15q23 -11 23 -53q0 -83 -129 -489q32 28 59 66q28 38 36 38z" />
    <glyph glyph-name="eth" unicode="&#xf0;" horiz-adv-x="713" 
d="M194 1428q0 13 17 22q55 31 107 59t79 25q32 -8 54 -37q56 -75 120 -260q123 39 136 66q7 14 20 14t13 -17t-6 -53t-18 -47t-64 -23t-56 -12q51 -181 76 -366q73 -45 73 -63t-61 -70v-33q-4 -93 -44 -236q-64 -232 -183 -360q-63 -68 -140 -68q-30 0 -77 13
q-94 6 -156 62t-57 154t77 296t154 290q38 44 68 44t106 -70q78 28 98 28t31 -8q-16 164 -74 357q-125 -34 -151.5 -45.5t-32.5 -32.5t-17 -21q-12 0 -10 48t11 68q9 18 57 26t119 28q-10 26 -31 76q-64 139 -136 139l-74 -14q-28 0 -28 21zM574 686q0 32 -25 32
q-14 0 -111 -32q-96 -32 -102 -33q-6 0 -14 19q-58 -71 -116 -225t-57 -270q0 -154 95 -150q129 3 248 272q82 185 82 387z" />
    <glyph glyph-name="ntilde" unicode="&#xf1;" horiz-adv-x="860" 
d="M576 -29q-20 -1 -58 15q-37 16 -37 32q0 7 13 31q65 132 118 334t45 311q-1 44 -17 44t-42 -25q-252 -246 -436 -658q-23 -51 -54 -51q-22 0 -58 17t-36 23t34 82t94 278q59 203 64 280q4 77 2 77t-55 -53t-68 -53q-15 -1 -15 9q0 12 123 157q15 17 35 17t38 -35
q81 -24 76 -74q-11 -110 -113 -397q67 129 212 310t217 181q13 0 42 -22q82 -29 82 -97t-30 -210t-54 -213q29 37 74 96q8 10 16 10q15 0 15 -19q0 -6 -2 -12q-60 -91 -156 -264q-17 -45 -33 -83t-36 -38zM374 1004q-14 0 -34 24t-10 39q34 42 90 95t70 50q44 -8 129 -104
q42 -39 90 -53q32 -7 115 90q2 21 16 21t31 -21t17 -33t-76 -84t-89 -70q-46 10 -129 103q-50 45 -84 53t-122 -88q0 -22 -14 -22z" />
    <glyph glyph-name="ograve" unicode="&#xf2;" horiz-adv-x="713" 
d="M576 689q0 42 -26 42q-10 0 -26 -4l-155 -63q-27 -11 -33 -11t-14 19q-58 -71 -116 -225t-57 -270q0 -154 95 -150q38 1 82 30q84 57 156 223t87 324q7 67 7 85zM570 806q37 0 85 -73q31 -45 29 -117t-43 -219q-65 -232 -184 -360q-63 -68 -140 -68q-30 0 -77 13
q-94 6 -156 62t-57 154t77 296t154 290q38 44 68 44t106 -70q101 48 138 48zM579 994q0 -22 -21 -22q-14 0 -27 17q-71 89 -131 135t-94 47q-34 0 -34 27q0 6 9 10l57 27q18 8 38 8t52 -33q104 -109 148 -202q3 -7 3 -14z" />
    <glyph glyph-name="oacute" unicode="&#xf3;" horiz-adv-x="713" 
d="M576 689q0 42 -26 42q-10 0 -26 -4l-155 -63q-27 -11 -33 -11t-14 19q-58 -71 -116 -225t-57 -270q0 -154 95 -150q38 1 82 30q84 57 156 223t87 324q7 67 7 85zM570 806q37 0 85 -73q31 -45 29 -117t-43 -219q-65 -232 -184 -360q-63 -68 -140 -68q-30 0 -77 13
q-94 6 -156 62t-57 154t77 296t154 290q38 44 68 44t106 -70q101 48 138 48zM748 1198q0 -27 -34 -27q-34 1 -94 -47t-130 -135q-12 -17 -30 -17t-18 22q0 7 3 14q43 93 147 202q32 33 52 33t38 -8l58 -27q8 -4 8 -10z" />
    <glyph glyph-name="ocircumflex" unicode="&#xf4;" horiz-adv-x="713" 
d="M576 689q0 42 -26 42q-10 0 -26 -4l-155 -63q-27 -11 -33 -11t-14 19q-58 -71 -116 -225t-57 -270q0 -154 95 -150q38 1 82 30q84 57 156 223t87 324q7 67 7 85zM570 806q37 0 85 -73q31 -45 29 -117t-43 -219q-65 -232 -184 -360q-63 -68 -140 -68q-30 0 -77 13
q-94 6 -156 62t-57 154t77 296t154 290q38 44 68 44t106 -70q101 48 138 48zM769 988q1 -10 -41 -27t-57 -17q-30 0 -118 195q-3 10 -37 -13q-90 -68 -215 -157q-35 -22 -45 -22q-10 -1 -16 19t-6 30q0 19 36 26q45 3 246 160q18 14 28 36t40 32t34 -7q16 -66 54 -141
t69 -96q28 -8 28 -18z" />
    <glyph glyph-name="otilde" unicode="&#xf5;" horiz-adv-x="713" 
d="M576 689q0 42 -26 42q-10 0 -26 -4l-155 -63q-27 -11 -33 -11t-14 19q-58 -71 -116 -225t-57 -270q0 -154 95 -150q38 1 82 30q84 57 156 223t87 324q7 67 7 85zM570 806q37 0 85 -73q31 -45 29 -117t-43 -219q-65 -232 -184 -360q-63 -68 -140 -68q-30 0 -77 13
q-94 6 -156 62t-57 154t77 296t154 290q38 44 68 44t106 -70q101 48 138 48zM287 1004q-15 0 -35 24t-9 39q33 42 89 95t71 50q44 -8 129 -104q42 -39 90 -53q32 -7 115 90q1 21 15 21t32 -21q17 -21 17 -33t-76 -84t-89 -70q-46 10 -129 103q-49 45 -83 53t-123 -88
q0 -22 -14 -22z" />
    <glyph glyph-name="odieresis" unicode="&#xf6;" horiz-adv-x="713" 
d="M576 689q0 42 -26 42q-10 0 -26 -4l-155 -63q-27 -11 -33 -11t-14 19q-58 -71 -116 -225t-57 -270q0 -154 95 -150q38 1 82 30q84 57 156 223t87 324q7 67 7 85zM570 806q37 0 85 -73q31 -45 29 -117t-43 -219q-65 -232 -184 -360q-63 -68 -140 -68q-30 0 -77 13
q-94 6 -156 62t-57 154t77 296t154 290q38 44 68 44t106 -70q101 48 138 48zM390 942q-14 0 -30 18t-17 30t5 9q31 82 45 199q2 19 15 41q5 1 47 -45q32 -35 -10 -144q-41 -108 -55 -108zM600 943q-3 0 -6 1q-35 21 -37 39t4 18q34 89 41 153t19 85q5 1 47 -45
q12 -14 15 -42t-33 -118t-50 -91z" />
    <glyph glyph-name="divide" unicode="&#xf7;" horiz-adv-x="868" 
d="M497 303q0 -13 -18 -55q-29 -70 -90 -70t-66 17q-4 11 9 14q10 21 26 83t34 62t62 -16t43 -35zM571 741q0 -13 -18 -55q-29 -69 -90 -69t-66 13.5t9 16.5q9 21 25 83q17 62 35 62t62 -15t43 -36zM768 537q0 -15 -14 -52.5t-26 -48.5t-52 -8q-220 14 -366 14t-154 -15
t-26 -11t-14 18t15 72q8 44 96 35q160 -16 400 -19q92 -1 101 16q8 18 24 16t16 -17z" />
    <glyph glyph-name="oslash" unicode="&#xf8;" horiz-adv-x="713" 
d="M149 161q0 -62 29 -102l299 650q-45 -19 -97 -41t-58 4q-113 -140 -162 -393q-11 -56 -11 -118zM569 604q9 82 6 101q-4 28 -32 24l-326 -698q45 -17 119 33t146 217q72 166 87 323zM317 -31q-30 0 -77 13q-22 0 -43 6l-39 -92q-19 -45 8 -66q6 -6 2 -16t-17 -4
q-12 4 -55 30q-14 9 13 68l43 94q-130 51 -125 188q5 106 77 304t154 290q38 44 68 44t106 -70q26 14 86 37l29 67q18 43 -8 66q-8 5 -2.5 15t15.5 6t54 -31q14 -9 -10 -68l-18 -45q32 -3 70 -61t36 -128q-2 -72 -43 -219q-65 -232 -184 -360q-63 -68 -140 -68z" />
    <glyph glyph-name="ugrave" unicode="&#xf9;" horiz-adv-x="813" 
d="M692 284q13 0 13 -19q1 -7 -33 -83t-50 -140t-36 -65q-20 0 -78 39q-31 22 -21 78q42 218 101 379q-193 -314 -324 -463q-29 -33 -60 -33t-69 23q-69 12 -69 72q0 11 2 24q25 286 104 475q-63 -59 -71 -53t3 23q54 79 74 131t47 84q25 32 49 32t57 -20t33 -30l-22 -33
q-50 -76 -108 -276t-60 -331q0 -43 17 -43q17 -1 73 59t194 274t174 296t59 97t37 15t54 -21t40 -31q0 -3 -7 -8t-10 -11q-133 -247 -199 -580q28 49 68 125q5 14 18 14zM642 994q0 -22 -21 -22q-14 0 -27 17q-71 89 -131 135t-94 47q-34 0 -34 27q0 6 9 10l57 27q19 8 39 8
t51 -33q104 -109 148 -202q3 -7 3 -14z" />
    <glyph glyph-name="uacute" unicode="&#xfa;" horiz-adv-x="813" 
d="M692 284q13 0 13 -19q1 -7 -33 -83t-50 -140t-36 -65q-20 0 -78 39q-31 22 -21 78q42 218 101 379q-193 -314 -324 -463q-29 -33 -60 -33t-69 23q-69 12 -69 72q0 11 2 24q25 286 104 475q-63 -59 -71 -53t3 23q54 79 74 131t47 84q25 32 49 32t57 -20t33 -30l-22 -33
q-50 -76 -108 -276t-60 -331q0 -43 17 -43q17 -1 73 59t194 274t174 296t59 97t37 15t54 -21t40 -31q0 -3 -7 -8t-10 -11q-133 -247 -199 -580q28 49 68 125q5 14 18 14zM768 1198q0 -27 -34 -27q-34 1 -94 -47t-130 -135q-12 -17 -30 -17t-18 22q0 7 3 14q43 93 147 202
q32 33 52 33t38 -8l58 -27q8 -4 8 -10z" />
    <glyph glyph-name="ucircumflex" unicode="&#xfb;" horiz-adv-x="813" 
d="M692 284q13 0 13 -19q1 -7 -33 -83t-50 -140t-36 -65q-20 0 -78 39q-31 22 -21 78q42 218 101 379q-193 -314 -324 -463q-29 -33 -60 -33t-69 23q-69 12 -69 72q0 11 2 24q25 286 104 475q-63 -59 -71 -53t3 23q54 79 74 131t47 84q25 32 49 32t57 -20t33 -30l-22 -33
q-50 -76 -108 -276t-60 -331q0 -43 17 -43q17 -1 73 59t194 274t174 296t59 97t37 15t54 -21t40 -31q0 -3 -7 -8t-10 -11q-133 -247 -199 -580q28 49 68 125q5 14 18 14zM816 988q0 -10 -42 -27t-56 -17q-30 0 -118 195q-3 10 -37 -13q-90 -68 -215 -157q-35 -22 -45 -22
q-10 -1 -16 19t-6 30q0 19 36 26q45 3 246 160q17 14 27 36t40 32t35 -7q17 -66 55 -141t68 -96q28 -8 28 -18z" />
    <glyph glyph-name="udieresis" unicode="&#xfc;" horiz-adv-x="813" 
d="M692 284q13 0 13 -19q1 -7 -33 -83t-50 -140t-36 -65q-20 0 -78 39q-31 22 -21 78q42 218 101 379q-193 -314 -324 -463q-29 -33 -60 -33t-69 23q-69 12 -69 72q0 11 2 24q25 286 104 475q-63 -59 -71 -53t3 23q54 79 74 131t47 84q25 32 49 32t57 -20t33 -30l-22 -33
q-50 -76 -108 -276t-60 -331q0 -43 17 -43q17 -1 73 59t194 274t174 296t59 97t37 15t54 -21t40 -31q0 -3 -7 -8t-10 -11q-133 -247 -199 -580q28 49 68 125q5 14 18 14zM450 942q-14 0 -29 18q-16 18 -17 30t5 9q31 82 45 199q2 19 15 41q5 1 47 -45q32 -35 -10 -144
q-42 -108 -56 -108zM661 943q-3 0 -6 1q-35 21 -37 39t4 18q34 89 41 153t19 85q5 1 47 -45q12 -14 15 -42q4 -28 -32 -118t-51 -91z" />
    <glyph glyph-name="yacute" unicode="&#xfd;" horiz-adv-x="834" 
d="M-27 -885q-179 0 -385 195q-18 17 -18 36q0 30 28 30q14 0 27 -11q163 -139 291 -139q235 0 427 392q151 307 263 824q7 37 23 113q-105 -171 -233 -334q-200 -256 -263 -256q-19 0 -39 21q-21 27 -37 46q-16 18 -16 24v7q2 12 18 17q48 65 85 258q37 194 44 288t0 94
t-64 -48t-63 -47q-14 0 -14 14q-1 7 11 21t68 94t72 79q16 0 40 -12q51 8 57 8q34 0 34 -52q0 -87 -50 -341t-82 -327q100 79 258 307t196 342q2 67 29 67q21 0 78 -43q32 -24 18 -90q-139 -641 -261 -959q-236 -618 -542 -618zM760 1198q0 -27 -34 -27q-34 1 -94 -47
t-130 -135q-12 -17 -30 -17t-18 22q0 7 3 14q43 93 147 202q32 33 52 33t38 -8l58 -27q8 -4 8 -10z" />
    <glyph glyph-name="thorn" unicode="&#xfe;" horiz-adv-x="844" 
d="M620 827q18 0 62 -30q136 -48 127 -181q-13 -168 -87 -356q-115 -291 -225 -291q-46 0 -153 74q-21 14 -21 31t27 17l66 -14q72 1 126 87t102 238t42 272q-3 58 -37 58t-80 -44q-324 -310 -456 -741q-75 -245 -100 -454q-1 -7 -27 -347q-4 -49 -24 -49q-20 1 -68 43
q-46 42 -37 94q47 532 297 1312t415 1037q54 83 96 82t160 -76q16 -10 16 -20q0 -16 -23 -16l-44 5q-68 0 -129 -106q-221 -384 -414 -1063q147 240 342 412q29 26 47 26z" />
    <glyph glyph-name="ydieresis" unicode="&#xff;" horiz-adv-x="834" 
d="M-27 -885q-179 0 -385 195q-18 17 -18 36q0 30 28 30q14 0 27 -11q163 -139 291 -139q235 0 427 392q151 307 263 824q7 37 23 113q-105 -171 -233 -334q-200 -256 -263 -256q-19 0 -39 21q-21 27 -37 46q-16 18 -16 24v7q2 12 18 17q48 65 85 258q37 194 44 288t0 94
t-64 -48t-63 -47q-14 0 -14 14q-1 7 11 21t68 94t72 79q16 0 40 -12q51 8 57 8q34 0 34 -52q0 -87 -50 -341t-82 -327q100 79 258 307t196 342q2 67 29 67q21 0 78 -43q32 -24 18 -90q-139 -641 -261 -959q-236 -618 -542 -618zM434 942q-14 0 -29 18q-16 18 -17 30t5 9
q31 82 45 199q2 19 15 41q5 1 47 -45q32 -35 -10 -144q-42 -108 -56 -108zM645 943q-3 0 -6 1q-35 21 -37 39t4 18q34 89 41 153t19 85q5 1 47 -45q12 -14 15 -42q4 -28 -32 -118t-51 -91z" />
    <glyph glyph-name="dotlessi" unicode="&#x131;" horiz-adv-x="389" 
d="M294 335q8 -1 8 -13t-70 -122t-90 -160t-28 -56q-6 -6 -23 -7q-17 0 -54 18t-37 26t10 26q58 107 126 335t68 324q0 25 -9 25t-33 -22l-62 -58q-17 -16 -25 -16q-8 -1 -8 11t59 88q60 76 78 76t50 -22l51 -15q23 -11 23 -53q0 -83 -129 -489q32 28 59 66q28 38 36 38z
" />
    <glyph glyph-name="OE" unicode="&#x152;" horiz-adv-x="1692" 
d="M1026 1242q-81 0 -152 -73q-95 -97 -112 -440q-3 -48 -26 -48t-25.5 42.5t-2.5 86.5q0 241 72 458q-74 10 -110 -17q-112 -83 -266 -385t-142 -551q6 -99 38 -147t106 -88q74 -38 124 -38q48 0 82 11q-4 26 -4 45q0 53 31 69t106 19q46 34 125 162t113 223
q-50 87 -50 129t44 57q44 10 88 19q43 103 76.5 231.5t33.5 166.5t-1 47q-114 21 -148 21zM1286 1107q0 -61 -84 -300q216 20 296 14t93 -37q2 -3 11 -69q4 -35 -30 -49q-8 -4 -55 -14t-65 -10t-33 28t-37 28q-126 0 -223 -10q-33 -92 -117 -254t-137 -227q392 0 596 -23
q39 -4 43 41t32 41t56 -135q2 -7 2 -21t-19.5 -34.5t-38 -41.5t-38.5 -21q8 0 -72 18q-257 58 -454 58q-99 0 -207 -11q-63 -63 -119 -88q-56 -24 -128 -26q-74 -2 -120 12t-46 32q0 4 1 6q-137 35 -203 100t-61 208q10 289 173 618q131 265 253 379q50 47 94 47
q77 0 168 -43q41 52 174 52q133 -1 381 -63q247 -62 314 -67q50 66 73 62q35 -6 27 -109q-3 -36 -8 -41t-42 -23t-89 -6q-5 2 -7 2q3 -1 5 -2q-1 0 -72 20t-303 58q16 -38 16 -99z" />
    <glyph glyph-name="oe" unicode="&#x153;" horiz-adv-x="1036" 
d="M549 502q28 98 28 202q0 38 -27 37q-16 0 -26 -4l-155 -63q-27 -11 -33 -11t-14 19q-75 -95 -124 -249t-49 -250q0 -146 91 -146q66 1 146 85t157 337q-41 21 -41 39q0 12 16 12t31 -8zM753 466q122 0 133 131q-1 145 -4 158q-2 13 -20 13t-70 -62t-118 -231q57 -9 79 -9
zM985 769q0 -23 2 -69v-12q1 -55 1 -62q0 -116 -64 -166t-137 -50q-29 0 -128 22q-81 -158 -81 -310q0 -65 32 -65q79 0 271 174q55 50 77 73t38 23t15 -14q0 -14 -42 -68q-205 -269 -309 -269q-29 0 -69 27t-57 45t-51 30l-15 -18q-6 -7 -20 -24q-14 -16 -54 -36t-72 -20
t-82 12q-79 7 -130 42q-83 57 -83 160q0 104 74 304t157 297q36 43 66 43t108 -70q98 49 138 49t98 -96q86 120 132 120q17 0 85 -28q-1 5 -1 17t16 18h47q43 -1 43 -16v-2q-5 -38 -5 -61z" />
    <glyph glyph-name="Scaron" unicode="&#x160;" horiz-adv-x="1120" 
d="M995 303q0 -181 -184 -291q-53 -83 -137 -82q-149 2 -319 124q-171 122 -229 222t-58 128t44 66t66 38q24 0 24 -30q0 -13 -5 -32q53 -144 224 -268t310 -123q123 1 123 168q0 91 -144 367t-143 395q1 78 41 134t133 126q17 13 34 13q27 0 27 -23q0 -16 -18 -33
q-77 -73 -77 -184t144 -380t144 -335zM1132 938q-26 0 -92 43q-20 13 -20 27q0 21 35 30q26 8 58 89t32 127t-37 46q-45 0 -130 -31q-86 -31 -107 -31t-21 20t31 34q112 56 184 82t87 25q23 0 60 -64q56 -17 74 -27t17 -34q0 -23 -9 -53q-39 -137 -106 -238q-30 -45 -56 -45
zM1449 1695q0 -18 -36 -26q-45 -3 -246 -159q-17 -14 -27 -36t-40 -32t-35 6q-17 66 -55 142t-68 96q-28 7 -28 17t42 27t56 17q30 0 118 -194q3 -11 37 12q90 68 215 158q35 21 45 21t16 -20t6 -29z" />
    <glyph glyph-name="scaron" unicode="&#x161;" horiz-adv-x="500" 
d="M240 220q0 49 -62 206t-59 209q8 125 231 174q22 5 22 -16q0 -12 -16 -19q-108 -47 -108 -116q0 -46 54 -210q54 -163 54 -221q3 -120 -133 -164q-17 -42 -36 -62q-33 -35 -109 -24q-76 12 -162 25q-24 4 -29 29q3 27 65 32t201 25q52 12 74 59q13 24 13 73zM485 844
q31 0 31 -44t-16 -110t-25 -74q-8 -8 -41 -20t-42 -12q-15 0 -15 16t14 74q15 58 9 96t22 49q49 25 63 25zM761 1197q0 -18 -36 -26q-45 -3 -246 -159q-17 -14 -27 -36t-40 -32t-35 6q-17 66 -55 142t-68 96q-28 7 -28 17t42 27t56 17q30 0 118 -194q3 -11 37 12
q90 68 215 158q35 21 45 21t16 -20t6 -29z" />
    <glyph glyph-name="Ydieresis" unicode="&#x178;" horiz-adv-x="1366" 
d="M288 768q-22 0 -44 35q-93 145 -93 206q0 78 109 115q194 60 488 162q44 78 86 78t124 -74q14 -12 14 -22q0 -22 -89 -43q-119 -167 -197 -419t-78 -397q0 -144 77 -144q37 0 75 38q355 357 618 907q26 102 66 102q29 0 72 -48q13 -16 13 -35q0 -49 -122 -223
q-28 -71 -189 -599t-237 -632q-35 -49 -81 -49q-68 0 -261 137q-22 16 -22 31q0 23 33 23q12 1 71 -23t86 -24q56 0 98 77q184 333 326 839q-190 -334 -414 -563q-59 -61 -95 -61t-79 45q-115 70 -141 103t-23 147q6 217 203 702q-240 -89 -352 -176q-53 -41 -53 -80
l34 -119q-1 -16 -23 -16zM1106 1434q-14 0 -29 18q-16 18 -17 30t5 9q31 82 45 199q2 19 15 41q5 1 47 -45q32 -35 -10 -144q-42 -108 -56 -108zM1317 1435q-3 0 -6 1q-35 21 -37 39t4 18q34 89 41 153t19 85q5 1 47 -45q12 -14 15 -42q4 -28 -32 -118t-51 -91z" />
    <glyph glyph-name="florin" unicode="&#x192;" horiz-adv-x="1135" 
d="M1270 1011q-15 0 -35 7q-65 21 -65 51q0 17 28 25q56 76 78 225q10 69 -77 69q-36 0 -66 -18q-181 -108 -414 -563q129 3 150 6t35 21t25 19q12 0 12 -15t-18 -58t-34 -56q-16 -12 -78 -10t-141 5q-22 -44 -66 -135q125 0 155 6q29 6 43 24q14 16 26 16t12 -14t-18 -58
q-18 -42 -34 -54t-97 -10q-82 2 -128 2q-204 -437 -278 -713q-25 -91 -39 -102t-74 -23t-71 -13q-22 0 -22 22q-1 11 7 57t8 152t-22 114q-30 5 -33 28.5t58 33.5t81 10q41 0 45 -60q56 167 205 498h-122q-93 -5 -109 -35q-9 -15 -18 -15t-9 13t14 55t26 61q14 18 46 15
q200 -21 211 -10q42 88 68 137q-144 0 -126 1q-95 -5 -112 -36q-8 -15 -18 -15q-17 1 1 57t32 74t46 15q-11 0 33 -5t184 -7q271 530 441 647q61 42 96 42q57 0 176 -91q85 -23 108 -35t23 -32t-4 -40q-25 -130 -76 -227q-29 -58 -69 -58z" />
    <glyph glyph-name="circumflex" unicode="&#x2c6;" 
d="M714 988q0 -10 -42 -27t-56 -17q-30 0 -118 195q-3 10 -37 -13q-90 -68 -215 -157q-35 -22 -45 -22.5t-16 19.5t-6 30q0 19 36 26q45 3 246 160q17 14 27 36t40 32t35 -7q16 -66 54.5 -141t68.5 -96q28 -8 28 -18z" />
    <glyph glyph-name="caron" unicode="&#x2c7;" 
d="M804 1197q0 -18 -36 -26q-45 -3 -246 -159q-18 -14 -28 -36t-40 -32t-34 6q-16 66 -54.5 141.5t-68.5 96.5q-28 7 -28 17q-1 10 41 27t57 17q30 0 118 -194q3 -11 37 12q90 68 215 158q35 21 45 21t16 -19.5t6 -29.5z" />
    <glyph glyph-name="macron" unicode="&#x2c9;" 
d="M737 1140q1 -18 -13 -56t-24 -44q-10 -7 -26 -7q-17 -1 -101 7t-195 8t-132 -4q-20 -4 -30 -15t-21 -9t-12 10q-1 6 3 22t6 42q4 26 10 35q14 22 58 19q7 0 102 -10q96 -10 196 -10t118 4t28 15q10 12 19 12q14 -1 14 -19z" />
    <glyph glyph-name="breve" unicode="&#x2d8;" 
d="M463 1033q69 1 111 43t75 118q11 26 27 26t26 -10q24 -23 6 -72q-18 -50 -66 -106t-144 -56q-58 0 -101 30q-117 9 -121 127q-2 87 56 98q22 4 22 -19q0 -29 4 -51q24 -128 105 -128z" />
    <glyph glyph-name="dotaccent" unicode="&#x2d9;" 
d="M459 943q-3 0 -6 1q-51 28 -54 45q0 12 7 12q34 85 44 151t21 87q16 3 61 -45q41 -30 -7.5 -140.5t-65.5 -110.5z" />
    <glyph glyph-name="ring" unicode="&#x2da;" 
d="M586 1173q0 17 34 -9t33 -56q0 -30 -66 -90t-112 -71t-92 18q-9 5 -16 14q-58 50 -58 86q-1 17 15 43t85.5 78t106.5 52q21 0 47 -64q6 -10 -9 -10q-7 0 -12 7t-28 0q-54 -16 -117 -92q-27 -33 -27 -56q0 -34 42 -34q76 0 170 117q24 29 14 45t-10 22z" />
    <glyph glyph-name="ogonek" unicode="&#x2db;" 
d="M118 -259q0 -27 29 -40q9 -4 21 -4q72 0 225 119q33 25 33 -2q0 -12 -10 -27q-66 -94 -166 -166q-43 -30 -117 39q-101 57 -101 137q0 29 13 67t72 93.5t104 69.5l29 -7q-30 -36 -81 -144t-51 -135z" />
    <glyph glyph-name="tilde" unicode="&#x2dc;" 
d="M224 1004q-14 0 -34 24t-10 39q34 42 90 95t70 50q44 -8 129 -104q42 -39 90 -53q32 -7 115 90q2 21 16 21t31 -21t17 -33t-76 -84t-89 -70q-46 10 -129 103q-50 45 -84 53t-122 -88q0 -22 -14 -22z" />
    <glyph glyph-name="hungarumlaut" unicode="&#x2dd;" 
d="M842 1198q0 -27 -34 -27q-34 1 -94 -47t-130 -135q-14 -17 -28 -17q-21 0 -21 22q0 7 4 14q43 93 147 202q32 33 52 33t38 -8l58 -27q8 -4 8 -10zM615 1198q0 -27 -34 -27q-34 1 -95 -47t-130 -135q-12 -17 -30 -17t-18 22q0 7 3 14q44 93 148 202q31 33 51 33t39 -8
l57 -27q9 -4 9 -10z" />
    <glyph glyph-name="uni0394" unicode="&#x394;" horiz-adv-x="1163" 
d="M32 69q0 16 42 19q32 50 265 336q314 381 355 500q6 7 45 43q4 43 16 70q35 73 133 107q16 6 28 6q30 0 30 -29q0 -20 -14 -50q-41 -89 -41 -359l6 -313v-133q2 -141 47 -207q-14 -21 -65 -57q-19 -6 -37 -6t-88 24q-60 -3 -127 -3l-291 5q-149 0 -250 -12q-54 38 -54 59
zM763 382q0 180 17 492q-91 -143 -321 -448t-252 -336q51 2 279 20t292 23q-15 69 -15 249z" />
    <glyph glyph-name="uni0394" unicode="&#x2206;" horiz-adv-x="1163" 
d="M32 69q0 16 42 19q32 50 265 336q314 381 355 500q6 7 45 43q4 43 16 70q35 73 133 107q16 6 28 6q30 0 30 -29q0 -20 -14 -50q-41 -89 -41 -359l6 -313v-133q2 -141 47 -207q-14 -21 -65 -57q-19 -6 -37 -6t-88 24q-60 -3 -127 -3l-291 5q-149 0 -250 -12q-54 38 -54 59
zM763 382q0 180 17 492q-91 -143 -321 -448t-252 -336q51 2 279 20t292 23q-15 69 -15 249z" />
    <glyph glyph-name="Ohm" unicode="&#x3a9;" horiz-adv-x="1239" 
d="M1040 1355q58 0 103 -57q73 -4 97 -52q32 -64 31 -204q0 -271 -165 -583.5t-328 -362.5q167 0 215 17t135 100q10 9 21 9q18 0 18 -20q0 -30 -86 -150q-45 -63 -101 -63q-22 1 -108 11t-268 10q10 25 24 52t38 36q139 54 304 366t165 593q0 58 -9 110q-13 83 -71 83
q-103 0 -305 -183q-24 -21 -41 -22t-17 20t45 79t99 108t112 76q60 26 92 27zM485 104q0 -18 -16 -52q-16 -36 -16 -38q-326 13 -424 -39q-33 -17 -37 -17t-1 52t25 82q21 30 39 31q51 3 161 -5t151 -9q-180 125 -191 323q-1 23 -1 45q0 252 144 526q110 208 232 320
q51 47 97 47t136 -67q24 -18 24 -31q0 -38 -53 -13t-91 -4q-112 -82 -230 -308q-145 -278 -133 -525q10 -212 166 -291q18 -9 18 -27z" />
    <glyph glyph-name="Ohm" unicode="&#x2126;" horiz-adv-x="1239" 
d="M1040 1355q58 0 103 -57q73 -4 97 -52q32 -64 31 -204q0 -271 -165 -583.5t-328 -362.5q167 0 215 17t135 100q10 9 21 9q18 0 18 -20q0 -30 -86 -150q-45 -63 -101 -63q-22 1 -108 11t-268 10q10 25 24 52t38 36q139 54 304 366t165 593q0 58 -9 110q-13 83 -71 83
q-103 0 -305 -183q-24 -21 -41 -22t-17 20t45 79t99 108t112 76q60 26 92 27zM485 104q0 -18 -16 -52q-16 -36 -16 -38q-326 13 -424 -39q-33 -17 -37 -17t-1 52t25 82q21 30 39 31q51 3 161 -5t151 -9q-180 125 -191 323q-1 23 -1 45q0 252 144 526q110 208 232 320
q51 47 97 47t136 -67q24 -18 24 -31q0 -38 -53 -13t-91 -4q-112 -82 -230 -308q-145 -278 -133 -525q10 -212 166 -291q18 -9 18 -27z" />
    <glyph glyph-name="pi" unicode="&#x3c0;" horiz-adv-x="870" 
d="M329 274q4 -2 4 -24t-41 -132q-40 -110 -56 -110t-64 39q-25 21 -16 70q37 203 151 588q-26 2 -74 2t-77.5 -20.5t-63.5 -84.5q-12 -24 -26 -24t-14 20t59 162q19 35 37 47t73 12l121 -4q1 2 3.5 14t15.5 12q14 0 34 -30q316 -18 436 -45q45 37 61 29q16 -7 17 -27
q0 -20 -39 -82q-20 -31 -48 -31t-74 11v-4q-17 -176 -103 -431q31 42 98 123q16 17 27 17t11 -14q1 -13 -35 -65t-132 -214q-8 -16 -39 -84q-13 -32 -37 -32t-74 35q-19 14 -7 44q173 433 182 643q-94 9 -240 16q-59 -212 -94 -407q-2 -26 7 -26z" />
    <glyph glyph-name="endash" unicode="&#x2013;" horiz-adv-x="909" 
d="M731 293q-182 0 -493 57q-41 8 -69 8q-29 0 -43 -20t-25 -20q-18 0 -18 16q-1 5 3 16t20 65t34 54q11 0 30 -4q305 -70 475 -72q63 -1 81 9t30 30t26 20q22 0 18 -19t-11 -71t-13 -60q-6 -9 -45 -9z" />
    <glyph glyph-name="emdash" unicode="&#x2014;" horiz-adv-x="2241" 
d="M194 358q-36 0 -55 -20t-38 -20t-19 17q0 4 5 15q5 10 23 58t23 54q3 6 21 7q18 0 43 -4q146 -26 801 -48t835 -23q180 -2 203 8t41 32q17 22 37 18t16 -21t-13 -69q-10 -52 -18 -60q-8 -9 -131 -9q-122 0 -842 20q-720 21 -808 33t-124 12z" />
    <glyph glyph-name="quoteleft" unicode="&#x2018;" horiz-adv-x="410" 
d="M485 1403q0 -27 -37 -157t-66 -167q-29 -36 -52 -45q-87 -30 -93 -20t21 61q81 150 127 305q-10 7 4 21q30 38 82 31q14 -2 14 -29z" />
    <glyph glyph-name="quoteright" unicode="&#x2019;" horiz-adv-x="410" 
d="M269 1036q0 26 37 156q38 130 66 166t54 45q85 31 91 21t-21 -62q-85 -160 -127 -305q7 -5 -2 -21q-34 -38 -82 -28q-16 1 -16 28z" />
    <glyph glyph-name="quotesinglbase" unicode="&#x201a;" horiz-adv-x="410" 
d="M-8 -160q0 27 35 155q35 127 65 165t55 47q86 29 92 20t-47 -109t-102 -257q7 -5 -2 -21q-30 -39 -82 -28q-14 1 -14 28z" />
    <glyph glyph-name="quotedblleft" unicode="&#x201c;" horiz-adv-x="633" 
d="M485 1403q0 -27 -37 -157t-66 -167q-29 -36 -52 -45q-88 -30 -94 -20t48 110t101 256q-10 7 4 21q30 38 82 31q14 -2 14 -29zM708 1402q0 -28 -34 -154t-78 -181q-20 -25 -74 -44t-60 -9t47 110t101 256q-11 8 2 21q30 38 82 31q14 -2 14 -30z" />
    <glyph glyph-name="quotedblright" unicode="&#x201d;" horiz-adv-x="633" 
d="M269 1035q0 27 37 157q38 130 66 166t54 45q85 31 91 21t-21 -62q-85 -160 -127 -305q7 -5 -2 -21q-34 -38 -84 -28q-14 1 -14 27zM494 1036q0 27 35 155q35 127 65 165t55 47q85 29 91 20t-47 -109t-101 -257q7 -5 -2 -21q-31 -39 -82 -28q-14 1 -14 28z" />
    <glyph glyph-name="quotedblbase" unicode="&#x201e;" horiz-adv-x="633" 
d="M-10 -161q0 27 37 157t65 166t55 45q86 31 92 21t-50 -116t-99 -251q7 -5 -2 -21q-34 -38 -84 -28q-14 1 -14 27zM215 -160q0 27 35 155t76 179q18 24 45 33q85 29 91 20t-47 -109t-102 -257q8 -5 -2 -21q-30 -39 -82 -28q-14 1 -14 28z" />
    <glyph glyph-name="dagger" unicode="&#x2020;" horiz-adv-x="780" 
d="M718 922q-74 0 -126 -2q-190 -495 -289 -986q31 31 41 31q24 -1 2 -27t-63 -94q-15 -44 -43 -24t-33 34t2 62q54 400 268 1002q-29 0 -131 -6t-120 28q-18 32 -17 74q0 10 12 10q13 0 25 -21t100 -17t162 11q137 349 221 430q52 50 103 8q18 -18 34 -32t16 -26
q0 -19 -22 -19l-29 9q-30 -1 -92 -117t-114 -246q57 4 166 8q76 2 92 -72q6 -29 8 -32q-4 -6 -33 -20q-30 -14 -48 10t-92 24zM892 911v-3v3z" />
    <glyph glyph-name="daggerdbl" unicode="&#x2021;" horiz-adv-x="780" 
d="M730 973q-71 0 -120 -2q-48 -126 -116 -330q61 3 196 8q77 3 92 -71q6 -30 8 -33q-4 -6 -33 -20q-29 -13 -47 10.5t-98 23.5t-145 -2q-104 -341 -164 -623q31 31 41 31q24 -1 2 -27t-63 -94q-15 -44 -43 -24t-32 34t1 62q31 235 151 637q-35 0 -94 -2q-123 -4 -140 27
t-17 73q0 10 12 10q11 1 23 -19t90 -17t149 8q66 217 115 336q-39 0 -142 -5t-121 27t-18 74q0 10 12 10q13 0 25 -21q12 -20 95 -16t179 11q123 303 201 378q52 50 103 8q18 -18 34 -32t16 -26q0 -19 -22 -19l-29 9q-45 0 -186 -310q90 5 160 7t86 -73q6 -29 8 -32
q-4 -6 -33 -20q-30 -13 -47.5 10.5t-88.5 23.5zM790 545q1 1 1 3q0 -4 -1 -3zM900 962q0 -4 -1 -3q1 2 1 3z" />
    <glyph glyph-name="bullet" unicode="&#x2022;" horiz-adv-x="541" 
d="M487 683q0 -73 -51 -124t-124 -51t-124 51t-51 124t51 124t124 51t124 -51t51 -124z" />
    <glyph glyph-name="ellipsis" unicode="&#x2026;" horiz-adv-x="2048" 
d="M358 166q0 -24 -36 -107t-73 -84q10 0 -73 9q-12 1 -15 12t11 14q26 61 64 164q10 42 28 42t68 -17q26 -9 26 -33zM1040 164q0 -25 -36 -107t-73 -82q14 0 -71 9q-11 1 -15 12t9 14q49 110 62 158q12 48 30 48t68 -17q26 -10 26 -35zM1724 166q0 -24 -36 -107t-73 -84
q10 0 -73 9q-11 1 -15 12t9 14q49 110 62 158t31 48t69 -17q26 -9 26 -33zM249 -25h-1h1zM1615 -25h-1h1z" />
    <glyph glyph-name="perthousand" unicode="&#x2030;" horiz-adv-x="1720" 
d="M634 106q0 -96 60 -96q72 0 132 122t74 218t-5 96q-20 0 -104 -22q-42 -15 -48 -4q-72 -92 -102 -250q-7 -35 -7 -64zM307 957q0 -95 60 -95q72 0 132 120t79 247q6 44 2 57q-5 20 -117 -14q-43 -9 -47 -2q-73 -93 -103 -248q-6 -36 -6 -65zM1438 446q-8 0 -103 -22
q-38 -17 -45 -4q-77 -94 -104 -250q-6 -33 -6 -60q0 -100 61 -100q71 0 131 122t80 247q10 67 -14 67zM734 524q22 0 83 -53q79 37 100 37t56 -48t35 -84t-19 -93q-63 -195 -141 -269q-38 -35 -125 -39q-21 0 -39 7q-160 25 -162 137q-1 69 48 199t110 180q32 26 54 26z
M967 1420q9 0 20 -7l62 -41q27 -18 27 -44t-19 -62l-709 -1014q-135 -194 -135 -271l8 -40q0 -21 -17 -21q-10 0 -22 8l-61 43q-26 19 -26 47t24 64l723 1026q116 164 116 248l-10 43q0 21 19 21zM395 825q-21 0 -39 6q-160 26 -161 138q-1 67 48 197t109 180q34 27 56 27
t81 -52q79 37 101 37t56.5 -48t34.5 -83t-19 -94q-61 -189 -142 -267q-42 -41 -125 -41zM1067 119q-1 69 49 199t111 180q31 25 53 25t82 -52q80 37 102 37t56 -47t34 -81t-20 -97q-61 -195 -139 -269q-38 -35 -125 -39q-23 0 -39 7q-164 25 -164 137z" />
    <glyph glyph-name="guilsinglleft" unicode="&#x2039;" horiz-adv-x="543" 
d="M81 498q1 27 107 100t162 133q-2 19 -2 26q0 31 74 77q34 21 46 21t31.5 -30.5t19.5 -52.5t-58 -65q-62 -41 -189 -146q-48 -50 -48 -58t1 -11q146 -310 146 -380q-1 -36 -53 -67t-69 -31q-11 0 -11 14l12 75q0 144 -166 384q-3 5 -3 11z" />
    <glyph glyph-name="guilsinglright" unicode="&#x203a;" horiz-adv-x="543" 
d="M464 370q0 -26 -111 -103.5t-158 -131.5q3 -41 -9 -55t-56 -41t-54 -27t-30.5 31t-20.5 45q0 30 57 72q62 40 188 145q51 51 51 59t-43 94q-42 86 -74 178q-32 94 -32 126t52 62t67 30q14 0 14 -15l-12 -74q0 -134 168 -386q3 -4 3 -9z" />
    <glyph glyph-name="fraction" unicode="&#x2044;" horiz-adv-x="430" 
d="M721 1420q9 0 20 -7l62 -41q28 -18 28 -48t-20 -58l-709 -1014q-84 -120 -127 -225q-8 -21 -8 -44l8 -42q0 -21 -17 -21q-9 0 -21 8l-62 43q-26 17 -26 47t24 64l723 1026q116 165 116 247l-9 46q0 19 18 19z" />
    <glyph glyph-name="trademark" unicode="&#x2122;" horiz-adv-x="1802" 
d="M1686 788q36 83 53 83q10 0 10 -11q1 -12 -19 -58t-32 -134q-6 -42 -30 -42t-77 40q-28 21 -22 57q64 406 110 496q-169 -203 -309 -469q12 -38 12 -59t-30 -49t-37 -28t-28 36t-19 47t16 38q-38 143 -131 338q-51 -129 -131 -289q43 -48 43 -65q0 -12 -31 -17
q-73 -10 -112 -63q-5 -19 -22 -19t-60 37q-22 17 -2 35t92 68q110 185 182 389q-48 108 -127 117q-55 0 -199 -11q-91 -154 -186 -581q-10 -44 -29 -44q-12 0 -50 12t-38 54q0 88 20 138t33 50l31 -7q51 197 125 374q-252 -14 -298 -48q-46 -35 -46 -59t16 -62t17 -42
q0 -20 -18 -20q-9 0 -15 10q-61 106 -61 189q0 75 129 98q174 31 317 31q21 36 43 36t53 -34l201 6q14 4 25 4q49 0 110 -94q17 65 17 92t9 27q26 0 44 -28t-27 -163q100 -194 150 -350q181 304 371 524q8 23 34 64q13 19 47 19t105 -56q10 -8 3 -16t-26 -5q-40 7 -71 -53
q-100 -193 -135 -533z" />
    <glyph glyph-name="partialdiff" unicode="&#x2202;" horiz-adv-x="713" 
d="M194 1428q0 13 17 22q55 31 107 59t79 25q32 -8 55 -39q24 -31 78 -139t81 -206t61 -351q73 -45 73 -63t-61 -70v-33q-4 -93 -44 -236q-64 -232 -183 -360q-63 -68 -140 -68q-30 0 -77 13q-94 6 -156 62t-57 154t77 296t154 290q34 38 86 38t121 -50q64 23 96 6
q-17 183 -57 320q-94 323 -208 323l-74 -14q-28 0 -28 21zM575 675q0 41 -29 41q-10 0 -24 -3q-156 11 -200 -41q-114 -132 -162 -393q-11 -56 -11 -102q0 -154 95 -150q38 1 82 30q84 57 154 217t87 316q8 69 8 85z" />
    <glyph glyph-name="product" unicode="&#x220f;" horiz-adv-x="1354" 
d="M493 1295q0 53 144 53q15 36 39 36t59 -41q433 -30 707 -8q20 -3 58 16t54 16t34 -31t-6 -60t-51 -33h-157q-17 -17 -57 -80q-171 -265 -324 -952l68 119q20 34 37 34t17 -14t-32 -90t-52 -126q-20 -51 -28 -107q-7 -56 -27 -56t-95 41q-17 10 -17 68q0 170 72 442
t131 447q59 176 133 276q-358 4 -455 -10q-13 -43 -99 -269q-258 -679 -449 -980q-32 -50 -76 -35q-88 29 -88 51q0 15 18 53q26 44 60 119q2 8 2 58t9 50t19 -10q50 -47 43 -75q41 47 174 359t234 640q-99 68 -99 99z" />
    <glyph glyph-name="summation" unicode="&#x2211;" horiz-adv-x="911" 
d="M59 304q0 166 498 519q-89 70 -187 190t-98 212q0 46 29 78q84 90 96 99q37 30 121 30t204 -40t234 -81q36 24 56 24t35 -17.5t14 -33.5q-8 -95 -76 -137q-129 67 -292 127t-221 60q-18 0 -21 -7q-29 -51 -29 -108q0 -148 190 -345q30 20 64 44t56 24t50 -20t28 -38
t-11 -53q-27 -81 -73 -81l-83 8q-454 -356 -454 -514q0 -105 151 -125q70 -10 178 -10t157 20q50 20 55 26t18 38q8 29 16 59t35 49q72 51 83 51q28 0 36 -55t8 -67q0 -120 -229 -189q-167 -50 -326 -51q-69 -2 -131 36t-68 97q-48 25 -80.5 76t-32.5 105z" />
    <glyph glyph-name="periodcentered" unicode="&#x2219;" horiz-adv-x="344" 
d="M313 748q0 -22 -36 -107t-74 -85q14 0 -72 9q-11 1 -15 13t9 14q52 118 63 162q12 44 30 44t69 -18q26 -10 26 -32z" />
    <glyph glyph-name="radical" unicode="&#x221a;" horiz-adv-x="1198" 
d="M1058 1252q16 0 72 -91q9 -14 9 -41q0 -75 -119 -422q-46 -133 -139 -319t-129 -244q-19 -47 -38 -92t-59 -61q-33 -22 -71 -22t-68 40t-35 68q-93 249 -213 395q-31 38 -62 38q-32 -1 -78 -23t-53 -22q-16 0 -16 18t23 36q92 76 126 100t64 21q96 4 320 -559
q98 108 258 486t186 640q6 54 22 54z" />
    <glyph glyph-name="infinity" unicode="&#x221e;" horiz-adv-x="1554" 
d="M1069 360q98 0 182 51q109 68 113 191q-14 37 -26 54q-22 33 -105 33q-82 0 -185.5 -51.5t-179.5 -129.5q51 -111 160 -143q15 -5 41 -5zM1088 273q-49 0 -95 16q-95 32 -180 188q-73 -83 -193 -145t-224 -54q-104 6 -134 30q-28 24 -65 114q-49 54 -49 97q0 8 2 16
q24 91 74 151t146 100q95 40 163 40q116 0 181 -75t122 -178q200 220 360 220q101 0 143 -42t70 -128q21 -41 21 -91q0 -116 -70 -161q-151 -98 -272 -98zM577 726q-100 0 -200 -58q-132 -77 -132 -202q0 -96 117 -89q225 12 420 164q-73 153 -133 174q-31 11 -72 11z" />
    <glyph glyph-name="integral" unicode="&#x222b;" horiz-adv-x="498" 
d="M-160 -420q-70 0 -223 111q-16 11 -16 24q0 20 26 20q9 0 43 -18t72 -18t65 16q119 76 318 668q55 165 92 303q207 776 397 776q67 0 220 -110q15 -12 15 -24q0 -21 -25 -21q-10 1 -44 19t-72 18t-65 -17q-160 -102 -317 -668q-30 -107 -93 -303q-146 -462 -247 -640
q-76 -136 -146 -136z" />
    <glyph glyph-name="approxequal" unicode="&#x2248;" horiz-adv-x="922" 
d="M600 365q-26 0 -119 61q-94 61 -145 61t-125 -73q-1 -23 -17 -23q-16 1 -38 23t-21 28t21 30t88.5 72t87.5 48q49 0 134 -64q84 -64 118 -63q34 0 76 25t67 51q3 21 21 21t38 -21t20 -29t-22 -32q-22 -22 -90 -68.5t-94 -46.5zM668 588q-54 0 -134 62t-135 61
q-54 0 -131 -72q0 -24 -17 -24t-32 18q-27 24 -27 33q0 10 21 32t90 70.5t93 48.5q24 -1 64 -27t96 -64t88 -38q31 0 74 26t66 50q2 23 20 23t34 -15q25 -32 25 -38t-22 -29t-89.5 -70t-83.5 -47z" />
    <glyph glyph-name="approxequal" unicode="&#x22f2;" horiz-adv-x="922" 
d="M600 365q-26 0 -119 61q-94 61 -145 61t-125 -73q-1 -23 -17 -23q-16 1 -38 23t-21 28t21 30t88.5 72t87.5 48q49 0 134 -64q84 -64 118 -63q34 0 76 25t67 51q3 21 21 21t38 -21t20 -29t-22 -32q-22 -22 -90 -68.5t-94 -46.5zM668 588q-54 0 -134 62t-135 61
q-54 0 -131 -72q0 -24 -17 -24t-32 18q-27 24 -27 33q0 10 21 32t90 70.5t93 48.5q24 -1 64 -27t96 -64t88 -38q31 0 74 26t66 50q2 23 20 23t34 -15q25 -32 25 -38t-22 -29t-89.5 -70t-83.5 -47z" />
    <glyph glyph-name="notequal" unicode="&#x2260;" horiz-adv-x="868" 
d="M314 555q-102 0 -112 -15q-8 -16 -25 -12t-13 16t12 60q10 48 108 38t220 -13q2 3 22 43t20 64t-6 32q-6 6 -6 16q0 18 17 18q5 0 9 -1t40 -34t36 -49t-12 -37t-28 -54q26 -2 98 -2t81 16q9 17 25 15t15.5 -17t-14 -51.5t-25.5 -43t-60 -2.5t-159 7q-25 -47 -70 -137
q39 0 139 -2t108 15t24 15t16 -16q0 -5 -14 -42.5t-26 -47.5t-90 -6q-78 5 -191 8q-4 -6 -25 -54t-21 -64t7 -23q3 -9 -2.5 -22t-12.5 -13t-15 8t-54 39q-18 11 -18 35t34 77q2 7 10 19q-28 2 -107 2t-87 -15t-26 -11t-14 18t15 71q5 29 40 31q3 0 73 -8t147 -10
q43 81 70 137q-51 2 -153 2z" />
    <glyph glyph-name="lessequal" unicode="&#x2264;" horiz-adv-x="606" 
d="M564 137q0 -15 -14 -51t-26 -43t-142 1t-220 9q-90 0 -98 -15q-8 -16 -26 -12t-14 16t15 64q8 45 96 35q168 -18 274 -18q107 0 115 16q8 17 24 15t16 -17zM500 747q14 0 30.5 -39t16.5 -50q0 -21 -53 -44q-95 -38 -238 -84q-21 -4 12 -36q118 -114 166 -182t49 -78
q0 -10 -28 -16t-41 -6q-20 0 -36 46t-190 227q-16 17 -44 31t-35.5 39t-6.5 31t57 16t167 48.5t143 68.5q17 28 31 28z" />
    <glyph glyph-name="greaterequal" unicode="&#x2265;" horiz-adv-x="606" 
d="M532 137q0 -15 -14 -51t-26 -43t-142 1t-220 9q-90 0 -98 -15q-8 -16 -25 -12t-13 16t14 64q8 45 96 35q168 -18 274 -18t114 16t25 15q15 -2 15 -17zM136 214q-14 0 -31.5 39t-17.5 49q1 22 75 52t217 76q21 4 -12 37q-119 113 -167 181t-48 78t28 16t41 6q21 0 37 -46
t188 -227q15 -16 44 -30t36.5 -39.5t6.5 -31.5t-57 -16t-168 -48t-142 -68q-16 -28 -30 -28z" />
    <glyph glyph-name="lozenge" unicode="&#x25ca;" horiz-adv-x="989" 
d="M819 662q-35 81 -43 520q-134 -190 -459 -549q22 -52 43 -241t23 -290q175 290 436 560zM289 -53q-26 0 -26 21q0 12 9 30q21 40 -11 279t-42 291t-35 77q13 14 49 35q435 485 451 532q8 10 33 29q-2 63 143 111q18 5 30 5q25 0 25 -19q0 -12 -12 -34t-12 -90t15 -254
t16 -194q11 -65 49 -104q-16 -62 -43 -68q-98 -80 -249 -246t-239 -282q3 -72 -121 -113q-17 -6 -30 -6z" />
    <glyph glyph-name="fi" unicode="&#xf001;" horiz-adv-x="745" 
d="M59 -517q-20 1 -75 37t-55 77q1 87 127 533t169 583q-63 -4 -86 -4t-35 17t-13 31q0 14 21 22q21 7 72 17q50 10 64 20t54 128q102 306 215 528q44 86 102 127q19 13 56 13t129 -58t92 -78t-24 -19q-14 0 -48 18t-79 18t-78 -35q-33 -36 -91 -154t-90 -198
q-30 -80 -61 -168t-46 -129q71 -10 174 -16q15 17 25 17t38 -22q41 -11 52 -15q24 -9 24 -52q0 -89 -129 -490q24 20 78 95q7 10 16 10t9 -20t-64 -126t-80 -148q-18 -42 -25 -54q-7 -11 -33 -11t-64 18q-36 18 -36 26q0 7 26 51t70 178t76 268q31 134 31 161q-1 27 -13 33
t-64 7q-52 0 -144 -4q-115 -333 -199 -663t-84 -485l7 -68q0 -16 -11 -16zM755 1161q15 0 76 -45q15 -10 15 -24q0 -32 -70 -80t-87 -48t-61 16t-43 35q0 5 10 5h3q80 70 111 106t46 35z" />
    <glyph glyph-name="fl" unicode="&#xf002;" horiz-adv-x="791" 
d="M1070 1667q36 0 123 -74q31 -26 47 -38t15 -24q0 -19 -22 -19q-11 0 -37 15t-53 15q-46 0 -103 -73q-34 -43 -88 -147t-100 -209q-141 -333 -244 -886q20 19 56 62t50 43q13 0 13 -8t-27 -49q-82 -123 -99 -207t-34 -88q-4 -2 -6 -2q-23 0 -75 45q-23 20 -23 65t47 253
t106 415q-7 0 -38 -13q-93 -21 -238 -28q-112 -331 -194 -663t-83 -485l7 -68q0 -16 -11 -16q-20 1 -75 37t-55 77q1 87 127 533t169 583q-63 -4 -86 -4t-35 17t-13 31q0 14 21 22q21 7 72 17q50 10 64 20t54 128q102 306 215 528q72 140 153 140q32 0 129 -51t97 -85v-4
q107 195 174 195zM746 1493q-44 0 -78 -34q-32 -35 -92 -153t-96 -209t-107 -288q151 -25 189 -25t68 33q8 9 32 90q62 215 192 484q18 38 36 71q-16 -13 -58 9t-86 22z" />
    <glyph glyph-name="glyph172" horiz-adv-x="866" 
 />
    <glyph glyph-name="apple" horiz-adv-x="1268" 
d="M174 254q0 30 18 30t44 -34t27 -42q0 -8 -1 -11q94 157 216 459t204 569q-13 -22 -117 -68t-113 -50q-124 -51 -124 -128q0 -27 8 -53t8 -33q0 -21 -22 -21t-45 52q-54 126 -54 170t17 60q62 58 202 85l68 13q157 29 199 95q21 33 31 33q24 0 48 -24t25 -43
q-1 -19 -45 -159t-50 -150t-9 -23q76 32 183 96q301 198 313 214q11 17 28 42q27 38 55 38q28 1 74 -23q47 -24 47 -46q-1 -22 -21 -56t-53 -107q-1 -21 -1 -63t-18 -41q-11 1 -41 31t-30 56q-93 -156 -217 -466t-203 -562q17 24 105 59t102 42q107 46 107 121q-1 26 -9 52
t-8 33q0 22 22 22t46 -55q53 -125 53 -184q0 -109 -329 -143q-76 -8 -120 -77q-17 -25 -33 -25q-16 -1 -41 23t-25 46q0 65 102 323q4 12 16 46q-69 -25 -286 -183l-91 -66q-82 -60 -99 -70t-25 -20q-8 -8 -36 -49t-56 -41t-74 23t-47 45t19 54q20 33 54 110l3 30l-1 29v15z
M901 596q177 436 244 549q-61 -41 -123 -81q-275 -177 -397 -298q-179 -447 -258 -588q77 34 247 168t287 250z" />
  </font>
</defs>
</svg>
